<?xml version="1.0" encoding="UTF-8"?> <svg xmlns="http://www.w3.org/2000/svg" id="Layer_2" viewBox="0 0 487.29 473.63"> <defs> <style>.cls-1{fill:#00ff6f;}</style> </defs> <g id="Layer_4"> <path class="cls-1" d="M0,0H487.29V473.63H0V0ZM243.65,411.36c33.69,0,64.8-8.35,91.35-23.06l24.72,29.05,54.05-46.29-26.58-26.92c23.36-29.51,37.01-66.76,37.01-107.72,0-98.08-78.33-174.41-180.56-174.41S63.09,138.35,63.09,236.43s78.33,174.93,180.56,174.93Zm0-280.57c59.11,0,107.03,43.86,107.03,105.77,0,20.34-5.17,38.74-14.22,54.26l-24.21-28.48-53.64,43.57,27.28,28.36c-12.96,5.23-27.24,8.06-42.25,8.06-59.11,0-107.03-43.86-107.03-105.77s47.92-105.77,107.03-105.77Z"></path> </g> </svg> 