<?xml version="1.0" encoding="UTF-8"?> <svg xmlns="http://www.w3.org/2000/svg" xmlns:xlink="http://www.w3.org/1999/xlink" viewBox="0 0 2124.46 2128.47"> <defs> <style>.cls-1{fill:#6f858d;stroke:#2b434d;}.cls-1,.cls-10,.cls-11,.cls-12,.cls-13,.cls-14,.cls-15,.cls-16,.cls-17,.cls-18,.cls-19,.cls-2,.cls-20,.cls-21,.cls-22,.cls-23,.cls-24,.cls-25,.cls-3,.cls-4,.cls-7,.cls-8,.cls-9{stroke-miterlimit:10;}.cls-1,.cls-4{stroke-width:5px;}.cls-2,.cls-24{fill:#a4bec9;}.cls-10,.cls-11,.cls-12,.cls-13,.cls-14,.cls-15,.cls-16,.cls-17,.cls-18,.cls-19,.cls-2,.cls-20,.cls-21,.cls-24,.cls-25,.cls-4,.cls-8,.cls-9{stroke:#172124;}.cls-21,.cls-22,.cls-23,.cls-3{fill:none;}.cls-3,.cls-7{stroke:#000019;}.cls-10,.cls-11,.cls-12,.cls-13,.cls-14,.cls-15,.cls-16,.cls-17,.cls-18,.cls-19,.cls-20,.cls-3,.cls-8,.cls-9{stroke-width:3px;}.cls-4{fill:#2b434d;}.cls-5{fill:#000019;}.cls-6{fill:url(#New_Gradient_Swatch_1);}.cls-7{fill:#f2f2f2;}.cls-25,.cls-7{stroke-width:2px;}.cls-8{fill:url(#New_Gradient_Swatch_2);}.cls-9{fill:url(#New_Gradient_Swatch_2-2);}.cls-10{fill:url(#New_Gradient_Swatch_2-3);}.cls-11{fill:url(#New_Gradient_Swatch_2-4);}.cls-12{fill:url(#New_Gradient_Swatch_2-5);}.cls-13{fill:url(#New_Gradient_Swatch_2-6);}.cls-14{fill:url(#New_Gradient_Swatch_2-7);}.cls-15{fill:url(#New_Gradient_Swatch_2-8);}.cls-16{fill:url(#New_Gradient_Swatch_2-9);}.cls-17{fill:url(#New_Gradient_Swatch_2-10);}.cls-18{fill:url(#New_Gradient_Swatch_2-11);}.cls-19{fill:url(#New_Gradient_Swatch_2-12);}.cls-20{fill:url(#New_Gradient_Swatch_2-13);}.cls-21,.cls-22,.cls-23,.cls-24{stroke-width:4px;}.cls-22{stroke:#181e36;}.cls-23{stroke:#97b9c8;}.cls-25{fill:#e1e3e2;}</style> <linearGradient id="New_Gradient_Swatch_1" x1="988.4" y1="746.56" x2="1134.92" y2="746.56" gradientUnits="userSpaceOnUse"> <stop offset="0" stop-color="#e0e0e0"></stop> <stop offset="0.06" stop-color="#dadada"></stop> <stop offset="1" stop-color="#7c7d7d"></stop> </linearGradient> <linearGradient id="New_Gradient_Swatch_2" x1="1418.13" y1="1352.63" x2="1418.13" y2="1780.05" gradientUnits="userSpaceOnUse"> <stop offset="0" stop-color="#e0e0e0"></stop> <stop offset="0.18" stop-color="#cbced1"></stop> <stop offset="1" stop-color="#6d7e8c"></stop> </linearGradient> <linearGradient id="New_Gradient_Swatch_2-2" x1="1508.17" y1="1831.51" x2="1508.17" y2="1991.81" xlink:href="#New_Gradient_Swatch_2"></linearGradient> <linearGradient id="New_Gradient_Swatch_2-3" x1="1600.56" y1="1750.57" x2="1600.56" y2="1866.99" xlink:href="#New_Gradient_Swatch_2"></linearGradient> <linearGradient id="New_Gradient_Swatch_2-4" x1="634.69" y1="1831.04" x2="634.69" y2="1991.42" xlink:href="#New_Gradient_Swatch_2"></linearGradient> <linearGradient id="New_Gradient_Swatch_2-5" x1="536.01" y1="1751.17" x2="536.01" y2="1867.64" xlink:href="#New_Gradient_Swatch_2"></linearGradient> <linearGradient id="New_Gradient_Swatch_2-6" x1="1504.74" y1="1385.39" x2="1504.74" y2="1390.35" xlink:href="#New_Gradient_Swatch_2"></linearGradient> <linearGradient id="New_Gradient_Swatch_2-7" x1="728.26" y1="1751.85" x2="728.26" y2="1866.84" xlink:href="#New_Gradient_Swatch_2"></linearGradient> <linearGradient id="New_Gradient_Swatch_2-8" x1="1408.18" y1="1751.23" x2="1408.18" y2="1867.51" xlink:href="#New_Gradient_Swatch_2"></linearGradient> <linearGradient id="New_Gradient_Swatch_2-9" x1="545.36" y1="1364.82" x2="545.36" y2="1778.92" xlink:href="#New_Gradient_Swatch_2"></linearGradient> <linearGradient id="New_Gradient_Swatch_2-10" x1="1589.07" y1="1361.09" x2="1589.07" y2="1778.45" xlink:href="#New_Gradient_Swatch_2"></linearGradient> <linearGradient id="New_Gradient_Swatch_2-11" x1="631.6" y1="1383.72" x2="631.6" y2="1872.41" xlink:href="#New_Gradient_Swatch_2"></linearGradient> <linearGradient id="New_Gradient_Swatch_2-12" x1="1504.96" y1="1400.01" x2="1504.96" y2="1872.45" xlink:href="#New_Gradient_Swatch_2"></linearGradient> <linearGradient id="New_Gradient_Swatch_2-13" x1="717.88" y1="1366.23" x2="717.88" y2="1783.59" xlink:href="#New_Gradient_Swatch_2"></linearGradient> </defs> <g id="Layer_2" data-name="Layer 2"> <g id="Layer_3" data-name="Layer 3"> <path class="cls-1" d="M1842.54,822.9c141.59-20.85,212.31-174.44,243.56-225.23-60.71,42.89-178.81,126.24-209.8,134.67-100,27.21-267.84,4.41-295.46-13,10.8-13.29,55.59-35.95,173.11-24.48,180.92,17.57,254-148.13,355.09-262-116.06,79.58-192.89,135.31-256.43,161-135.44,54.68-252.86,64.39-271.42,46.81,125.78-75.3,289.73-64.46,391.1-154.22,76.36-67.6,52.45-220.35,118.09-303.1C1984.5,283,1944.05,370.85,1892.72,402.75s-230,150.47-318.59,139.92c98.66-90.71,211.23-109.79,270.56-179.2,94.16-109,56.61-155.64,147.91-343.75C1860.93,186.91,1778,290.06,1671.44,360.41,1598.17,408.85,1505,428,1462.86,505.94c-35.18,64.94-6.44,82-37.16,170.59-21.86,63.16-88.91,83.41-150.48,81.19l1.4-.06-8.21-.28c-7.73-.48-15.34-1.32-22.73-2.46-77.09-21.27-12.28-155.62,25.42-261.21,22.38-64.2,109.54,5.07,126.62-71.32-39.57,27.79-82.7,20.62-123.8,23.2,58.12-30,112.33-24.51,187.24-64.49,39.11-20.86,66.64-77.55,66.23-116.27-60.21,137.49-178.93,107.53-250.72,155.3,17.72-39,110.08-113.45,122.44-61.86,18.43-105-62.54-67-97.49-53.79-28.46-47.81-153.68,85.52-196.16,101.06,15.36,7.49,30.72,9.74,46.07,1.69-36.53,51.5-38.29,106.59-32.38,161.64,3.19,29.73-22.68,63.09-59.15,93.23-36.53-30.16-62.44-63.55-59.26-93.3,5.92-55.06,4.16-110.15-32.38-161.65,15.36,8.05,30.72,5.8,46.07-1.69C972,389.92,846.73,256.59,818.27,304.4c-34.95-13.25-115.91-51.24-97.48,53.79,12.36-51.59,104.72,22.88,122.44,61.86-84.53-51.73-206.82-24.87-250.73-155.3-.41,38.72,27.13,95.41,66.24,116.27,74.91,40,129.11,34.52,187.24,64.49-41.11-2.58-84.24,4.59-123.81-23.2,17.09,76.39,104.25,7.12,126.63,71.32,41.86,117.25,117.2,270-5.52,264l2.52,3.19c-60.62,1.36-125.59-19.3-147-81.29-30.71-88.55-2-105.64-37.16-170.59C619.45,431,526.28,411.8,453,363.37,346.46,293,263.53,189.87,131.85,22.68c91.3,188.1,53.75,234.72,147.91,343.75,59.33,69.4,171.91,88.49,270.56,179.2-88.64,10.55-267.24-108-318.58-139.92S140,286,34.08,186.24C99.71,269,75.81,421.75,152.17,489.35c101.37,89.76,265.31,78.91,391.1,154.21-18.56,17.59-136,7.88-271.43-46.81-63.53-25.66-140.36-81.4-256.42-161,101.08,113.87,174.16,279.58,355.09,262C488,686.32,532.81,709,543.61,722.27c-27.61,17.43-195.43,40.24-295.46,13-31-8.44-149.08-91.78-209.79-134.68,31.25,50.79,102,204.39,243.56,225.24,71.39,10.54,288.27-65.72,329.46,1.69C445.67,829.75,274.22,892.32,78,799.12c143.61,124.59,323.4,184.22,512.67,99.8,29.3-13.07,59.73-18.27,89.89-4.32-50,24.16-132.86,69.8-224.47,79.25-106.56,11-199.8-25.68-263.55-39.18,80.18,47.57,72.95,79,217.36,114.1,72.58,17.62,334.48-78.6,334.49-78.59S740,1086.82,306.6,1076.43c0,0,206.5,84.9,309.75,65.69,181-50.43,203.28-152.3,329.68-247.91-3.32,49.31,10.69,101.36,6.29,151.07-7.68,86.09-99.42,352.25-161.19,312.11,9.26,16.23,55.53,27.16,73.26,25.71-35.83,23.08-104.35,57.9-137.14,67.09-65-11.09-77-105.64-121.71-144.75-93.6-63-99.91,78.8-60.42,85.77-12-43.17,11.85-57.64,24.79-41.6,21.8,33.59,64.15,79.45,98.32,107.74-79.36-23.06-65-42.37-118.49-48.58-113.27,1.82-41.54,123.4-6.29,109.19-33.06-29.76-20.34-56.29-.81-50.3a300.75,300.75,0,0,0,62.52,18.82c15.13,3.6,31.35,4.93,46.81,5.92-28.53,9.89-38.57,5.08-68.38,30-79.65,85.39,61.09,119.53,67.62,82.6-43.25,3.31-51.68-25.08-33.8-35.3,36.19-15.7,70.73-40.29,98.94-67.08,35.14,20.51,78.65,37.1,119.4,40.82,17.67,3.84,20.43,33.09-15.14,43.82,18.23,18.59,115.53-37.92,27-96-30.73-13.18-38.57-9.56-62-9.1,29.4-13,78.15-37.47,110.61-59.16-12,94.55-8.66,200.18,32,289.7-23.69-130.82,56.56-261.26,77.21-363.79,2.92,131-13.16,226.83-39.84,307.08-29.71,89.35-62.21,133.25-92.23,166-38.56,42.14-82.19,80.58-91.93,162.26,51.58-119,182.5-7.74,252.89-263.1,6.58,118.36-44.44,99.64-39.42,233.57,1.3,35,64.36,158.19,66.3,164.94,1.41-4.55,62.08-52.32,66.3-164.94,5-133.93-46-115.21-39.42-233.57,70.39,255.36,201.31,144.11,252.89,263.1-9.74-81.68-53.37-120.12-91.94-162.26-30-32.78-62.52-76.68-92.22-166-26.68-80.25-42.76-176-39.85-307.08,20.65,102.53,100.91,233,77.22,363.79,40.64-89.52,44-195.15,32-289.7,32.47,21.69,81.21,46.18,110.62,59.16-23.47-.46-31.3-4.08-62,9.1-88.54,58,8.75,114.54,27,96-35.56-10.73-32.8-40-15.14-43.82,40.76-3.72,84.27-20.31,119.41-40.82,28.2,26.79,62.75,51.38,98.93,67.08,17.89,10.22,9.45,38.61-33.79,35.3,6.52,36.93,147.27,2.79,67.61-82.6-29.81-24.9-39.84-20.09-68.37-30,15.46-1,31.67-2.32,46.81-5.92a300.75,300.75,0,0,0,62.52-18.82c19.52-6,32.24,20.54-.81,50.3,35.25,14.21,107-107.37-6.29-109.19-53.48,6.21-39.13,25.52-118.49,48.58,34.16-28.29,76.51-74.15,98.31-107.74,12.95-16,36.79-1.57,24.79,41.6,39.49-7,33.18-148.78-60.41-85.77-44.73,39.11-56.74,133.66-121.71,144.75-32.8-9.19-101.31-44-137.14-67.09,17.72,1.45,64-9.48,73.26-25.71-61.77,40.14-153.53-226-161.19-312.11-1.09-12.25,7.76-113.16,6.3-155.65,128.32,96.07,149.78,198.82,331.83,249.53,103.25,19.21,309.74-65.69,309.74-65.69-433.36,10.4-437.72-106.29-437.73-106.24s261.91,96.2,334.48,78.58c144.41-35.07,137.19-66.52,217.37-114.1-63.75,13.5-157,50.18-263.56,39.19-91.6-9.45-174.5-55.09-224.46-79.26,30.15-13.94,60.59-8.74,89.89,4.32,189.27,84.42,369.06,24.8,512.67-99.8-196.28,93.2-367.72,30.63-533.43,28.43C1554.27,757.19,1771.14,833.45,1842.54,822.9Zm-555.23-489c5.62,3.78,3.39,34.17-2.73,43.6-12.61,24.9-46.12,15.19-47.59,10.8-18,10.5-34.67,16.25-46.5,30.64C1202.82,383.32,1275.84,366,1287.31,333.89Z"></path> <path class="cls-2" d="M1287.31,333.89c5.62,3.78,3.39,34.17-2.73,43.6-12.61,24.9-46.12,15.19-47.59,10.8-18,10.5-34.67,16.25-46.5,30.64C1202.82,383.32,1275.84,366,1287.31,333.89Z"></path> <path class="cls-2" d="M823.5,325.89c-5.62,3.79-3.38,34.17,2.73,43.61,12.61,24.9,46.12,15.19,47.6,10.8,17.95,10.49,34.66,16.25,46.5,30.64C908,375.33,835,358,823.5,325.89Z"></path> <path class="cls-3" d="M1842.54,822.9c141.59-20.85,212.31-174.44,243.56-225.23-60.71,42.89-178.81,126.24-209.8,134.67-100,27.21-267.84,4.41-295.46-13,10.8-13.29,55.59-35.95,173.11-24.48,180.92,17.57,254-148.13,355.09-262-116.06,79.58-192.89,135.31-256.43,161-135.44,54.68-252.86,64.39-271.42,46.81,125.78-75.3,289.73-64.46,391.1-154.22,76.36-67.6,52.45-220.35,118.09-303.1C1984.5,283,1944.05,370.85,1892.72,402.75s-230,150.47-318.59,139.92c98.66-90.71,211.23-109.79,270.56-179.2,94.16-109,56.61-155.64,147.91-343.75C1860.93,186.91,1778,290.06,1671.44,360.41,1598.17,408.85,1505,428,1462.86,505.94c-35.18,64.94-6.44,82-37.16,170.59-21.86,63.16-88.91,83.41-150.48,81.19l1.4-.06-8.21-.28c-7.73-.48-15.34-1.32-22.73-2.46-77.09-21.27-12.28-155.62,25.42-261.21,22.38-64.2,109.54,5.07,126.62-71.32-39.57,27.79-82.7,20.62-123.8,23.2,58.12-30,112.33-24.51,187.24-64.49,39.11-20.86,66.64-77.55,66.23-116.27-60.21,137.49-178.93,107.53-250.72,155.3,17.72-39,110.08-113.45,122.44-61.86,18.43-105-62.54-67-97.49-53.79-28.46-47.81-153.68,85.52-196.16,101.06,15.36,7.49,30.72,9.74,46.07,1.69-36.53,51.5-38.29,106.59-32.38,161.64,3.19,29.73-22.68,63.09-59.15,93.23-36.53-30.16-62.44-63.55-59.26-93.3,5.92-55.06,4.16-110.15-32.38-161.65,15.36,8.05,30.72,5.8,46.07-1.69C972,389.92,846.73,256.59,818.27,304.4c-34.95-13.25-115.91-51.24-97.48,53.79,12.36-51.59,104.72,22.88,122.44,61.86-84.53-51.73-206.82-24.87-250.73-155.3-.41,38.72,27.13,95.41,66.24,116.27,74.91,40,129.11,34.52,187.24,64.49-41.11-2.58-84.24,4.59-123.81-23.2,17.09,76.39,104.25,7.12,126.63,71.32,41.86,117.25,117.2,270-5.52,264l2.52,3.19c-60.62,1.36-125.59-19.3-147-81.29-30.71-88.55-2-105.64-37.16-170.59C619.45,431,526.28,411.8,453,363.37,346.46,293,263.53,189.87,131.85,22.68c91.3,188.1,53.75,234.72,147.91,343.75,59.33,69.4,171.91,88.49,270.56,179.2-88.64,10.55-267.24-108-318.58-139.92S140,286,34.08,186.24C99.71,269,75.81,421.75,152.17,489.35c101.37,89.76,265.31,78.91,391.1,154.21-18.56,17.59-136,7.88-271.43-46.81-63.53-25.66-140.36-81.4-256.42-161,101.08,113.87,174.16,279.58,355.09,262C488,686.32,532.81,709,543.61,722.27c-27.61,17.43-195.43,40.24-295.46,13-31-8.44-149.08-91.78-209.79-134.68,31.25,50.79,102,204.39,243.56,225.24,71.39,10.54,288.27-65.72,329.46,1.69C445.67,829.75,274.22,892.32,78,799.12c143.61,124.59,323.4,184.22,512.67,99.8,29.3-13.07,59.73-18.27,89.89-4.32-50,24.16-132.86,69.8-224.47,79.25-106.56,11-199.8-25.68-263.55-39.18,80.18,47.57,72.95,79,217.36,114.1,72.58,17.62,334.48-78.6,334.49-78.59S740,1086.82,306.6,1076.43c0,0,206.5,84.9,309.75,65.69,181-50.43,203.28-152.3,329.68-247.91-3.32,49.31,10.69,101.36,6.29,151.07-7.68,86.09-99.42,351.78-161.19,311.63,9.26,16.23,55.53,27.17,73.26,25.72-35.83,23.08-104.35,57.89-137.14,67.09-65-11.1-77-105.65-121.71-144.75-93.6-63-99.91,78.8-60.42,85.76-12-43.16,11.85-57.64,24.79-41.6,21.8,33.59,64.15,79.45,98.32,107.75-79.36-23.06-65-42.37-118.49-48.58-113.27,1.81-41.54,123.4-6.29,109.18-33.06-29.75-20.34-56.29-.81-50.29A300.13,300.13,0,0,0,605.16,1486c15.13,3.61,31.35,4.94,46.81,5.93-28.53,9.88-38.57,5.07-68.38,30-79.65,85.4,61.09,119.53,67.62,82.6-43.25,3.32-51.68-25.08-33.8-35.29,36.19-15.71,70.73-40.29,98.94-67.08,35.14,20.51,78.65,37.1,119.4,40.81,17.67,3.84,20.43,33.1-15.14,43.83,18.23,18.59,115.53-37.93,27-96-30.73-13.17-38.57-9.56-62-9.09,29.4-13,78.15-37.47,110.61-59.16-12,94.55-8.66,200.18,32,289.69-23.69-130.82,56.56-261.26,77.21-363.79,2.92,131-13.16,226.84-39.84,307.08-29.71,89.35-62.21,133.26-92.23,166-38.56,42.15-82.19,80.58-91.93,162.26,51.58-119,182.5-7.74,252.89-263.09,6.58,118.36-44.44,99.63-39.42,233.57,1.3,34.94,64.36,158.66,66.3,165.41,1.41-4.55,62.08-52.8,66.3-165.41,5-133.94-46-115.21-39.42-233.57,70.39,255.35,201.31,144.11,252.89,263.09-9.74-81.68-53.37-120.11-91.94-162.26-30-32.77-62.52-76.68-92.22-166-26.68-80.24-42.76-176-39.85-307.08,20.65,102.53,100.91,233,77.22,363.79,40.64-89.51,44-195.14,32-289.69,32.47,21.69,81.21,46.17,110.62,59.16-23.47-.47-31.3-4.08-62,9.09-88.54,58,8.75,114.55,27,96-35.56-10.73-32.8-40-15.14-43.83,40.76-3.71,84.27-20.3,119.41-40.81,28.2,26.79,62.75,51.37,98.93,67.08,17.89,10.21,9.45,38.61-33.79,35.29,6.52,36.93,147.27,2.8,67.61-82.6-29.81-24.9-39.84-20.09-68.37-30,15.46-1,31.67-2.32,46.81-5.93a300.13,300.13,0,0,0,62.52-18.81c19.52-6,32.24,20.54-.81,50.29,35.25,14.22,107-107.37-6.29-109.18-53.48,6.21-39.13,25.52-118.49,48.58,34.16-28.3,76.51-74.16,98.31-107.75,12.95-16,36.79-1.56,24.79,41.6,39.49-7,33.18-148.77-60.41-85.76-44.73,39.1-56.74,133.65-121.71,144.75-32.8-9.2-101.31-44-137.14-67.09,17.72,1.45,64-9.49,73.26-25.72-61.77,40.15-153.53-225.54-161.19-311.63-1.09-12.25,7.76-113.16,6.3-155.65,128.32,96.07,149.78,198.82,331.83,249.53,103.25,19.21,309.74-65.69,309.74-65.69-433.36,10.4-437.72-106.29-437.73-106.24s261.91,96.2,334.48,78.58c144.41-35.07,137.19-66.52,217.37-114.1-63.75,13.5-157,50.18-263.56,39.19-91.6-9.45-174.5-55.09-224.46-79.26,30.15-13.94,60.59-8.74,89.89,4.32,189.27,84.42,369.06,24.8,512.67-99.8-196.28,93.2-367.72,30.63-533.43,28.43C1554.27,757.19,1771.14,833.45,1842.54,822.9Zm-555.23-489c5.62,3.78,3.39,34.17-2.73,43.6-12.61,24.9-46.12,15.19-47.59,10.8-18,10.5-34.67,16.25-46.5,30.64C1202.82,383.32,1275.84,366,1287.31,333.89Z"></path> <path class="cls-3" d="M1287.31,333.89c5.62,3.78,3.39,34.17-2.73,43.6-12.61,24.9-46.12,15.19-47.59,10.8-18,10.5-34.67,16.25-46.5,30.64C1202.82,383.32,1275.84,366,1287.31,333.89Z"></path> <path class="cls-3" d="M823.5,325.89c-5.62,3.79-3.38,34.17,2.73,43.61,12.61,24.9,46.12,15.19,47.6,10.8,17.95,10.49,34.66,16.25,46.5,30.64C908,375.33,835,358,823.5,325.89Z"></path> <path class="cls-4" d="M1062.66,542.87c-245,175.94-525.5,63.49-525.5,63.49,0,933.32,525.5,1233.51,525.5,1233.51s525.5-301.08,525.5-1234.4C1588.16,605.47,1307.69,718.81,1062.66,542.87Z"></path> <path class="cls-5" d="M1057.46,1756.54C1009,1726,916.83,1656.37,828.61,1526.05h0C724.36,1371.68,623.93,1089.42,610.13,720.4h0l-.38-10.08h10.06c100.72-.27,289.59,72.87,437.77-77.4h0l5.08-3.11,5.07,3.11c144.11,154.32,337,77.13,437.76,77.4h10.06l-.37,10.08c-15.07,402.26-132.87,693.46-246.79,845.29h0c-61.07,81.16-121.57,134.47-166,167.17h0c-13.07,9.63-24.74,17.46-34.59,23.68h0l-5.19,3.28-5.2-3.28ZM844.73,1514c83.38,123.16,170.07,190.59,217.93,221.61h0c8.31-5.4,17.82-11.89,28.26-19.57h0c43-31.74,102.11-83.7,161.93-163.19h0c110.61-147.55,225.91-431.44,242.48-824.34h0c-102.84-1.41-271.76,76-432.67-77.09h0C903.73,811.89,732.78,727.06,630,728.47h0c15.18,360.17,113.51,635.46,214.77,785.49Z"></path> <path class="cls-6" d="M1063,288.69c-18.2,67.53-34.91,133.86-35.24,186.91-10.51,117.56,9.31,398.28,9,398.55C1032,1034,1026.47,1170.4,988.4,1204.42l146.52-1.25c-43-57.25-45-168.36-40.53-287.93l7.16-286.73C1101.74,496.47,1089.46,382.35,1063,288.69Z"></path> <g id="L-snake_official" data-name="L-snake official"> <path class="cls-7" d="M1093.73,596.85c.32.21.47.58.66.6,2.83.25,5.7.3,8.51.69s5.79,1.33,8.71,1.63a78.51,78.51,0,0,1,12.37,2.77,159.79,159.79,0,0,1,18.78,6.17c5.85,2.37,11.45,5.2,17.1,7.95a143,143,0,0,1,17.52,10.72c5.59,3.8,11,7.81,16.36,12,3.86,3,7.39,6.46,11,9.72,2,1.77,4.12,3.41,5.93,5.35,5.8,6.24,11.33,12.69,16.52,19.48a146.48,146.48,0,0,1,16.3,26.54,117.66,117.66,0,0,1,8.56,24.07,83.08,83.08,0,0,1,2.48,17.8c0,2.43.77,4.89.5,7.26-.43,3.91-.09,7.89-1.13,11.74a22,22,0,0,0-.64,4.44c-.23,3.61-2.76,5-5.64,6.18a8.17,8.17,0,0,0-2.43.91c-1.15,1-1.89,0-2.74-.31s-.82-.85,0-1.21c.62-.28,1.31-.38,1.92-.66a9.61,9.61,0,0,0,2.28-1.29c.82-.71,2.28-1.65,1.46-2.7s-2-.13-3.17.55a26.47,26.47,0,0,1-5.67,2.16,1.41,1.41,0,0,1-1.27-.54,1.57,1.57,0,0,1,.21-1.4,22.12,22.12,0,0,1,2-1.79,34.54,34.54,0,0,0,3-3c1.69-2.1.89-4.2.08-6.49-1.77-5-4.14-9.65-8.14-13.26a10.64,10.64,0,0,0-7.24-2.91c-.64,0-1.28.51-1.94.56-1.17.08-1,.4-.65,1.34a27.66,27.66,0,0,1,1.62,8.76c0,1.38-.25,2.74.48,4.19.43.84-.46,2.27-.48,3.45a64.1,64.1,0,0,1-1.7,11.5c-1,5.32-3.31,10.37-3.41,15.91,0,2.13-1.41,4.37-1.06,6.36.68,3.82.53,7.91,2.76,11.38.16.26,0,.7,0,1.06-.22-.16-.45-.3-.66-.48s-.43-.46-.67-.66c-1.43-1.17-2.11-.94-2.85.87a5.38,5.38,0,0,1-.75,1c-.17-.42-.58-1-.46-1.24,1.37-3.18-.1-6.65,1.15-9.88A19.42,19.42,0,0,0,1220,789a53.14,53.14,0,0,1,.7-6.94c.78-3.28.5-6.73,1.78-9.92a9.77,9.77,0,0,0,0-2.49c.19-2.22.18-4.44.42-6.67.27-2.58.16-5.62-1.9-7.89-.32-.34-1-.81-1.21-.69a2.15,2.15,0,0,0-1,1.33c-.3,2.2-.24,4.47-.71,6.63-.81,3.69-.42,7.51-1.73,11.19-.95,2.67-.84,5.7-1.4,8.53-.34,1.7-1.17,3.29-1.59,5s-1.17.77-1.54.14a13.79,13.79,0,0,1-1.8-4c-.6-2.92-.81-5.93-1.33-8.87s-1.27-5.56-1.76-8.36c-.37-2.08-.47-4.2-.73-6.3-.62-4.86-1-9.77-1.93-14.58-1.8-9.39-3.82-18.78-7.67-27.57-2.14-4.89-4.44-9.82-8.07-13.93a6.51,6.51,0,0,1-1-3.12,18.82,18.82,0,0,0,1.08-1.64s-.23-.22-.36-.33l-.88,1.82a7.61,7.61,0,0,1-4-2.45c-1.81-1.74-3.49-3.62-5.35-5.3s-2.63-3.75-1.77-5.72c.75-1.72-.38-.87-.78-.93-.22,0-.52.22-.76.39a4,4,0,0,1-4.72.18,52,52,0,0,1-6.65-4.34c-2.21-1.84-2.11-3.92-.25-6.2s3.56-4.38,5.33-6.57c.22-.28.41-.59.62-.89-.49-.05-1.19-.32-1.44-.1a38.38,38.38,0,0,0-4,3.91c-1.56,1.82-2.92,3.8-4.38,5.7a2.27,2.27,0,0,1-3.22.64c-2.06-1.09-4.22-2-6.22-3.15s-2.13-2.42-1.59-4.71c.68-2.92,2.64-5,4.26-7.34.63-.9,1.36-1.73,2-2.64a1.8,1.8,0,0,0,.22-1.06c0-.08-.52-.18-.81-.21-1.9-.18-2.66,1.25-3.43,2.55-1.24,2.09-2.36,4.26-3.61,6.34a12.74,12.74,0,0,1-2,2.61,2.34,2.34,0,0,1-2.76.45c-2.35-.95-5-1.2-6.75-3.46a3.55,3.55,0,0,1-.64-3.66c1.17-3.91,3.76-7,5.52-10.59.17-.35.65-.57.78-.93a3.35,3.35,0,0,0,0-1.22,6,6,0,0,0-1.2.39c-2.09,1.2-3.25,3.24-4.35,5.22-1.26,2.28-2.24,4.72-3.28,7.11s-2,2.58-4.53,1.58a15,15,0,0,0-4.44-1.48c-2-.18-2.91-3.24-1.8-5.63,1.18-2.55,2.61-5,3.71-7.57.58-1.36.85-2.81,2-3.89.24-.23,0-.95,0-1.44a6.64,6.64,0,0,0-1.5.52c-2.82,1.83-3.44,5-4.63,7.8-.34.8-.39,1.72-.65,2.56-1.6,5-4.86,6-9.73,4.77a4.61,4.61,0,0,1-3.76-3.41,6.82,6.82,0,0,1,.4-4c1.33-3.42,2.92-6.74,4.37-10.12a2.9,2.9,0,0,0,0-1.1,4.3,4.3,0,0,0-1.1.36c-2.77,1.87-3.47,5-4.6,7.81-.5,1.26-.84,2.58-1.27,3.87-.87,2.63-2.42,3.89-5,3.88a18.62,18.62,0,0,1-4.48-.48,3,3,0,0,1-2.39-3,10.39,10.39,0,0,1,1-6.15c1.27-2.6,2.14-5.39,3.15-8.11a3,3,0,0,0,0-1.06c-.36.11-.91.11-1,.34a46.16,46.16,0,0,0-3.64,7,43,43,0,0,1-2.56,6.16c-1.94,3.57-3.35,4.32-7.4,3.43-1.25-.28-3-.12-3.62-.88s-.36-2.57-.28-3.9a18.3,18.3,0,0,1,.61-3.51c.58-2.36,1.25-4.71,1.82-7.08a1.55,1.55,0,0,0-.41-.91,2.75,2.75,0,0,0-1.4.63c-1.25,1.71-1.42,3.81-1.92,5.79a42.79,42.79,0,0,1-1.73,6.18,5.86,5.86,0,0,1-4.62,3.84,27.87,27.87,0,0,1-5.42.42c-2.54,0-3.43-1.43-2.73-4,.89-3.19,1.77-6.38,2.67-9.56.05-.18.42-.31.41-.45,0-1.19-.13-2.37-.21-3.56-.93,1-2.31,1.77-2.7,2.92a48.65,48.65,0,0,0-1.35,7c-1.19,6.77-5,9.18-11.19,9.53a2.34,2.34,0,0,1-2.57-2.66,84.28,84.28,0,0,1,1.45-8.5c.31-1.4,1.07-2.69,1.48-4.08a4.48,4.48,0,0,0-.16-1.68c-.64.22-1.61.27-1.85.71a15.45,15.45,0,0,0-1.56,4c-.54,2.51-.77,5.1-1.31,7.62a9.77,9.77,0,0,1-6.7,7.7A32.25,32.25,0,0,1,1035,664c-1.19.24-1.9-.34-2-1.69a35,35,0,0,1,1-9c.38-1.84.62-3.72.85-5.6,0-.16-.54-.6-.77-.56a1.44,1.44,0,0,0-1,.66,33.71,33.71,0,0,0-1.26,4.81c-.34,2.08-.33,4.23-.69,6.31-.51,3-.67,6.17-4.08,7.69-1.85.82-3.18,2.58-5.57,2.53-1.86,0-2.59-.27-2.9-1.94-.38-2,.1-4,0-6.08-.06-2.19,0-4.39,0-6.59a4.64,4.64,0,0,0-.27-1.13c-.29.27-.71.5-.86.84a6,6,0,0,0-.7,2.21c-.08,3-.15,6.07,0,9.09.12,2.52-.89,4.62-1.93,6.75a3,3,0,0,1-1,1.14c-2,1.23-4,2.41-6.05,3.58a1.07,1.07,0,0,1-1.7-1c.36-3.91-2-7.81-.09-11.73.17-.34,0-.83,0-1.24,0-1,.2-2.26-1-2.63-.24-.07-1.4,1.49-1.46,2.34-.2,2.81-.73,5.84.07,8.42,1.38,4.47-.57,7.59-3.14,10.49-1.78,2-4.22,3.41-6.28,5.18-.92.8-1.25-.3-1.29-.49a55.68,55.68,0,0,1-1.31-7,66.14,66.14,0,0,1,0-6.9,3.07,3.07,0,0,0-1.23-2.78,19.09,19.09,0,0,0-1.26,2.72,14.89,14.89,0,0,0-.63,3.49,17.86,17.86,0,0,0,1.23,7.33c1.47,3.81.12,7-2.36,9.78a26.78,26.78,0,0,1-4.16,3.56c-1.86,1.36-3.62.85-4-1.42-.49-2.83-1.76-5.55-1.41-8.54a15.26,15.26,0,0,0,0-3.76,1.21,1.21,0,0,0-2.4-.1,6.61,6.61,0,0,0,0,2.8c.83,3.58.77,7.28,1.81,10.85,1.19,4.13.16,7.24-2.94,10.47-1,1-2,2.08-3.1,3.1-1.7,1.66-3.18,1.46-3.92-.7-1.15-3.34-2.42-6.65-2.57-10.25a19.71,19.71,0,0,0-.61-3.19,8.18,8.18,0,0,0-.39-1c-.5.32-1.41.62-1.42,1a25.36,25.36,0,0,0,.22,5.85c.58,2.75,1.58,5.4,2.38,8.11,1.14,3.87.28,7.45-1.73,10.81a26.94,26.94,0,0,1-2.68,3.9c-1.54,1.76-3,1.49-4.55-.35-2.59-3.15-3.32-7-4.4-10.74-.1-.36-.51-.64-.77-1-.27.41-.77.83-.76,1.23a23.58,23.58,0,0,0,3.56,12.31c2.33,3.62,1.48,7-.15,10.41a30.12,30.12,0,0,1-2.5,4c-2,2.87-4.9,2.89-6.85-.1-1.22-1.86-2.12-3.92-3.17-5.89a16.16,16.16,0,0,0-1.16-2c-.2-.26-.69-.3-1.05-.45a3.65,3.65,0,0,0-.29.82,8.82,8.82,0,0,0,2.59,7.06c4.32,4.69,4.4,10.12,3,15.79a6.9,6.9,0,0,1-3.12,4.32c-1.92,1.21-4.11,1.35-5.74-.25-1.81-1.77-4-3.25-4.93-5.79-.09-.27-.53-.41-.8-.62-.14.34-.42.69-.4,1a7.23,7.23,0,0,0,2.26,4.7c1.58,1.67,3.26,3.24,4.86,4.89,2,2,2,3,.85,5.58-.86,1.84-1.58,3.74-2.34,5.62-.44,1.07-.74,2.22-1.28,3.23-1.36,2.53-2.2,2.76-5,2-2.35-.66-4.66-1.2-5.69-3.87-.15-.39-1.38-.37-2.11-.54.08.29.07.67.26.86,2.18,2.24,4.13,4.81,6.65,6.58,3.33,2.34,4.18,3.75,2.49,7.57a32.27,32.27,0,0,0-2.9,8.54c-.23,1.59-2.8,2.55-4.5,2.36a22.69,22.69,0,0,1-6.61-2.26,5,5,0,0,0-1.29-.19c.1.36.1.81.32,1.06,2.15,2.44,4.77,4.4,8,4.87,2,.29,2.18,1.27,2.3,2.74.24,2.78-.72,5.25-1.85,7.7-.81,1.76-1.47,3.58-2.24,5.35-1.34,3.12-3.23,3.93-6.6,2.79-1.37-.46-2.71-1-4.08-1.51a.92.92,0,0,0-.81.23.84.84,0,0,0,0,.81,8.93,8.93,0,0,0,4.83,2.71c1.72.39,3.42.86,5.13,1.24,1.36.29,2,.34,1.32,2.3-1,2.66-1,5.67-1.39,8.53a12.43,12.43,0,0,1-3.65,7.6,5.19,5.19,0,0,1-5.77,1.33c-.09,0-.16-.21-.22-.2a9.33,9.33,0,0,0-2.88.36c-.46.21,1.14,1.84,2.52,2,2.71.39,5.42.7,8-.59.3-.15.78.07,1.18.12a4.38,4.38,0,0,0-.44.93,16.78,16.78,0,0,0-.61,3.19c-.09,2.5,0,5-.06,7.53a20,20,0,0,1-.69,5.36,4.88,4.88,0,0,1-2.42,2.8c-.95.37-2.27,1.66-3.55.16a2.33,2.33,0,0,0-1.64-.48,4.72,4.72,0,0,0-1.52.57,4.32,4.32,0,0,1,.89.67c1.46,1.81,3.83,1.28,5.68,2.25,2.47,1.3,2.64,1,2.65,3.65,0,3.55-.07,7.11,0,10.66a7.72,7.72,0,0,1-1.91,4.87c-1.11,1.51-2.83,1.76-4.64,1.65a6,6,0,0,0-1.64.4,6.89,6.89,0,0,0,1.38,1.23c1.42.68,2.83,1.45,4.49.4a3.39,3.39,0,0,1,2.11-.13,1.26,1.26,0,0,1,.77.91,25.15,25.15,0,0,1,0,3.13,29.27,29.27,0,0,0,1.22,8.91c.77,2.6-1.22,6.86-3.57,7.82a22.07,22.07,0,0,1-3.22.55,4.48,4.48,0,0,0-1.23.82c.42.35.86,1,1.26,1,1.79-.12,3.8,0,5.28-.8s1.48.14,1.77.83a21.11,21.11,0,0,1,.7,2.54c1.21,4.3,2.09,8.68,1.51,13.15a6.62,6.62,0,0,1-4.13,5.7c-.35.14-.56.59-.84.9a3.37,3.37,0,0,0,1.11.31,6,6,0,0,0,4.48-2.08c.2-.24.7-.25,1-.36a2.46,2.46,0,0,1,.25.83c-.21,3.47,1.17,6.58,2.2,9.77,1.16,3.61,1.28,5,.29,8.12a15.73,15.73,0,0,1-1.47,2.52,5.28,5.28,0,0,0-.3,1.07l1.16.23a.54.54,0,0,0,.31,0c.9-.43,1.78-1.82,2.74-.89.64.63.44,2.06.75,3.1,1,3.34,1.94,6.72,3.19,10a3.34,3.34,0,0,1,.17,3.06,8.61,8.61,0,0,0-.24,3c0,1.08.17,1.71,1.35.78.69-.54,1-.31,1.18.58a35.48,35.48,0,0,0,3.91,11.55c.82,1.56,2.33,2.82,2.9,4.44a34.54,34.54,0,0,0,5.71,9.88c1.31,1.63,2.37,3.5,3.81,5,4.78,4.92,9.57,9.83,15.38,13.58a7.68,7.68,0,0,1,1.12,1.09q13.06,12.76,26.15,25.51c1.76,1.7,3.77,3.16,5.48,4.91,5.23,5.33,10.51,10.63,15.5,16.18,3.49,3.88,6.64,8.07,9.74,12.27,4.77,6.46,9.37,13,14.06,19.58.64.89,1.31,1.76,2,2.63,2.29,2.93,5.29,2.94,8.54,2.12,1-.24,2.21-.57,3-.18,1.71.83,3.42.45,5.12.54,5,.24,10.09.25,15.11.69,4,.36,8,1.41,12.09,1.76a85.33,85.33,0,0,1,9.83,1.32c4.91,1,9.85,1.76,14.74,3,4.27,1,8.57,2,12.77,3.34,7,2.18,14.19,4.13,21,7a178.67,178.67,0,0,1,20.82,10.38c4.48,2.64,8.91,5.31,13.2,8.26a115.8,115.8,0,0,1,12.87,9.8c2.51,2.29,5.08,4.52,7.49,6.89a123.45,123.45,0,0,1,17.56,22.23,111.44,111.44,0,0,1,10.22,19.92c1.4,3.7,3.23,7.24,4.58,11,1.16,3.19,1.92,6.53,2.81,9.82.82,3,1.67,6,2.31,9.08s.86,5.9,1.5,8.8c.88,4,.44,8.18,1.82,12.11a6.9,6.9,0,0,1,0,2.18c0,7.74.1,15.48-.06,23.22,0,2.66-.82,5.29-1.18,7.95-.28,2-.38,4-.66,6a30.87,30.87,0,0,1-1,5.53c-.58,1.76.26,3.55-.71,5.36-.75,1.4-.49,3.33-.74,5a75.5,75.5,0,0,1-1.3,7.94c-1,3.75-2.34,7.4-3.38,11.14-1.8,6.45-4.38,12.62-6.66,18.9-1.31,3.62-3.22,7-4.65,10.62-2.64,6.65-6,13-8.53,19.68-1.48,4-3.65,7.7-5.21,11.65q-3.54,8.89-6.63,18c-1.81,5.33-3.41,10.74-4.9,16.16-.71,2.57-.86,5.28-1.43,7.89-1.37,6.37-1.38,12.81-1.21,19.26s2,12.57,4.19,18.64c3.19,9,9.37,15.74,16.31,21.75,6.63,5.73,14.55,9.41,23,11.93,3.76,1.13,7.63,1.84,11.48,2.65a67,67,0,0,0,13,1.16c1.27,0,2.55.59,3.81.56,4-.11,8.1.12,12-.7,6.52-1.38,13.19-1.84,19.6-4.11,4.93-1.75,9.84-3.49,14.69-5.46q9.42-3.84,18.44-8.51c7-3.64,14-7.19,20.58-11.7,4.92-3.4,10.18-6.3,15.1-9.69,4-2.72,7.64-5.83,11.45-8.76,3.65-2.81,7.33-5.57,10.92-8.45,2-1.6,3.89-3.33,5.74-5.09q9.45-9.06,18.82-18.19c2.7-2.63,5.45-5.22,8-8,4-4.46,7.87-9.06,11.78-13.62,2.45-2.85,5-5.63,7.31-8.59,5.36-6.83,11-13.44,15.81-20.73,3.93-6,8.41-11.54,12.34-17.5,4.36-6.62,8.39-13.45,12.51-20.23.86-1.41,1.48-3,2.37-4.46a5.8,5.8,0,0,1,0,2.35c-.31.74-.39,1.35-.64,1.88-1.39,3-2.94,5.9-4.19,8.93-2.33,5.64-5.28,11-7.68,16.59-2.12,5-5.22,9.55-7.86,14.32-2,3.66-3.74,7.51-6,11-4.15,6.23-8,12.67-12.24,18.82-5.53,7.92-10.94,15.91-17.19,23.3-4.7,5.54-9.1,11.33-13.82,16.84-3.22,3.77-6.67,7.35-10.19,10.84-4.63,4.61-9.4,9.07-14.15,13.55-2,1.9-4,3.79-6.18,5.54q-6.18,5.09-12.49,10c-4.49,3.52-8.94,7.09-13.58,10.4-4,2.85-8.16,5.49-12.37,8q-8.41,5-17,9.65a182.09,182.09,0,0,1-21.53,10.14c-3.62,1.37-7.14,3-10.77,4.29-5.57,2-11.16,3.92-16.81,5.63a63.67,63.67,0,0,1-10.88,2.47c-3.39.4-6.65,1.44-10.13,1.52-1.5,0-3.18.28-4.77.46a40.7,40.7,0,0,1-4.76.59c-9.77-.07-19.58.55-29.29-1.21-4.11-.74-8.35-.93-12.35-2-8.12-2.23-16.17-4.73-23.72-8.63-7.92-4.09-15.33-8.88-21.58-15.28-2.69-2.76-5.06-5.84-7.57-8.77-4.9-5.73-7.95-12.52-10.75-19.39a86.67,86.67,0,0,1-4.81-15,85,85,0,0,1-2.07-12.29c-.32-5.32,0-10.67-.11-16s1.1-10.4,2-15.52a128.48,128.48,0,0,1,4.27-16.72c2.73-8.48,5.81-16.82,9.33-25,2.26-5.24,4.63-10.43,6.86-15.68,2.86-6.76,5.65-13.55,8.44-20.35,1.46-3.58,3-7.13,4.23-10.79q3.32-9.78,6.28-19.68c1.23-4.11,2.3-8.29,3.12-12.5s1.14-8.71,2-13a55.32,55.32,0,0,0,1.21-11.1c0-.52-.21-1.18,0-1.55,1.12-1.73.38-3.61.59-5.41s.57-3.8.61-5.7a144.51,144.51,0,0,0-1.13-18c-.43-3.91-.56-7.85-1.37-11.71a122.53,122.53,0,0,0-2.77-12.35,119.5,119.5,0,0,0-8.94-21.72,101,101,0,0,0-13.87-19.33,111.7,111.7,0,0,0-14.69-12.94,109.82,109.82,0,0,0-13.34-8.76c-4-2.25-8.41-3.91-12.64-5.83a97.35,97.35,0,0,0-16.82-5.6c-4.27-1.07-8.53-2.17-12.83-3.11-2.61-.57-5.29-.85-7.94-1.29-2-.34-4.08-.8-6.14-1.07a20.8,20.8,0,0,0-4.32-.12,1.64,1.64,0,0,0-1.07,1.22c0,.41.64,1,1.12,1.18a22.35,22.35,0,0,0,3.81.67c6.79.65,13.29,2.78,19.77,4.6a148.72,148.72,0,0,1,26.14,10.31c4.43,2.22,8.74,4.72,13,7.32a64.71,64.71,0,0,1,8.71,6.23c4.21,3.66,8.22,7.57,12.19,11.51a81.77,81.77,0,0,1,8.75,11.09,90.58,90.58,0,0,1,11.65,23.11c1.48,4.32,3.15,8.65,3.87,13.11s1.85,8.56,2.15,13,1.11,8.64,1.07,13c-.05,4.93.1,9.85-.41,14.82-.58,5.51-1.1,11-1.93,16.48-.6,3.93-1.23,7.85-2,11.75-.6,3-1.18,6-1.9,8.95-.93,3.78-2,7.54-3,11.3-.85,3.09-1.68,6.2-2.63,9.26-1.67,5.37-3.35,10.74-5.16,16.07-.84,2.46-2.13,4.77-3,7.24a160.42,160.42,0,0,1-6.8,16.32c-2,4.4-4.25,8.71-6.42,13-.51,1-1.17,2-1.76,2.94a36.15,36.15,0,0,1,.91-3.62c2.14-5.81,4.36-11.58,6.51-17.38a240.77,240.77,0,0,0,7.38-23.61c.85-3.32,2.11-6.6,2.08-10.15a19.62,19.62,0,0,1,.67-4.41c.86-3.9,2.08-7.72,1.82-11.81a32.19,32.19,0,0,1,0-5.64c.41-3.7,1.17-7.27,5.39-8.64a3.89,3.89,0,0,0,1.5-.9,3.54,3.54,0,0,0,.52-1.27c-.49-.07-1.06-.35-1.46-.19-1,.4-1.85,1.09-2.83,1.49-1.44.57-2.2.17-2.5-1.29a10.67,10.67,0,0,1,0-2.19,62.07,62.07,0,0,0-.07-7.84,5.94,5.94,0,0,1,2-5.59c1.49-1.38,3.08-2.66,4.59-4,.23-.21.23-.69.33-1-.36,0-.78-.17-1.06,0-.69.37-1.31.88-2,1.31-1.3.84-2.81,1.55-4.21.79s-1.51-2.23-1.51-3.73a13.82,13.82,0,0,0-.54-3.22c-1.33-5.21.08-8.6,4.69-11.77,2.15-1.48,4.13-3.21,6.14-4.88.24-.2.24-.69.36-1.05-.39-.09-.85-.36-1.13-.23a14.21,14.21,0,0,0-2.52,1.5c-2,1.51-3.86,3.24-6,4.61-2.38,1.56-4.68.82-5.42-1.94s-1.58-5.42-2.33-8.13a2.89,2.89,0,0,1,.12-1.07c.37-2.89,2.59-4.28,4.72-5.65a45.18,45.18,0,0,0,9.31-7.79,4.58,4.58,0,0,0,.57-1.49c-.56,0-1.29-.11-1.67.18q-5.53,4.13-11,8.41c-2.46,2-4.77,1.84-6.44-.74s-3-5.46-4.64-8.1c-.81-1.3-.75-2.2.41-3.11,2.37-1.86,4.65-3.85,7.13-5.55,4.24-2.91,8.14-6.14,10.86-10.58a3.74,3.74,0,0,0,.23-1.28c-.35.09-.8.07-1,.28-3.61,2.93-7.09,6-10.81,8.81a67.86,67.86,0,0,1-8,4.89,2.79,2.79,0,0,1-3.83-.64c-1.41-1.73-2.89-3.4-4.32-5.12-.31-.38-.45-.91-.79-1.23-.93-.86-1.93-1.64-2.9-2.45,1-.82,2-1.64,3.08-2.44.22-.16.57-.16.8-.32,6.76-4.75,13.76-9.21,18.69-16.08a4.75,4.75,0,0,0,.46-1.28c-.57,0-1.25-.17-1.67.09a9.78,9.78,0,0,0-1.8,1.73,51.06,51.06,0,0,1-9.47,8.2c-4.39,2.74-8.87,5.23-14.31,4.84-3.37-.24-6.14-1.5-7.74-4.67-1.42-2.8-1.34-3,1.29-4.75a69.39,69.39,0,0,0,14.11-12.08,59.55,59.55,0,0,0,4.9-7.36c.2-.3,0-.84,0-1.26-.35.15-.81.21-1,.47-1.44,1.58-2.76,3.28-4.25,4.81a65.34,65.34,0,0,1-11.88,10,94,94,0,0,1-9,4.66,2.19,2.19,0,0,1-1.67-.15c-2.54-1.21-5.1-2.39-7.54-3.77-4-2.29-4.06-2-.8-5.43s6.91-6.94,10.37-10.41a29.54,29.54,0,0,0,7.54-11.94,10.86,10.86,0,0,0,.23-1.29c-.43.16-1,.19-1.27.5a71.26,71.26,0,0,0-4.44,5.69,47.26,47.26,0,0,1-10.61,11.25,24.32,24.32,0,0,1-19,5c-2.74-.38-3.41-2-1.71-4.39,1.53-2.11,3.19-4.14,4.87-6.14a39.6,39.6,0,0,0,8.38-16c.23-.92.11-2.77-.11-2.81-1.34-.26-1.12,1.17-1.57,1.92-.24.41-.41.87-.63,1.3-3.54,7-7.67,13.68-14.39,18.09-2.17,1.42-2.52,3-2.6,5.22s.88,4.06,1.23,6.09c1,6,1.92,12,2.52,18.09.49,4.91.48,9.86.69,14.8a8.69,8.69,0,0,0,0,1.25,71,71,0,0,1,1.22,14.54c-.21,6.4.58,12.81-.54,19.21-.52,3-.33,6.1-.54,9.15-.38,5.69-.68,11.38-1.4,17-.27,2.21-.33,4.44-.65,6.64-.56,3.83-1.25,7.64-1.86,11.46-.44,2.75-.42,5.67-1.36,8.23-1.54,4.2-1.67,8.65-3,12.88-2,6.51-3.5,13.18-5.47,19.71-1.54,5.09-3.56,10-5.24,15.08a168.45,168.45,0,0,1-8.71,20.86c-3,6-5.93,12-9.12,17.87-2.38,4.38-5.13,8.56-7.73,12.81a150.28,150.28,0,0,1-12.41,17.45c-3.67,4.43-6.95,9.23-10.95,13.32-8.29,8.47-16.53,17-25.91,24.36-5.84,4.59-11.63,9.27-17.68,13.55a238.79,238.79,0,0,1-25.7,15.9c-6,3.18-12,6.3-18.15,9.23-5.57,2.67-11.23,5.2-17,7.53s-11.55,4.44-17.41,6.45c-5.32,1.82-10.73,3.4-16.11,5-4.17,1.28-8.33,2.65-12.57,3.72-3.34.85-6.84,1.1-10.17,2a51.92,51.92,0,0,1-9.87,1.94c-.08,0-.15.33-.22.51-24.58,0-49.16,0-73.9-.16-4-.81-8-1.15-11.79-2.31s-7.81-1.79-11.64-3a110.85,110.85,0,0,1-21.88-9.23,95.77,95.77,0,0,1-18.22-13.41c-3.22-3-5.7-6.78-8.49-10.23-5.34-6.61-8.83-14.17-11.64-22.13a118.42,118.42,0,0,1-4.46-16.36c-1-4.87-1.72-9.75-2.43-14.65,0-.29-.39-.54-.6-.81,0-11.4,0-22.8.16-34.36.68-3.7,1.22-7.24,1.71-10.79.26-1.79.32-3.61.68-5.38.51-2.58,1.25-5.12,1.83-7.7,1-4.21,1.69-8.48,2.84-12.64,1.62-5.89,3.39-11.75,5.37-17.54,2.25-6.58,4.74-13.09,7.26-19.58,1.32-3.42,2.92-6.73,4.41-10.09,2.58-5.84,5-11.73,7.79-17.48,2.09-4.38,4.8-8.47,6.79-12.88a199.63,199.63,0,0,1,22.69-35.78c2-2.42,4-4.85,6-7.25,3.47-4.11,6.72-8.43,10.47-12.26,8.85-9,17.62-18.16,27.38-26.25,3.61-3,7-6.28,10.61-9.28,5.11-4.22,10.35-8.3,15.54-12.44,2.36-1.88,4.69-3.78,7.1-5.6,4.53-3.41,9.24-6.61,13.63-10.2a144.68,144.68,0,0,1,12.84-9.23c6.82-4.42,13.74-8.68,20.7-12.89,5.16-3.13,10.32-6.32,15.7-9,7.77-3.93,15.38-8.19,23.51-11.41,5.57-2.21,11-4.75,16.53-7.06,6.89-2.87,14-5.15,21.09-7.44,3.18-1,6.63-1.52,9.49-3.6,1.8-1.31,2-1.13.43-2.69-6.36-6.56-13.09-12.74-18.5-20.23-3.49-4.84-7.17-9.55-10.58-14.46a256.12,256.12,0,0,1-17.55-28.2c-3-5.86-6.34-11.58-9.23-17.51q-5.34-10.95-10.16-22.15c-2.33-5.41-4.32-11-6.3-16.52A253.42,253.42,0,0,1,869,976c-.89-3.59-2-7.14-2.91-10.71-1.06-4-2.17-7.9-3.12-11.89-.75-3.16-1.32-6.37-1.89-9.57-.51-2.83-.9-5.69-1.39-8.53-.56-3.21-1.23-6.4-1.74-9.62-.33-2.09-.35-4.23-.67-6.32-.56-3.73-1.57-7.42-1.78-11.15-.3-5.29-.79-10.54-1.27-15.8-.5-5.43-.6-10.91-.67-16.37-.1-8.47,0-16.94,0-25.41,0-.73-.27-1.63.05-2.17,1.07-1.76.36-3.62.58-5.42s.49-3.79.62-5.7c.25-3.88.43-7.77.64-11.66a2.13,2.13,0,0,1,0-.62c1.67-5.18,1.32-10.66,2.46-15.92.65-3,.75-6.15,1.33-9.19.69-3.66,1.65-7.26,2.47-10.89.78-3.44,1.51-6.9,2.32-10.34.65-2.75,1.33-5.51,2.09-8.23,1.48-5.34,2.65-10.82,4.66-16,2.29-5.85,4.14-11.86,6.49-17.7,2.73-6.83,5.7-13.54,8.76-20.22,1.93-4.23,4.21-8.3,6.45-12.38,2.12-3.85,4.34-7.63,6.61-11.39A102.51,102.51,0,0,1,909,679.07c3.75-4.35,7-9.12,11-13.31a196.68,196.68,0,0,1,21.52-19.87c5-4,10-7.91,15.35-11.47,3.26-2.18,6.51-4.35,9.93-6.31,3-1.74,6-3.6,9.14-5.22,4.57-2.38,9-5,13.67-7.16,5.09-2.34,10.31-4.42,15.59-6.28q8.93-3.15,18.06-5.65c5.77-1.58,11.52-3.28,17.55-3.91,3.72-.39,7.33-1.74,11.15-1.82,2.63-.06,5.25-.44,7.86-.71.09,0,.15-.33.23-.51h33.73M877.37,1247.33c-.75,1.09-1.35,1-1.89-.2-1.09-2.46-2.21-4.86-4.33-6.69-5-4.29-10.86-6.89-17-9.08-.51-.19-1.19.09-1.79.15a9.17,9.17,0,0,0,1.49,1.09c1.39.67,2.9,1.12,4.22,1.9a15.73,15.73,0,0,1,4.57,3.28,24.41,24.41,0,0,1,5.2,11c.39,2.24.57,4.84-1.18,6.66-2.56,2.67-5.36,5.13-8.15,7.56a2.24,2.24,0,0,1-3.65-.5,11.13,11.13,0,0,0-5.72-5.06c-2.66-1.15-5.24-2.53-8-3.44a70.48,70.48,0,0,0-8.31-1.9c-.4-.09-.88.24-1.33.38a9.17,9.17,0,0,0,1,1.44c.15.16.63-.05.91,0a25.28,25.28,0,0,1,8.39,4.1,20.62,20.62,0,0,1,7,9.69c.84,2.48.46,3.66-1.54,5.33-.56.47-1,1-1.56,1.54-1.85,1.85-3.73,3.67-5.53,5.56-1,1.07-1.78.94-2.85,0a13.39,13.39,0,0,0-3.91-2.65c-5.79-2.14-11.73-3.75-18-3.48a4.47,4.47,0,0,0-1.43.62,5.47,5.47,0,0,0,1.3.95c3.14,1.05,6.27,2,9,4,2.94,2.1,6,3.91,7.49,7.49a1.9,1.9,0,0,1-.3,2.41,37.91,37.91,0,0,0-4,4.62c-2.68,3.92-7.13,6.12-12.76,3.79-1.78-.75-3.81-1-5.44-2a10.54,10.54,0,0,0-6.11-1.17c-1.54,0-4.09,2.09-3.6,2.53.78.69,2,.84,3.11,1.21.09,0,.21,0,.31,0a37.69,37.69,0,0,1,10.06,4.48,4.71,4.71,0,0,1,1.48,5.11c-1.65,3.85-3.83,7.23-7.76,9.29-2.29,1.19-4.56,2.21-7.09,1.77a53.06,53.06,0,0,1-7.6-2.07c-2.16-.71-4.15-.72-5.94.78a6,6,0,0,0-1,1.71c.59.08,1.18.16,1.77.26a34.24,34.24,0,0,1,3.5.65c3.21.93,6.4,1.91,8.84,4.4a2,2,0,0,1,.53,2.62,25.39,25.39,0,0,1-8.91,11.29,2.15,2.15,0,0,1-1.49.06,92.24,92.24,0,0,0-14.21-2,17.48,17.48,0,0,0-6.91.67c-1.76.59-4.43-.1-5.18,2.65,0,.17-.86.37-1,.25-.88-1-1.42-.33-2,.3.58.15,1.15.34,1.74.44a21.56,21.56,0,0,0,4.82-.72c2.89-1.41,3.48-1.63,6.14-.46a18.43,18.43,0,0,0,4.52,1.26,20.59,20.59,0,0,1,5.17,1.84c2.53,1.23,4.17,4.18,3.12,5.93a28.31,28.31,0,0,1-5.12,6.93,17.81,17.81,0,0,1-12.77,4.75c-3.35-.12-6.73-.44-10.1.51-3.77,1.06-7.52,2.07-10.71,4.46a4.22,4.22,0,0,0-.7,1c.38.08.81.33,1.14.23.92-.27,2-1.13,2.65-.9s.68,1.69,1.22,2.44c.36.49,1.27,1,1.71.91s1.38-1.11,1.31-1.6c-.27-1.94,1-3,2.22-3.77a6.47,6.47,0,0,1,3.72-.76c3.6.27,7.2.71,10.77,1.27.78.12,1.47,1,2.18,1.5s.86.91.22,1.76a27.18,27.18,0,0,0-2.09,3.83,63.36,63.36,0,0,1-3.57,6.66c-.89,1.28-2.31,2.73-3.71,3-3,.56-5.71,1.91-9,1.51-3.95-.47-7.81.94-11.33,2.76a50.16,50.16,0,0,0-5.88,4c-.24.17-.24.69-.35,1,.3-.12.59-.27.89-.37,2.58-.84,5.17-1.65,7.74-2.52.71-.24,1.26-.8,1.93.22,1,1.49,2.3,1.36,3.69.43.64-.42,1.58-.52,2-1,2.23-2.54,4.81-1,7.27-.71.23,0,.63.76.55,1.06-.45,1.68-.4,3.49-1.55,5a24.22,24.22,0,0,0-2.39,4c-1.63,3.33-3.74,5.76-7.95,4.86a14.53,14.53,0,0,0-1.87,0,5.21,5.21,0,0,0-3.89,1.27c-2.32,1.87-4.8,3.55-7.17,5.36-2.09,1.6-3.07,1.14-4.38-.91a24.59,24.59,0,0,1-3.14-9.37c-.46-2.76.24-5.51,0-8.27,0-.24.3-.49.41-.76,1.9-4.65,3.83-9.3,5.65-14,2.95-7.58,6.41-14.92,9.68-22.35,2.34-5.31,5.45-10.28,8.06-15.49a224.9,224.9,0,0,1,13.84-23.44c4.35-6.57,8.47-13.29,13-19.74,5.6-7.94,11.63-15.5,17.7-23,4.11-5.11,8.68-9.89,13.28-14.58,5.46-5.55,11.17-10.85,16.8-16.22,2.61-2.49,5.28-4.91,8-7.33,1.35-1.22,2.74-2.42,4.18-3.54q5.21-4.05,10.49-8c4.39-3.28,8.69-6.69,13.24-9.73,8.29-5.56,16.53-11.22,25.43-15.83,5.61-2.91,10.92-6.42,16.57-9.25,6.14-3.07,12.5-5.68,18.77-8.46,4.6-2,9.14-4.23,13.84-6,6.79-2.54,13.71-4.76,20.59-7.1,4.88-1.66,9.66-3.68,14.86-4.31a7.52,7.52,0,0,0,3-1.72c.26-.18.38-1.1.22-1.21-.79-.55-1.81-1.48-2.52-1.31-4.93,1.16-9.88,2.33-14.67,4-7.24,2.44-14.39,5.15-21.51,7.92-6.93,2.7-13.89,5.36-20.63,8.5a330,330,0,0,0-33.39,17.85c-6.11,3.75-12.29,7.44-18.06,11.67-7.42,5.44-15.07,10.6-22,16.75-4.68,4.17-9.69,8-14.44,12-3.05,2.62-6,5.35-8.84,8.21-4.67,4.71-9.23,9.53-13.77,14.37q-7.05,7.55-14,15.23c-2.66,3-5.27,5.94-7.76,9-2.68,3.35-5.23,6.81-7.78,10.27-2.76,3.75-5.63,7.45-8.13,11.38-5.46,8.59-10.5,17.45-16.12,25.93a269.88,269.88,0,0,0-14.06,24.62,138.1,138.1,0,0,0-8.46,18.78,73,73,0,0,0-3.53,12.68c-.65,4.13-1.95,8.18-1.75,12.41.08,1.51,1.05,3,1.13,4.5a28.28,28.28,0,0,1-.55,5.07,1.71,1.71,0,0,0,0,.32,36.62,36.62,0,0,1,.59,4.76,42.89,42.89,0,0,0,1.95,11.76,29.08,29.08,0,0,0,8.05,13.28,47.31,47.31,0,0,0,5.08,4.42c3.56,2.57,7,5.32,11.33,6.72,2.8.91,5.61,2,6.87,5.2a9.81,9.81,0,0,0,2,2.63c6,6.81,14,8.93,22.65,9.68,2.11.19,4.31-.45,6.33.63,2-1.31,4.22-.39,6.33-.6,1.35-.13,2.81.29,4.06-.08,3.55-1.06,7.24-.36,10.81-1.14,2.25-.5,4.66-.29,6.93-.72,4.82-.92,9.61-2,14.4-3.11a173.1,173.1,0,0,0,17.74-4.89c3.3-1.12,6.68-2,9.93-3.3,4.86-1.89,9.7-3.87,14.43-6.06,5.28-2.43,10.48-5,15.62-7.74,3.79-2,7.53-4.12,11.13-6.45,5.72-3.72,11.38-7.53,16.87-11.62A194.91,194.91,0,0,0,936,1407a162.29,162.29,0,0,0,17.59-18.72c3.21-4.13,6.8-8,9.68-12.33,4.27-6.42,8.33-13,12-19.82,3.88-7.24,7.45-14.68,10.65-22.25,2.82-6.67,5-13.61,7.37-20.47,1.48-4.32,3.14-8.65,3.89-13.11.79-4.69,2.79-9.09,2.76-14,0-2.77,1.31-5.52,1.72-8.32.58-4,1-8,1.27-12s.6-8.19.61-12.29c0-3.78-.36-7.57-.59-11.35-.19-3.36-.37-6.73-.64-10.09a12.7,12.7,0,0,0-.73-4.4c-1.3-2.68-1.28-5.61-1.64-8.39a112.71,112.71,0,0,0-2-12.68,47.26,47.26,0,0,0-2.54-8c-1.08-2.45-2.42-4.94-5.75-5.12-.81,0-1-.76-.5-1.7a29.53,29.53,0,0,0,1.7-4,2.64,2.64,0,0,0-1.11-3.44c-1.34-.87-1.68.59-2.13,1.12-1.47,1.74-2.66,3.72-4.08,5.5-2.08,2.6-4,5.8-7.54,6.17-2.67.29-4.86,1.54-7.31,2.16-.56.14-1.11.39-1.67.5-1.32.25-1.95-.32-1.65-1.65.36-1.62,1-3.19,1.21-4.82.34-2.19.1-4.53.74-6.61,1-3.28-.29-6.22-.73-9.29a4,4,0,0,0-.75-1.87,18.72,18.72,0,0,0-2.18-2c.14.82.29,1.65.44,2.48,0,.1,0,.21,0,.32.32,6.69-.11,13.17-3.72,19.17a28.62,28.62,0,0,1-15.85,12.79,9.63,9.63,0,0,1-2.94,0c.18-.73.41-1.47.53-2.21a7.49,7.49,0,0,0,0-1.57c-.17-3.26.08-6.5-.52-9.8-.8-4.3-3.2-7.54-5.66-10.85-.2-.26-.7-.29-1.05-.42,0,.43,0,.86.08,1.29a1.8,1.8,0,0,0,.26.83c3.43,4.44,3,9.73,2.33,14.63-.7,5.38-3.89,10-8,13.55a32.16,32.16,0,0,1-9.23,5.66c-1,.41-1.36.71-1.46-.67a37.91,37.91,0,0,0-2.53-11.49,19.51,19.51,0,0,0-8.18-9.7c-.44-.26-1.21.06-1.82.12l1.15,1a8.47,8.47,0,0,1,.67.67,18.88,18.88,0,0,1,4.35,15.7,23.5,23.5,0,0,1-9,14.72c-2,1.52-4.42,2.43-6.66,3.59a.58.58,0,0,1-.52-.23,4.89,4.89,0,0,1-.61-1.92c.17-2.41-.74-4.4-1.88-6.46a25.83,25.83,0,0,0-13.21-11.5,5.41,5.41,0,0,0-1.74-.32c-.25,0-.51.2-.76.31l.45.45c.37.36.68.94,1.12,1.06,3.12.85,4.78,3.39,6.28,5.82,2.42,3.92,4,8.27,3.37,13-.35,2.81-.93,5.54-4,7.12-2,1-3.55,3-5.34,4.55-.68.58-1.45,1-2.49,1.88m173.84,124.89c1-2.82,2.14-5.63,3.13-8.46,1.5-4.3,3.07-8.58,4.36-12.94,1.42-4.77,2.54-9.62,3.81-14.43,1-3.9,1.71-7.88,2.62-11.8s1.59-7.9,2.35-11.86c.66-3.44.57-7,1.38-10.43,1-4.21.87-8.53,1.73-12.75.53-2.56.27-5.24.57-7.89.53-4.79.43-9.65.64-14.48a187.83,187.83,0,0,0-.5-26.41c-.27-2.83-.2-5.68-.47-8.54-.47-5-.69-10.12-1.4-15.15-.33-2.3-.3-4.66-.68-6.95-.74-4.59-1.66-9.14-2.47-13.71-.66-3.71-1-7.5-1.94-11.13-1.92-7.44-4-14.85-6.28-22.19a89.37,89.37,0,0,0-5-13c-2.72-5.48-5.94-10.73-9-16-2.92-5.08-5.72-10.23-8.91-15.13-4.48-6.87-9.22-13.57-13.95-20.27-3.91-5.52-7.86-11-12-16.36-3.23-4.16-6.76-8.09-10.17-12.11-3.62-4.26-7.09-8.65-10.91-12.72-6.75-7.21-13.69-14.24-20.61-21.29-5.57-5.67-11.28-11.2-16.82-16.9-1.81-1.86-3.27-4.07-4.91-6.1-1.09-1.34-2.2-2.65-3.35-3.94-.12-.13-.54,0-.83,0,.1.22.2.44.29.66,1.7,4,4.71,7,7.59,10,11.64,12.08,23.47,24,35.23,36,.29.3.61.57.88.89q5.9,6.81,11.77,13.64c2.58,3,5.27,5.93,7.74,9,3.35,4.22,6.58,8.54,9.77,12.89,3,4.07,5.92,8.19,8.74,12.38,4.18,6.2,8.34,12.41,12.31,18.75,2.64,4.2,4.91,8.63,7.36,12.94,2,3.47,4.09,6.87,6,10.4a69.06,69.06,0,0,1,3.84,8.45c1.89,5.18,3.67,10.42,5.25,15.71s3,10.51,4.16,15.84c1.25,5.59,2.23,11.24,3.15,16.89.78,4.74,1.34,9.51,1.9,14.28.5,4.21,1,8.43,1.24,12.66.25,3.46.5,7,.51,10.4,0,11.42.68,22.84-.37,34.26-.49,5.26-.58,10.55-1.32,15.8-.62,4.4-.86,8.85-1.31,13.27-.15,1.49-.36,3-.64,4.44-.8,4.16-1.62,8.32-2.5,12.46-.74,3.55-1.56,7.09-2.38,10.62-.64,2.77-1.25,5.54-2,8.27-1.49,5.33-3,10.68-4.67,16-1.16,3.58-3,6.95-4,10.55-2.51,8.5-6.5,16.37-10.23,24.31s-8.25,15.22-12.56,22.73c-1.81,3.15-3.88,6.16-6,9.13s-4.44,5.44-6.38,8.35A130.8,130.8,0,0,1,1001,1448a182.77,182.77,0,0,1-20.71,19.6c-2.63,2.06-5,4.45-7.72,6.38-4.25,3-8.77,5.67-13,8.73-6.36,4.6-13.33,8.17-20.2,11.86-6.47,3.48-13.35,6.16-19.93,9.44a220.91,220.91,0,0,1-22.32,9.74c-3.63,1.34-7.11,3.08-10.76,4.31-4.88,1.65-9.84,3.05-14.8,4.42-5.65,1.55-11.3,3.1-17,4.37s-11.24,2.26-16.9,3.14c-5.15.81-10.33,1.47-15.53,1.87-5.44.43-10.91.61-16.36.63-4.2,0-8.41-.34-12.61-.59q-4.26-.24-8.52-.63a39.73,39.73,0,0,1-4.76-.63c-3.54-.77-7-1.85-10.58-2.45a82.41,82.41,0,0,1-18.66-5.72c-7.3-3.12-13.48-8-19.26-13.31a120.17,120.17,0,0,1-19.09-21.56,70.48,70.48,0,0,1-4.94-8.31c-2-4.17-3.46-8.62-5.57-12.74-2.57-5-3.77-10.42-5.06-15.78-.87-3.59-.67-7.42-1.41-11a58.25,58.25,0,0,1-1.08-11.11c-.13-10.81-.66-21.66,1.1-32.43.7-4.28.77-8.65,1.34-13,.45-3.42,1.16-6.82,1.86-10.2s1.49-6.7,2.3-10c.87-3.61,1.71-7.23,2.73-10.79,1.29-4.58,2.67-9.14,4.16-13.65,1-2.93,2.39-5.72,3.31-8.67,2.46-7.81,6.18-15,10.14-22.14,1-1.87,2.9-3.27,4.37-4.9a8.56,8.56,0,0,0,.59-.85c-.41,0-1-.26-1.21-.07a13.12,13.12,0,0,0-3.14,2.71,77.09,77.09,0,0,0-8.15,14.81c-2.2,5.48-4.38,11-6.42,16.48-1.55,4.18-3,8.39-4.26,12.67-1.63,5.72-3,11.53-4.43,17.31-.83,3.32-1.71,6.63-2.4,10-.58,2.82-1,5.68-1.36,8.54-.28,2.1-.13,4.3-.7,6.31-1.3,4.59-1.14,9.34-1.7,14a166.49,166.49,0,0,0-.71,17.61c0,2.42.39,4.84.59,7.27.22,2.84,0,5.66.48,8.55.57,3.54.93,7.16,1.34,10.75a75.86,75.86,0,0,0,2.9,13.26,96.86,96.86,0,0,0,11.61,25.3,118.59,118.59,0,0,0,13.84,17.8,131.09,131.09,0,0,0,15.14,13.38,60.17,60.17,0,0,0,19.36,10.11c4,1.19,8.08,2.27,12.15,3.31,4.88,1.26,9.84,2,14.76,2.89a93.82,93.82,0,0,0,13.9,1.21c7,.17,14,.48,21.09-.35,5.12-.6,10.33-.57,15.47-1.37,3.46-.55,7-.67,10.44-1.33,4.42-.85,8.72-2.34,13.16-3a134.14,134.14,0,0,0,18.75-4.78,279,279,0,0,0,32.7-11.93c7.25-3.22,14.39-6.7,21.51-10.19,4.87-2.39,9.69-4.92,14.44-7.54s9.17-5.21,13.64-8c5.3-3.3,10.34-7,15.35-10.74a199.79,199.79,0,0,0,16.08-13.27c7.84-7.29,15.42-14.89,21.82-23.54,3.8-5.14,7.82-10.12,11.5-15.33a233.94,233.94,0,0,0,16.42-27.71c2-3.77,3.66-7.68,5.47-11.54.45-1,.83-2,1.26-2.93,1.46-3.26,2.93-6.52,4.39-10.41m-150-540.35c-.42,3.38-1.06,6.75-1.2,10.14-.23,5.25-.31,10.5-.55,15.75a132.87,132.87,0,0,0,.33,17.94c.61,6.7.36,13.46,1.31,20.19.54,3.77.53,7.63,1.35,11.39a34.78,34.78,0,0,1,.63,3.81c.25,2.32.38,4.64.66,7a36.45,36.45,0,0,0,.8,4.37c1,3.89,2,7.76,3,11.64,1.15,4.54,2.17,9.12,3.49,13.61a171.63,171.63,0,0,0,8.71,23.68c3.6,7.73,7.88,15.15,11.91,22.68a31.27,31.27,0,0,0,2.67,3.9c.23.3.84.3,1.27.44a6.27,6.27,0,0,0-.08-1.07,3.46,3.46,0,0,0-.44-1.07c-4.8-7-7.66-15-11.11-22.69a164.07,164.07,0,0,1-6.79-19.14c-2.18-7.07-4-14.25-5.83-21.43q-1.59-6.45-2.65-13.05c-.82-5.09-2.08-10.11-2.42-15.29a50.62,50.62,0,0,0-.66-6.64,48,48,0,0,1-1.21-9.84,6.86,6.86,0,0,0,0-1.87c-1.23-4.26-1-8.7-1.06-13-.22-8.79-.83-17.62.43-26.41.44-3.13.08-6.29.5-9.48.5-3.78.77-7.6,1.31-11.4.46-3.26.66-6.57,1.33-9.82.94-4.55,1.65-9.14,2.55-13.7.77-3.85,1.56-7.7,2.52-11.51,1.1-4.33,2.26-8.67,3.63-12.92,2-6.27,4.32-12.44,6.37-18.69,2.63-8,6.33-15.59,9.85-23.22,2.07-4.49,4.76-8.69,7.11-13.06a204.28,204.28,0,0,1,12.94-20.38,178.66,178.66,0,0,1,15-18.51c4.91-5.33,10.39-10.14,15.65-15.14a38,38,0,0,1,4.18-3.54q6.92-4.86,13.93-9.55A132.73,132.73,0,0,1,1026,643a196.67,196.67,0,0,1,20.81-6.54,106.53,106.53,0,0,1,15.56-2.56c4-.48,8-.56,12-.66,4.18-.1,8.37,0,12.55,0a16.18,16.18,0,0,1,3.75,0c4.39,1.1,8.93,1,13.38,1.65,4.83.75,9.75,1.14,14.56,2.09,5.75,1.15,11.38,2.75,17,4.31a138.52,138.52,0,0,1,19.84,7.39c5.65,2.55,11.12,5.5,16.6,8.4a43.09,43.09,0,0,1,6.71,4.23c4.46,3.56,9.71,6.08,13.62,10.36a.83.83,0,0,0,.83-.07.85.85,0,0,0,.06-.84c-2.18-2.23-4.33-4.49-6.62-6.6a31.44,31.44,0,0,0-3.89-2.72c-4.34-2.88-8.62-5.88-13.07-8.58-3.4-2.06-7-3.84-10.56-5.56s-7-3.2-10.61-4.67c-3.75-1.55-7.58-2.91-11.35-4.42-6.06-2.43-12.41-3.92-18.69-5.59-3.43-.91-7-1.1-10.48-2-1.84-.49-3.72-.1-5.39-.62-5-1.59-10.17-1.56-15.25-1.69-6.69-.18-13.43-.72-20.13.46-2.28.4-4.62,0-7,.58-3.3.79-6.8.67-10.11,1.41-5.62,1.25-11.17,2.79-16.7,4.35a132.26,132.26,0,0,0-20.56,7.92,156.75,156.75,0,0,0-26.71,15.85,168.94,168.94,0,0,0-15,12.15c-4.76,4.45-9,9.4-13.59,14.09a126.08,126.08,0,0,0-13.71,17.55c-3.5,5.2-6.83,10.53-9.94,16-2.54,4.45-4.66,9.15-6.94,13.75a84.21,84.21,0,0,0-3.74,7.86c-3,8.07-6,16.15-8.64,24.34-2,6.1-3.55,12.35-5.18,18.56-.79,3-1.17,6.19-2,9.22a126.56,126.56,0,0,0-3.67,19.49,38.21,38.21,0,0,1-.67,5.38,73.55,73.55,0,0,0-1.84,14.6m288.06,595.57a9.07,9.07,0,0,1,0-2.5c.88-2.87,1.9-5.7,2.85-8.54.52-1.57,1-3.14,1.49-4.72.07-.23-.16-.55-.25-.82a2.51,2.51,0,0,0-.44.35,5.4,5.4,0,0,0-1.15,1.41c-1.3,3.53-2.59,7.08-3.78,10.67a144.76,144.76,0,0,0-3.92,14.71,61.35,61.35,0,0,0-1.74,13.37,11.53,11.53,0,0,1,0,2.2c-.52,2.9-.12,12.07.56,15.25.26,1.2-.17,2.55.14,3.72a107.87,107.87,0,0,0,3.14,10.62,57.85,57.85,0,0,0,4.6,10.31,68.17,68.17,0,0,0,16.28,18.34,61.6,61.6,0,0,0,17.76,9.4,58.12,58.12,0,0,0,14,3.36c1.77.15,3.61.25,5.4.46s3.59.56,5.39.6c5.3.11,10.54-.65,15.8-1.16a74.27,74.27,0,0,0,10.51-2c3.52-.85,7.07-1.57,10.56-2.54,3.83-1.06,7.67-2.15,11.39-3.56,4.33-1.64,8.77-3,12.93-5.14,5.74-3,11.87-5.27,17.51-8.43,6.07-3.39,11.82-7.38,17.62-11.26,2.82-1.88,5.44-4.07,8.1-6.19,2.46-1.94,4.84-4,7.26-6,3.58-3,7.42-5.66,10.71-8.92,8.79-8.72,17.36-17.66,26-26.54,1.34-1.39,2.54-2.91,3.78-4.39,3.11-3.73,6.23-7.45,9.31-11.21,1.46-1.78,2.84-3.62,4.2-5.48a3.34,3.34,0,0,0,.31-1.27,5.08,5.08,0,0,0-.88.64c-1.49,1.67-2.93,3.4-4.45,5-4.86,5.31-9.6,10.76-14.67,15.87-7.84,7.9-15.89,15.58-23.89,23.32-2.67,2.57-5.43,5-8.17,7.54-1.58,1.44-3.15,2.91-4.85,4.21-4.84,3.67-9.76,7.24-14.62,10.89a166.46,166.46,0,0,1-20.13,12.73c-5.63,3.08-11.61,5.31-17.46,7.86a95.7,95.7,0,0,1-10.59,4c-5.22,1.58-10.51,2.94-15.81,4.24-3.44.84-6.94,1.5-10.44,2a72.72,72.72,0,0,1-10.46,1.21,128.16,128.16,0,0,1-16-.7,29.24,29.24,0,0,1-5.07-.53c-4.75-1.41-9.6-2.33-14.23-4.25-7-2.91-13.52-6.47-19-11.79-2-2-3.88-4.22-5.78-6.38-3.94-4.47-6.5-9.73-8.61-15.25a70.35,70.35,0,0,1-3.26-11.54,68.45,68.45,0,0,1-1.66-10.55,97.25,97.25,0,0,1,1-19c.69-4.53,1.54-9,2.71-13.81m-135.56-139.32c-.21,1.48-.37,3-.64,4.45-.65,3.59-1.28,7.19-2,10.76-.43,2-1.22,3.9-1.67,5.88a40,40,0,0,0-.64,4.76c0,.26.18.54.28.81a2.67,2.67,0,0,0,.65-.65,6.7,6.7,0,0,0,.31-1.13c.71-2.53,1.39-5.07,2.16-7.58.91-3,2.13-5.85,2.81-8.86,1.41-6.25,2.73-12.52,3.76-18.84.88-5.45,1.48-11,1.89-16.47.42-5.76.59-11.54.63-17.31,0-3.78-.37-7.57-.59-11.35-.19-3.26-.31-6.53-.66-9.78-.24-2.35-.79-4.68-1.22-7s-.75-4.49-1.28-6.69c-.63-2.65-1.4-5.27-2.18-7.88-.12-.4-.56-.7-.86-1-.17.5-.61,1.11-.47,1.5,1.78,4.89,1.6,10.13,2.83,15.13a67.11,67.11,0,0,1,1.31,10.44c.32,4,.62,8,.61,12,0,4.93-.36,9.87-.59,14.8-.19,4-.42,8-.62,12a4.26,4.26,0,0,1,0,.62c-.62,3.72-1.26,7.43-1.87,11.15-.55,3.33-1,6.68-1.89,10.33m-79.39-219.34c3.09,2.88,6.35,5.6,9.23,8.68,5.08,5.44,10,11,14.85,16.7a98.18,98.18,0,0,1,9.6,12.61,10.7,10.7,0,0,0,3.21,2.77,6.4,6.4,0,0,0,2.16.52,12.64,12.64,0,0,0-.13-2.31,3.76,3.76,0,0,0-.86-1.51c-1.37-1.64-2.81-3.22-4.19-4.85q-4.79-5.69-9.53-11.41c-4.13-5-8.19-10-12.43-14.88a95,95,0,0,0-7.3-7.31c-2.07-1.9-4.35-3.58-6.56-5.33-.22-.17-.67-.34-.86-.23-.39.22-.45.46-.24,1.1a11.81,11.81,0,0,0,3.05,5.45M1225.68,739c.19-.22.61-.55.56-.64-2.66-5-5.49-9.94-9.9-13.69-2.18-1.85-3.85-1.41-5.13,1.19a13,13,0,0,0-1.18,2.62c-.25,1-.22,2.26,1,2.57.39.1,1.11-1.06,1.69-1.65.14-.15.35-.27.42-.45.72-1.76,1.56-2.12,2.75-1a40.33,40.33,0,0,1,2.91,3.46,79.92,79.92,0,0,0,6.91,7.56m.62-29.49c.12,4.14-.38,8.29,1.18,12.35a8,8,0,0,0,4.12,4.15c1.61.86,2.44.08,2.21-1.83a7.36,7.36,0,0,0-.74-2.81,1.8,1.8,0,0,0-2.56-1c-1.06.47-1.33,0-1.07-1.57a5.83,5.83,0,0,1,.29-1.45,5.58,5.58,0,0,0-.27-4.61,22,22,0,0,1-.65-2.24,6.69,6.69,0,0,0-.65-1.92c-.66-.94-1.43-1.3-1.86.88m-155.63,458.13c0-1-.06-2.07,0-3.09.06-.86-.33-1.17-1.06-1a1.3,1.3,0,0,0-.8.87,19.06,19.06,0,0,0,0,3.7c.07.56.63,1.07,1,1.6a7.22,7.22,0,0,0,.87-2.12m109.19-487a8.1,8.1,0,0,0-1.66.44c-1,.5-.9,1.5-.82,2.41,0,.21.43.59.46.57.58-.37,1.43-.68,1.6-1.21.27-.82,1.66-1.38.42-2.21M805.2,1274.31a2.33,2.33,0,0,0,2.62.92.78.78,0,0,0,.49-.55c0-.22-.23-.64-.38-.65A7.27,7.27,0,0,0,805.2,1274.31Z"></path> <path class="cls-7" d="M752.49,1415.2c-3.66-.08-7.71,5.18-7.53,8.77a4.13,4.13,0,0,0,5,3.77c.23,0,.56-.3.59-.49s-.17-.68-.35-.72c-2.08-.54-2.39-1.86-1.48-3.55.58-1.08-1.7-2.07-.09-3a16.11,16.11,0,0,1,4.33-1.64c1.93-.39,2.07-.21,2,1.87-.15,4.41-.67,8.82-.54,13.22s.26,8.77,2.38,12.79c.19.36-.08,1-.14,1.45-.3-.22-.6-.43-.89-.66-2.93-2.25-5.85-4.53-8.81-6.75s-5.89-4.08-8.64-6.36c-3.78-3.13-5.63-7.54-7.18-12-.7-2-1.29-4.07-1.87-6.13-.09-.33.15-.75.23-1.14.3.26.83.5.85.78.14,1.72,1,3.86,2.25,3.86s2.72-1.77,3.94-2.93c2.43-2.3,4.72-4.74,7.13-7.06a29.69,29.69,0,0,1,4-3.31c2.1-1.41,6,.24,6.68,2.89C754.94,1411.16,755.1,1413.52,752.49,1415.2Z"></path> </g> <g id="Shape_11" data-name="Shape 11"> <g id="scales"> <path class="cls-8" d="M1497,1352.63c3.37.4,3.23,5.34,2.11,8.54l-135.47,386.22c-4.82,13.74-11.75,29.45-26,32.66-2.13-2.32-1.13-6,0-9Z"></path> <path class="cls-9" d="M1474.61,1872.85c72.34,3.87,149.23-1.09,209.47-41.34-1.84,8-8.3,14-14.44,19.41L1516,1987c-2.31,2-4.78,4.18-7.82,4.7-5,.86-9.52-2.81-13.26-6.22l-162.68-148.63C1374,1863.4,1425.18,1870.2,1474.61,1872.85Z"></path> <path class="cls-10" d="M1664.32,1781.88c12.18,6.89,24.91,19,21.41,32.51-1.23,4.74-4.35,8.77-7.8,12.25-14,14.18-33.73,21.08-53,26.17A430.94,430.94,0,0,1,1523.25,1867c-2,0-4.26,0-5.83-1.29-1.94-1.61-2.11-4.48-2.12-7q-.24-49.17-.49-98.35c0-2.36,0-4.91,1.42-6.82,2.24-3.1,6.76-3.12,10.58-2.83C1574.07,1754.3,1623.05,1758.55,1664.32,1781.88Z"></path> <path class="cls-11" d="M557,1868.72A538.67,538.67,0,0,0,721.35,1867c29.32-4.85,59.44-12.75,81.89-32.23,3.12-2.7,8.26-5.51,10.72-2.19L640.5,1988.15c-1.73,1.55-3.66,3.19-6,3.27-2.5.08-4.65-1.67-6.53-3.31l-168.7-147.62c-2.65-2.32-5.41-6.45-2.86-8.88C484.66,1854.21,521.18,1863.58,557,1868.72Z"></path> <path class="cls-12" d="M615.52,1751.21c1.87-.11,4-.1,5.24,1.32.92,1.09,1,2.66,1,4.08q-.26,50.85-.53,101.7c0,3-.24,6.36-2.6,8.13-1.82,1.36-4.31,1.27-6.58,1.11-49.27-3.32-100.68-7.3-142.9-32.92-8.84-5.36-17.92-12.93-18.73-23.24-.94-12.09,9.79-21.72,20.19-28C513.47,1757.74,565.6,1754.15,615.52,1751.21Z"></path> <path class="cls-13" d="M1505.34,1390.35c-2,0-2-3.07-1.26-4.95,2-.16,2.08,2.92,1.35,4.78Z"></path> <path class="cls-14" d="M641.92,1757.76c0-1.72.06-3.71,1.42-4.77a5.61,5.61,0,0,1,3.26-.84,312.18,312.18,0,0,1,139.3,26.18c13.36,5.9,28.08,15.36,28.69,29.94.67,15.88-15.65,26.65-30.28,32.89a321.55,321.55,0,0,1-137.66,25.46,3.53,3.53,0,0,1-2.22-.59,3.56,3.56,0,0,1-.83-2.74Z"></path> <path class="cls-15" d="M1486.2,1867.48c-48.71-2-99-6.81-141.73-30.19-10.85-5.92-22.18-14.86-22.59-27.21-.44-13.28,11.9-23.21,23.65-29.41,42.59-22.49,92.26-26.29,140.32-29.38,2.56-.16,5.54-.15,7.14,1.86,1.09,1.36,1.17,3.24,1.2,5q.9,51.55-.93,103.1c-.06,1.72-.19,3.61-1.38,4.86C1490.49,1867.54,1488.21,1867.56,1486.2,1867.48Z"></path> <path class="cls-16" d="M616.72,1371.85c1.32-3.51,3.91-7.76,7.56-6.92L489.16,1753c-3.84,11-9.53,23.73-21,25.93-2.72-2.34-1.69-6.7-.43-10.06Q542.23,1570.35,616.72,1371.85Z"></path> <path class="cls-17" d="M1506.27,1362.3c1.5-3.11,6,.36,7.29,3.54q84,204.42,158.31,412.61c-16-1.38-24-19.49-28.85-34.77Q1581.93,1550.48,1506.27,1362.3Z"></path> <path class="cls-18" d="M629.32,1394.75c0-4.09.45-8.89,3.93-11q3.87,239.82,4.79,479.67c0,3-.25,6.62-2.79,8.29-2.77,1.82-6.74,0-8.42-2.82s-1.7-6.36-1.67-9.67Q627.24,1627,629.32,1394.75Z"></path> <path class="cls-19" d="M1506.4,1408.31c2.16,139.32,3.31,278.66,4.46,418q.15,17.55.29,35.1c0,4.77-1.53,11.23-6.29,11-4.49-.18-5.84-6.13-5.86-10.63-.91-153.94,1-307.89,3.79-461.81C1505.81,1401.14,1506.35,1405.09,1506.4,1408.31Z"></path> <path class="cls-20" d="M635.09,1367.45c1.49-3.11,6,.35,7.29,3.54q84,204.4,158.3,412.6c-16-1.38-24-19.48-28.85-34.76Q710.74,1555.63,635.09,1367.45Z"></path> </g> <path class="cls-21" d="M617,1350.09c-4.25-2.23-8.89-3.62-13.2-5.76a92.53,92.53,0,0,1-12.31-7.4,100.39,100.39,0,0,1-20.58-19.65,104.16,104.16,0,0,1-21.8-52.38c-2.17-19.15.67-43.4,15.8-57,13.49-12.14,36.35-10.88,48.87,2.13s11.34,35.56-.87,48.4a31,31,0,0,1-5,4.24c17-8.42-1.46-35.52-17.18-30.52-8.15,2.09-12.15,9.09-15.15,15.09-6,14-1,29,8,40a65.36,65.36,0,0,0,41,21c24,3,45-5,66-17l3-3c20-10,36-25,55-39,7-6,14-13,21-19a598.76,598.76,0,0,0,70-80c1-1,0-3,1-4,3-4,6-8,12-8,8,0,15,7,17,15,1,6-1,11-3,16-7,14-20,24-23,40-2,11,5,21,14,25,29,11,58-1,87-10,10-3,19-6,28-13,13-9,22-20,30-33a100.92,100.92,0,0,0,7-15c6-16,10-33,13-51s4-35,6-53c2-23,5-45,6-68,1-14,3.23-49.63,3.74-63.62,8.15-223-39.23-431.38,27-648.2,8.55,30.3-4.36,14,0,0,2.28,5.82,3.28,11.82,4.28,17.82,24,87,31,174,33,262,2,114-6,227-8,341-1,74-1,148,10,223a151.67,151.67,0,0,0,19,54l3,3c12,21,33,32,55,40,27,8,54,13,81,13,14-1,32-5,37-19,7-18-9-31-20-44-5-7-11-15-7-24s15-10,24-8c9,3,16,11,20,19,4,9,9,16,13,25l3,3c16,27,36,48,58,70,1,1,3,1,4,2,22,20,45,36,72,45,12,5,25,8,38,7,14-1,28-6,39-15,2-3,5-4,7-7,14-17,15-48-8-55-12-4-24,7-24,20,0,3,3,6,4.85,8-10.69-11.93-7.5-5.85,0,0-9.85-11-14.85-28-8.85-42,5-11,14-19,26-21,11-1,21,2,28,11,25,36,20,84-7,117-17,20-44,25-69,23-57-6-113-16-166-35-8,12-16,25-24.54,36.94,2.49-25.28,2.83-4.25,0,0,3.54-26.94-13.46-50.94-34.46-66.94-40-29-89-20-131.79-9.92"></path> <path class="cls-22" d="M1135.76,1273.3c-13.21-9.08-21.21-23.08-22.21-38.08-5-3-10-4-15.27-6.52,19.6,27.41,3,1.13,0,0l58.78,82.23c17,23.77,33.91,48.09,45.11,75.23,10.63,25.76,15.18,54.25,7.37,81.44-7.08,24.69-23,46.3-43,62.14-22.41,17.74-50,27.87-78,32.21-26.4,4.08-54,3.82-80.16-1.79-23-4.93-45.85-14.24-63.55-30.11-19.59-17.56-29.92-42.16-30.26-68.36-.37-29.32,9.81-58,22.25-84.2a539,539,0,0,1,46.85-79.72q6.49-9.16,13.36-18.06c-24.71-14.21-55.34-17.29-82.57-9.08-39.83,12.59-70.83,49.59-72.9,92.29-7-14.74,1-14.8,0,0-7.93-17.7-16.93-34.7-24.93-51.7-56,18-113,30-172,37-3,0-7,1-9.52,1.53"></path> <path class="cls-23" d="M1085.45,1288.7c-9.89,17.07-2.81,41.72,14.63,50.94,2.94,1.55,2.72,6.14.53,8.64s-5.53,3.56-8.56,4.94a38.08,38.08,0,0,0-20.09,22.27c-1.68,5-9.72,3.5-12.87-.77s-4.12-10-8-13.65c-4.17-3.87-10.51-4.21-15.38-7.13s-6.87-11.77-1.42-13.38c8.8-2.6,14.53-11.53,16.07-20.57s-.32-18.27-2.17-27.25a4.71,4.71,0,0,0-1.45-3c-1.58-1.16-3.77,0-5.34,1.19a231.76,231.76,0,0,0-81.05,113.3c-5.82,17.94-9.43,37.08-6.31,55.68,3.88,23.14,18.25,43.9,37.37,57.48s42.67,20.25,66.12,20.94c25.4.75,51.26-5.52,72.45-19.54s37.37-36,42.51-60.94c4.93-23.92-.33-48.93-9.42-71.59a219.14,219.14,0,0,0-77.62-97.53"></path> <path class="cls-24" d="M1137.15,1272.77c63.38-21.11,168.54-6.61,166.24,76.87l24.3-36.52c90.51,24.43,272.54,89.75,255.8-70.5-7.46-75.68-94.56-47.13-62.36,12.35-4.72-11.2,9.49-28.23,23-24.14,15.64,4.73,21.21,25.47,15.77,40.87-61.43,104.2-203.48-36.31-236.91-104.74-5-9.4-10-19.45-18.64-25.63s-22.55-6.64-28.67,2.09C1262,1163,1301.83,1181,1303,1204.93c-5.24,54.4-141.51,17.22-164.34-11.58-26.79-26.88-33.26-67.47-36.63-105.27-24.12-269.82,38.21-548.48-35.34-809.21C967.74,539.33,1115.37,1003,980.17,1206c-21.6,17.64-50.11,23.74-77.42,29.3-42,10.09-77.45-12.22-45-50.7,7.19-9.47,14.95-20.23,13.4-32s-18.87-20.19-25.57-10.36c-43.45,63.17-199.86,239.85-268.31,131.32-6.32-15.86-.48-38.06,16.06-42.28,14.6-3.73,27.74,17.22,20.14,27.43,30.94-32-10.89-78.85-46.17-52.23-9.16,7.63-13.83,19.46-16,31.19-15.29,115,84.59,109.94,84.59,109.94s.45,2,1.22,5.22a2.35,2.35,0,0,1,.7,0c-.47-1.2-.93-2.41-1.4-3.61a920.16,920.16,0,0,0,181.77-38.88l24.69,52c3.06-74.39,91.88-121.92,155.47-83.2-43.09,61.75-104.71,145.28-73.41,222.4,59.86,104.08,270.71,75.83,289.09-49.27,7.16-86.46-71.3-154.93-114.35-224.14m-289.36,47.48c-.91,1.95-3.21,2.75-5.28,3.35-22.33,5.2-45,15.68-67.31,18.12a331.27,331.27,0,0,0,65.49-54.26c1.62-1.74,3.52-3.64,5.9-3.63C809.23,1251.32,811.26,1263.69,810.31,1275.66Zm288-47c-1-3.77-36.75-158.25-34-155.5-10.65-14.61-17.22-27.82-31.28-39.19,25.5-192.12-27.59-402.74-1.24-593.4.71,6.34,8.24-89.47,14.52-90.54,11.86-33.55,8.65-35.57,19.5-68.89,3.43,99.51,3.27,279.1,2,378.66-1.94,81.31-3.66,164.82-2.36,246.32-2.87,47,11.69,47.43,1.49,96.91-15.47,75,33.6,240.09,33.56,228.63m63.9,154c66.93,151.51-171.21,215.27-209,73.65-7.21-60.33,40.86-142.67,92.7-170.18,6.67,16.19,7.48,44-12.44,50.86-5.46,1.61-3.47,10.45,1.41,13.37s11.22,3.27,15.38,7.14c3.89,3.61,4.86,9.38,8,13.65s11.18,5.79,12.87.76c5-15.84,16.39-19.4,28.64-27.2,2.19-2.5,2.41-7.1-.52-8.65-17.45-9.21-24.53-33.87-14.64-50.93A218.94,218.94,0,0,1,1164.45,1385.71Zm223.75-90.38-48.55-14.28c-.82-.24-.83-1.39-.67-2.23l4.59-24c2.86.37,5.1,2.55,7.15,4.58a248,248,0,0,0,49.27,37.83C1396,1297.6,1392,1296.46,1388.2,1295.33Z"></path> </g> <g id="L-snake_official-2" data-name="L-snake official"> <path class="cls-25" d="M767.54,1327.65c-3.34.37-6.69.71-10,1-1.54,2.69-3,5.42-4.41,8.2-2.61,5.21-5.72,10.18-8.06,15.49-3.27,7.43-6.73,14.77-9.68,22.35-1.82,4.67-3.75,9.32-5.65,14-.11.27-.43.52-.41.76.21,2.76-.49,5.51,0,8.27a24.59,24.59,0,0,0,3.14,9.37c1.31,2.05,2.29,2.51,4.38.91,2.37-1.81,4.85-3.49,7.17-5.36a5.21,5.21,0,0,1,3.89-1.27,14.53,14.53,0,0,1,1.87,0c4.21.9,6.32-1.53,7.95-4.86a24.22,24.22,0,0,1,2.39-4c1.15-1.52,1.1-3.33,1.55-5,.08-.3-.32-1-.55-1.06-2.46-.3-5-1.83-7.27.71-.47.53-1.41.63-2,1-1.39.93-2.71,1.06-3.69-.43-.67-1-1.22-.46-1.93-.22-2.57.87-5.16,1.68-7.74,2.52-.3.1-.59.25-.89.37.11-.35.11-.87.35-1a50.16,50.16,0,0,1,5.88-4c3.52-1.82,7.38-3.23,11.33-2.76,3.28.4,6-1,9-1.51,1.4-.26,2.82-1.71,3.71-3a63.36,63.36,0,0,0,3.57-6.66,27.18,27.18,0,0,1,2.09-3.83c.64-.85.43-1.27-.22-1.76s-1.4-1.38-2.18-1.5c-3.57-.56-7.17-1-10.77-1.27a6.47,6.47,0,0,0-3.72.76c-1.23.77-2.49,1.83-2.22,3.77.07.49-.74,1.41-1.31,1.6s-1.35-.42-1.71-.91c-.54-.75-.61-2.23-1.22-2.44s-1.73.63-2.65.9c-.33.1-.76-.15-1.14-.23a4.22,4.22,0,0,1,.7-1c3.19-2.39,6.94-3.4,10.71-4.46,3.37-1,6.75-.63,10.1-.51a17.81,17.81,0,0,0,12.77-4.75,28.31,28.31,0,0,0,5.12-6.93c1.05-1.75-.59-4.7-3.12-5.93a20.52,20.52,0,0,0-5.18-1.84,18.48,18.48,0,0,1-4.51-1.26c-2.66-1.17-3.25-1-6.14.46a21.56,21.56,0,0,1-4.82.72c-.59-.1-1.16-.29-1.74-.44.58-.63,1.12-1.32,2-.3.1.12.92-.08,1-.25.75-2.75,3.42-2.06,5.18-2.65a17.48,17.48,0,0,1,6.91-.67,92.24,92.24,0,0,1,14.21,2,2.15,2.15,0,0,0,1.49-.06,23.71,23.71,0,0,0,7.36-8.18c-8.5-2.38-17.15-4.22-25.89-5.78A7,7,0,0,1,767.54,1327.65Z"></path> <path class="cls-25" d="M1081.31,1250.66c0-6.36.09-17.75-1.16-31.51a228.62,228.62,0,0,0-7.52-42.91,234.52,234.52,0,0,0-10.61-29.65c-2.43-5.81-11.1-26.07-21.77-40.13-.41-.54-1-1.22-2-2.63-4.69-6.53-9.29-13.12-14.06-19.58-3.1-4.2-6.25-8.39-9.74-12.27-5-5.55-10.27-10.85-15.5-16.18-1.71-1.75-3.72-3.21-5.48-4.91q-13.1-12.72-26.15-25.51a7.68,7.68,0,0,0-1.12-1.09c-5.81-3.75-10.6-8.66-15.38-13.58-1.44-1.49-2.5-3.36-3.81-5a34.54,34.54,0,0,1-5.71-9.88c-.57-1.62-2.08-2.88-2.9-4.44a35.48,35.48,0,0,1-3.91-11.55c-.13-.89-.49-1.12-1.18-.58-1.18.93-1.39.3-1.35-.78a8.61,8.61,0,0,1,.24-3,3.34,3.34,0,0,0-.17-3.06c-1.25-3.25-2.18-6.63-3.19-10-.31-1-.11-2.47-.75-3.1-1-.93-1.84.46-2.74.89a.54.54,0,0,1-.31,0l-1.16-.23a5.28,5.28,0,0,1,.3-1.07,15.73,15.73,0,0,0,1.47-2.52c1-3.08.87-4.51-.29-8.12-1-3.19-2.41-6.3-2.2-9.77a2.46,2.46,0,0,0-.25-.83c-.35.11-.85.12-1,.36a6,6,0,0,1-4.48,2.08,3.37,3.37,0,0,1-1.11-.31c.28-.31.49-.76.84-.9a6.62,6.62,0,0,0,4.13-5.7c.58-4.47-.3-8.85-1.51-13.15a21.11,21.11,0,0,0-.7-2.54c-.29-.69-.25-1.66-1.77-.83s-3.49.68-5.28.8c-.4,0-.84-.63-1.26-1a4.48,4.48,0,0,1,1.23-.82,22.07,22.07,0,0,0,3.22-.55c2.35-1,4.34-5.22,3.57-7.82a29.27,29.27,0,0,1-1.22-8.91,25.15,25.15,0,0,0,0-3.13,1.26,1.26,0,0,0-.77-.91,3.39,3.39,0,0,0-2.11.13c-1.66,1-3.07.28-4.49-.4a6.89,6.89,0,0,1-1.38-1.23,6,6,0,0,1,1.64-.4c1.81.11,3.53-.14,4.64-1.65a7.72,7.72,0,0,0,1.91-4.87c-.1-3.55,0-7.11,0-10.66,0-2.65-.18-2.35-2.65-3.65-1.85-1-4.22-.44-5.68-2.25a4.32,4.32,0,0,0-.89-.67,4.72,4.72,0,0,1,1.52-.57,2.33,2.33,0,0,1,1.64.48c1.28,1.5,2.6.21,3.55-.16a4.88,4.88,0,0,0,2.42-2.8,20,20,0,0,0,.69-5.36c.1-2.51,0-5,.06-7.53a16.78,16.78,0,0,1,.61-3.19,4.38,4.38,0,0,1,.44-.93c-.4,0-.88-.27-1.18-.12-2.6,1.29-5.31,1-8,.59-1.38-.2-3-1.83-2.52-2a9.33,9.33,0,0,1,2.88-.36c.06,0,.13.17.22.2a5.19,5.19,0,0,0,5.77-1.33,12.43,12.43,0,0,0,3.65-7.6c.41-2.86.42-5.87,1.39-8.53.72-2,0-2-1.32-2.3-1.71-.38-3.41-.85-5.13-1.24a9,9,0,0,1-4.83-2.71.84.84,0,0,1,0-.81.92.92,0,0,1,.81-.23c1.37.47,2.71,1.05,4.08,1.51,3.37,1.14,5.26.33,6.6-2.79.77-1.77,1.43-3.59,2.24-5.35,1.13-2.45,2.09-4.92,1.85-7.7-.12-1.47-.31-2.45-2.3-2.74-3.21-.47-5.83-2.43-8-4.87-.22-.25-.22-.7-.32-1.06a5,5,0,0,1,1.29.19,22.69,22.69,0,0,0,6.61,2.26c1.7.19,4.28-.77,4.5-2.36a32.27,32.27,0,0,1,2.9-8.54c1.69-3.82.84-5.23-2.49-7.57-2.52-1.77-4.47-4.34-6.65-6.58-.19-.19-.18-.57-.26-.86.73.17,2,.15,2.11.54,1,2.67,3.34,3.21,5.69,3.87,2.84.79,3.68.56,5-2,.54-1,.84-2.16,1.28-3.23.76-1.88,1.48-3.78,2.34-5.62,1.2-2.53,1.12-3.53-.85-5.58-1.6-1.65-3.28-3.22-4.86-4.89a7.23,7.23,0,0,1-2.26-4.7c0-.33.26-.68.4-1,.27.21.71.35.8.62.94,2.54,3.12,4,4.93,5.79,1.63,1.6,3.82,1.46,5.74.25a6.9,6.9,0,0,0,3.12-4.32c1.4-5.67,1.32-11.11-3-15.79a8.82,8.82,0,0,1-2.59-7.06,3.65,3.65,0,0,1,.29-.82c.36.15.85.19,1.05.45a16.16,16.16,0,0,1,1.16,2c1,2,2,4,3.17,5.89,2,3,4.89,3,6.85.1a30.12,30.12,0,0,0,2.5-4c1.63-3.41,2.48-6.79.15-10.41a23.58,23.58,0,0,1-3.56-12.31c0-.4.49-.82.76-1.23.26.32.67.6.77,1,1.08,3.74,1.81,7.59,4.4,10.74,1.51,1.84,3,2.11,4.55.35a26.94,26.94,0,0,0,2.68-3.9c2-3.36,2.87-6.94,1.73-10.81-.8-2.71-1.8-5.36-2.38-8.11a25.36,25.36,0,0,1-.22-5.85c0-.33.92-.63,1.42-1a8.18,8.18,0,0,1,.39,1,19.71,19.71,0,0,1,.61,3.19c.15,3.6,1.42,6.91,2.57,10.25.74,2.16,2.22,2.36,3.92.7,1-1,2.09-2,3.1-3.1,3.1-3.23,4.13-6.34,2.94-10.47-1-3.57-1-7.27-1.81-10.85a6.61,6.61,0,0,1,0-2.8,1.21,1.21,0,0,1,2.4.1,15.26,15.26,0,0,1,0,3.76c-.35,3,.92,5.71,1.41,8.54.4,2.27,2.16,2.78,4,1.42a26.78,26.78,0,0,0,4.16-3.56c2.48-2.79,3.83-6,2.36-9.78a17.86,17.86,0,0,1-1.23-7.33,14.89,14.89,0,0,1,.63-3.49,19.09,19.09,0,0,1,1.26-2.72,3.07,3.07,0,0,1,1.23,2.78,66.14,66.14,0,0,0,0,6.9,55.68,55.68,0,0,0,1.31,7c0,.19.37,1.29,1.29.49,2.06-1.77,4.5-3.18,6.28-5.18,2.57-2.9,4.52-6,3.14-10.49-.8-2.58-.27-5.61-.07-8.42.06-.85,1.22-2.41,1.46-2.34,1.18.37,1,1.59,1,2.63,0,.41.14.9,0,1.24-1.87,3.92.45,7.82.09,11.73a1.07,1.07,0,0,0,1.7,1c2-1.17,4.05-2.35,6.05-3.58a3,3,0,0,0,1-1.14c1-2.13,2.05-4.23,1.93-6.75-.15-3-.08-6.06,0-9.09a6,6,0,0,1,.7-2.21c.15-.34.57-.57.86-.84a4.64,4.64,0,0,1,.27,1.13c0,2.2,0,4.4,0,6.59.06,2-.42,4,0,6.08.31,1.67,1,1.9,2.9,1.94,2.39,0,3.72-1.71,5.57-2.53,3.41-1.52,3.57-4.71,4.08-7.69.36-2.08.35-4.23.69-6.31a33.71,33.71,0,0,1,1.26-4.81,1.44,1.44,0,0,1,1-.66c.23,0,.79.4.77.56-.23,1.88-.47,3.76-.85,5.6a35,35,0,0,0-1,9c.07,1.35.78,1.93,2,1.69a32.25,32.25,0,0,0,3.88-1.22,9.77,9.77,0,0,0,6.7-7.7c.54-2.52.77-5.11,1.31-7.62a15.45,15.45,0,0,1,1.56-4c.24-.44,1.21-.49,1.85-.71a4.48,4.48,0,0,1,.16,1.68c-.41,1.39-1.17,2.68-1.48,4.08a84.28,84.28,0,0,0-1.45,8.5,2.34,2.34,0,0,0,2.57,2.66c6.21-.35,10-2.76,11.19-9.53a48.65,48.65,0,0,1,1.35-7c.39-1.15,1.77-2,2.7-2.92.08,1.19.17,2.37.21,3.56,0,.14-.36.27-.41.45-.9,3.18-1.78,6.37-2.67,9.56-.7,2.53.19,4,2.73,4a27.87,27.87,0,0,0,5.42-.42,5.86,5.86,0,0,0,4.62-3.84,42.79,42.79,0,0,0,1.73-6.18c.5-2,.67-4.08,1.92-5.79a2.75,2.75,0,0,1,1.4-.63,1.55,1.55,0,0,1,.41.91c-.57,2.37-1.24,4.72-1.82,7.08a18.3,18.3,0,0,0-.61,3.51c-.08,1.33-.39,3,.28,3.9s2.37.6,3.62.88c4,.89,5.46.14,7.4-3.43a43,43,0,0,0,2.56-6.16,46.16,46.16,0,0,1,3.64-7c.13-.23.68-.23,1-.34a3,3,0,0,1,0,1.06c-1,2.72-1.88,5.51-3.15,8.11a10.39,10.39,0,0,0-1,6.15,3,3,0,0,0,2.39,3,18.62,18.62,0,0,0,4.48.48c2.55,0,4.1-1.25,5-3.88.43-1.29.77-2.61,1.27-3.87,1.13-2.83,1.83-5.94,4.6-7.81a4.3,4.3,0,0,1,1.1-.36,2.9,2.9,0,0,1,0,1.1c-1.45,3.38-3,6.7-4.37,10.12a6.82,6.82,0,0,0-.4,4,4.61,4.61,0,0,0,3.76,3.41c4.87,1.23,8.13.26,9.73-4.77.26-.84.31-1.76.65-2.56,1.19-2.8,1.81-6,4.63-7.8a6.64,6.64,0,0,1,1.5-.52c0,.49.23,1.21,0,1.44-1.15,1.08-1.42,2.53-2,3.89-1.1,2.58-2.53,5-3.71,7.57-1.11,2.39-.23,5.45,1.8,5.63a15,15,0,0,1,4.44,1.48c2.5,1,3.56.66,4.53-1.58s2-4.83,3.28-7.11c1.1-2,2.26-4,4.35-5.22a6,6,0,0,1,1.2-.39,3.35,3.35,0,0,1,0,1.22c-.13.36-.61.58-.78.93-1.76,3.57-4.35,6.68-5.52,10.59a3.55,3.55,0,0,0,.64,3.66c1.75,2.26,4.4,2.51,6.75,3.46a2.34,2.34,0,0,0,2.76-.45,12.74,12.74,0,0,0,2-2.61c1.25-2.08,2.37-4.25,3.61-6.34.77-1.3,1.53-2.73,3.43-2.55.29,0,.81.13.81.21a1.8,1.8,0,0,1-.22,1.06c-.62.91-1.35,1.74-2,2.64-1.62,2.33-3.58,4.42-4.26,7.34-.54,2.29-.38,3.55,1.59,4.71s4.16,2.06,6.22,3.15a2.27,2.27,0,0,0,3.22-.64c1.46-1.9,2.82-3.88,4.38-5.7a38.38,38.38,0,0,1,4-3.91c.25-.22,1,0,1.44.1-.21.3-.4.61-.62.89-1.77,2.19-3.54,4.39-5.33,6.57s-2,4.36.25,6.2a52,52,0,0,0,6.65,4.34,4,4,0,0,0,4.72-.18c.24-.17.54-.43.76-.39.4.06,1.53-.79.78.93-.86,2,0,4.12,1.77,5.72s3.54,3.56,5.35,5.3a7.61,7.61,0,0,0,4,2.45c.3-.61.59-1.22.88-1.82.13.11.38.3.36.33a18.82,18.82,0,0,1-1.08,1.64,6.51,6.51,0,0,0,1,3.12c3.63,4.11,5.93,9,8.07,13.93,3.85,8.79,5.87,18.18,7.67,27.57.92,4.81,1.31,9.72,1.93,14.58.26,2.1.36,4.22.73,6.3.49,2.8,1.26,5.55,1.76,8.36s.73,6,1.33,8.87a13.79,13.79,0,0,0,1.8,4c.37.63,1.09,1.68,1.54-.14s1.25-3.28,1.59-5c.56-2.83.45-5.86,1.4-8.53,1.31-3.68.92-7.5,1.73-11.19.47-2.16.41-4.43.71-6.63a2.15,2.15,0,0,1,1-1.33c.21-.12.89.35,1.21.69,2.06,2.27,2.17,5.31,1.9,7.89-.24,2.23-.23,4.45-.42,6.67a9.77,9.77,0,0,1,0,2.49c-1.28,3.19-1,6.64-1.78,9.92a53.14,53.14,0,0,0-.7,6.94,19.42,19.42,0,0,1-.69,5.05c-1.25,3.23.22,6.7-1.15,9.88-.12.29.29.82.46,1.24a5.38,5.38,0,0,0,.75-1c.74-1.81,1.42-2,2.85-.87.24.2.44.45.67.66s.44.32.66.48c0-.36.14-.8,0-1.06-2.23-3.47-2.08-7.56-2.76-11.38-.35-2,1-4.23,1.06-6.36.1-5.54,2.36-10.59,3.41-15.91a64.1,64.1,0,0,0,1.7-11.5c0-1.18.91-2.61.48-3.45-.73-1.45-.45-2.81-.48-4.19a27.66,27.66,0,0,0-1.62-8.76c-.33-.94-.52-1.26.65-1.34.66,0,1.3-.57,1.94-.56a10.62,10.62,0,0,1,7.24,2.91c4,3.61,6.37,8.22,8.14,13.26.81,2.29,1.61,4.39-.08,6.49a34.54,34.54,0,0,1-3,3,22.12,22.12,0,0,0-2,1.79,1.57,1.57,0,0,0-.21,1.4,1.41,1.41,0,0,0,1.27.54,26.47,26.47,0,0,0,5.67-2.16c1.14-.68,2.36-1.58,3.17-.55s-.64,2-1.46,2.7a9.61,9.61,0,0,1-2.28,1.29c-.61.28-1.3.38-1.92.66-.82.36-.83.92,0,1.21s1.59,1.33,2.74.31a8.17,8.17,0,0,1,2.43-.91c2.88-1.14,5.41-2.57,5.64-6.18a22,22,0,0,1,.64-4.44c1-3.85.7-7.83,1.13-11.74.27-2.37-.49-4.83-.5-7.26a83.08,83.08,0,0,0-2.48-17.8,117.66,117.66,0,0,0-8.56-24.07,146.48,146.48,0,0,0-16.3-26.54c-5.19-6.79-10.71-13.24-16.52-19.48-1.81-1.94-3.93-3.58-5.93-5.35-3.66-3.26-7.19-6.69-11-9.72-5.31-4.17-10.77-8.18-16.37-12a142.14,142.14,0,0,0-17.51-10.72c-5.65-2.75-11.25-5.58-17.1-7.95a159.79,159.79,0,0,0-18.78-6.17,78.51,78.51,0,0,0-12.37-2.77c-2.92-.3-5.78-1.23-8.71-1.63s-5.68-.44-8.51-.69c-.19,0-.34-.39-.66-.6H1060c-.08.18-.14.5-.23.51-2.61.27-5.23.65-7.86.71-3.82.08-7.43,1.43-11.15,1.82-6,.63-11.78,2.33-17.55,3.91q-9.12,2.49-18.06,5.65c-5.28,1.86-10.5,3.94-15.59,6.28-4.66,2.14-9.1,4.78-13.67,7.16-3.12,1.62-6.1,3.48-9.14,5.22-3.42,2-6.67,4.13-9.93,6.31-5.32,3.56-10.33,7.51-15.35,11.47A196.68,196.68,0,0,0,920,665.76c-3.91,4.19-7.2,9-11,13.31a102.51,102.51,0,0,0-9.94,13.78c-2.27,3.76-4.49,7.54-6.61,11.39-2.24,4.08-4.52,8.15-6.45,12.38-3.06,6.68-6,13.39-8.76,20.22-2.35,5.84-4.2,11.85-6.49,17.7-2,5.14-3.18,10.62-4.66,16-.76,2.72-1.44,5.48-2.09,8.23-.81,3.44-1.54,6.9-2.32,10.34-.82,3.63-1.78,7.23-2.47,10.89-.58,3-.68,6.17-1.33,9.19-1.14,5.26-.79,10.74-2.46,15.92a2.13,2.13,0,0,0,0,.62c-.21,3.89-.39,7.78-.64,11.66-.13,1.91-.39,3.81-.62,5.7s.49,3.66-.58,5.42c-.32.54-.05,1.44-.05,2.17,0,8.47-.07,16.94,0,25.41.07,5.46.17,10.94.67,16.37.48,5.26,1,10.51,1.27,15.8.21,3.73,1.22,7.42,1.78,11.15.32,2.09.34,4.23.67,6.32.51,3.22,1.18,6.41,1.74,9.62.49,2.84.88,5.7,1.39,8.53.57,3.2,1.14,6.41,1.89,9.57.95,4,2.06,7.93,3.12,11.89,1,3.57,2,7.12,2.91,10.71a253.42,253.42,0,0,0,7.78,24.4c2,5.55,4,11.11,6.3,16.52q4.8,11.19,10.16,22.15c2.89,5.93,6.2,11.65,9.23,17.51a256.12,256.12,0,0,0,17.55,28.2c3.41,4.91,7.09,9.62,10.58,14.46,5.41,7.49,12.14,13.67,18.5,20.23,1.52,1.56,27.85,39,27.59,39.14-.94.68,17.53,37.67,18.61,40.12a47.26,47.26,0,0,1,2.54,8,112.71,112.71,0,0,1,2,12.68c.36,2.78.34,5.71,1.64,8.39a12.7,12.7,0,0,1,.73,4.4c.27,3.36.45,6.72.64,10.09.23,3.78.6,7.57.59,11.35,0,4.1-.29,8.2-.61,12.29s-.69,8-1.27,12c-.41,2.8-1.74,5.55-1.72,8.32,0,4.91-2,9.31-2.76,14-.75,4.46-2.41,8.79-3.89,13.11-2.34,6.86-4.55,13.8-7.37,20.47-3.2,7.57-6.77,15-10.65,22.25-3.64,6.8-7.7,13.4-12,19.82-2.88,4.34-6.47,8.2-9.68,12.33A162.29,162.29,0,0,1,936,1407,196.77,196.77,0,0,1,919.19,1421c-5.49,4.09-11.15,7.9-16.87,11.62-3.6,2.33-7.34,4.46-11.13,6.45-5.14,2.71-10.34,5.31-15.62,7.74-4.73,2.19-9.57,4.17-14.43,6.06-3.25,1.27-6.63,2.18-9.93,3.3a173.1,173.1,0,0,1-17.74,4.89c-4.79,1.08-9.58,2.19-14.4,3.11-2.27.43-4.68.22-6.93.72-3.57.78-7.26.08-10.81,1.14-1.25.37-2.71,0-4.06.08-2.11.21-4.33-.71-6.33.6-2-1.08-4.22-.44-6.33-.63-8.6-.75-16.64-2.87-22.65-9.68a9.81,9.81,0,0,1-2-2.63c-1.26-3.17-4.07-4.29-6.87-5.2-4.32-1.4-7.77-4.15-11.33-6.72a47.31,47.31,0,0,1-5.08-4.42,29.08,29.08,0,0,1-8.05-13.28,42.89,42.89,0,0,1-1.95-11.76,36.62,36.62,0,0,0-.59-4.76,1.71,1.71,0,0,1,0-.32,28.28,28.28,0,0,0,.55-5.07c-.08-1.52-1-3-1.13-4.5-.2-4.23,1.1-8.28,1.75-12.41a73,73,0,0,1,3.53-12.68,138.1,138.1,0,0,1,8.46-18.78,269.88,269.88,0,0,1,14.06-24.62l.06-.09c-6,.59-12,1.15-18.06,1.72a79.4,79.4,0,0,1-28.77,11.33c-1.05,3.34-2.07,6.69-3,10.06-1,3.56-1.86,7.18-2.73,10.79-.81,3.33-1.61,6.67-2.3,10s-1.41,6.78-1.86,10.2c-.57,4.31-.64,8.68-1.34,13-1.76,10.77-1.23,21.62-1.1,32.43a58.25,58.25,0,0,0,1.08,11.11c.74,3.63.54,7.46,1.41,11,1.29,5.36,2.49,10.77,5.06,15.78,2.11,4.12,3.55,8.57,5.57,12.74a70.48,70.48,0,0,0,4.94,8.31,120.17,120.17,0,0,0,19.09,21.56c5.78,5.31,12,10.19,19.26,13.31a82.41,82.41,0,0,0,18.66,5.72c3.56.6,7,1.68,10.58,2.45a39.73,39.73,0,0,0,4.76.63q4.26.39,8.52.63c4.2.25,8.41.61,12.61.59,5.45,0,10.92-.2,16.36-.63,5.2-.4,10.38-1.06,15.53-1.87,5.66-.88,11.31-1.9,16.9-3.14s11.36-2.82,17-4.37c5-1.37,9.92-2.77,14.8-4.42,3.65-1.23,7.13-3,10.76-4.31a220.91,220.91,0,0,0,22.32-9.74c6.58-3.28,13.46-6,19.93-9.44,6.87-3.69,13.84-7.26,20.2-11.86,4.23-3.06,8.75-5.7,13-8.73,2.71-1.93,5.09-4.32,7.72-6.38A182.77,182.77,0,0,0,1001,1448a130.8,130.8,0,0,0,13.85-16.81c1.94-2.91,4.35-5.5,6.38-8.35s4.17-6,6-9.13c4.31-7.51,8.88-14.91,12.56-22.73s7.72-15.81,10.23-24.31c1.06-3.6,2.88-7,4-10.55,1.71-5.27,3.18-10.62,4.67-16,.77-2.73,1.38-5.5,2-8.27.82-3.53,1.64-7.07,2.38-10.62.88-4.14,1.7-8.3,2.5-12.46.28-1.46.49-2.95.64-4.44.45-4.42.69-8.87,1.31-13.27.74-5.25.83-10.54,1.32-15.8,1-11.42.4-22.84.37-34.26,0-3.42-.26-6.94-.51-10.4-.29-4.23-.74-8.45-1.24-12.66-.56-4.77-1.12-9.54-1.9-14.28-.92-5.65-1.9-11.3-3.15-16.89-1.18-5.33-2.6-10.61-4.16-15.84s-3.36-10.53-5.25-15.71a69.06,69.06,0,0,0-3.84-8.45c-1.87-3.53-4-6.93-6-10.4-2.45-4.31-4.72-8.74-7.36-12.94-4-6.34-8.13-12.55-12.31-18.75-2.82-4.19-5.76-8.31-8.74-12.38-3.19-4.35-6.42-8.67-9.77-12.89-2.47-3.11-5.16-6-7.74-9q-5.88-6.82-11.77-13.64c-.27-.32-.59-.59-.88-.89-11.76-12-23.59-23.87-35.23-36-2.88-3-5.89-6.05-7.59-10-.09-.22-.19-.44-.29-.66.29,0,.71-.14.83,0,1.15,1.29,2.26,2.6,3.35,3.94,1.64,2,3.1,4.24,4.91,6.1,5.54,5.7,11.25,11.23,16.82,16.9,6.92,7,13.86,14.08,20.61,21.29,3.82,4.07,7.29,8.46,10.91,12.72,3.41,4,6.94,8,10.17,12.11,4.14,5.35,8.09,10.84,12,16.36,4.73,6.7,9.47,13.4,13.94,20.27,3.2,4.9,6,10,8.92,15.13,3,5.31,6.27,10.56,9,16a89.37,89.37,0,0,1,5,13c1.65,5.29,4.34,12.58,6.28,22.19.92,4.58.6,4.19,1.94,11.13,1.13,5.89,1.82,8.56,2.47,13.71.09.66-.24.48.68,6.95.71,5,.93,10.11,1.4,15.15.27,2.86.2,5.71.47,8.54a187.83,187.83,0,0,1,.5,26.41c-.21,4.83-.11,9.69-.64,14.48-.3,2.65,0,5.33-.57,7.89-.86,4.22-.72,8.54-1.73,12.75-.81,3.39-.72,7-1.38,10.43-.76,4-1.42,7.93-2.35,11.86s-1.59,7.9-2.62,11.8c-1.27,4.81-2.39,9.66-3.81,14.43-1.29,4.36-2.86,8.64-4.36,12.94-1,2.83-2.08,5.64-3.13,8.45-1.46,3.9-2.93,7.16-4.39,10.42-.43,1-.81,2-1.26,2.93-1.81,3.86-3.51,7.77-5.47,11.54a233.94,233.94,0,0,1-16.42,27.71c-3.68,5.21-7.7,10.19-11.5,15.33-6.4,8.65-14,16.25-21.82,23.54A199.79,199.79,0,0,1,974.27,1477c-5,3.75-10,7.44-15.35,10.74-4.47,2.78-9,5.44-13.64,8s-9.57,5.15-14.44,7.54c-7.12,3.49-14.26,7-21.51,10.19a279,279,0,0,1-32.7,11.93,134.14,134.14,0,0,1-18.75,4.78c-4.44.68-8.74,2.17-13.16,3-3.44.66-7,.78-10.44,1.33-5.14.8-10.35.77-15.47,1.37-7.06.83-14.08.52-21.09.35a93.82,93.82,0,0,1-13.9-1.21c-4.92-.88-9.88-1.63-14.76-2.89-4.07-1-8.13-2.12-12.15-3.31a60.17,60.17,0,0,1-19.36-10.11,131.09,131.09,0,0,1-15.14-13.38,118.59,118.59,0,0,1-13.84-17.8,96.86,96.86,0,0,1-11.61-25.3,75.86,75.86,0,0,1-2.9-13.26c-.41-3.59-.77-7.21-1.34-10.75-.46-2.89-.26-5.71-.48-8.55-.2-2.43-.62-4.85-.59-7.27a166.49,166.49,0,0,1,.71-17.61c.56-4.66.4-9.41,1.7-14,.57-2,.42-4.21.7-6.31.39-2.86.78-5.72,1.36-8.54.69-3.35,1.57-6.66,2.4-10,1.45-5.78,2.8-11.59,4.43-17.31.58-2.06,1.23-4.1,1.92-6.13-3,.53-6,.92-9,1.18-2.35,6.06-4.66,12.14-6.76,18.28-2,5.79-3.75,11.65-5.37,17.54-1.15,4.16-1.88,8.43-2.84,12.64-.58,2.58-1.32,5.12-1.83,7.7-.36,1.77-.42,3.59-.68,5.38-.49,3.55-1,7.09-1.71,10.79-.16,11.56-.16,23-.16,34.36.21.27.56.52.6.81.71,4.9,1.45,9.78,2.43,14.65a118.42,118.42,0,0,0,4.46,16.36c2.81,8,6.3,15.52,11.64,22.13,2.79,3.45,5.27,7.24,8.49,10.23a95.77,95.77,0,0,0,18.22,13.41,110.85,110.85,0,0,0,21.88,9.23c3.83,1.17,7.81,1.81,11.64,3s7.75,1.5,11.79,2.31c24.74.16,49.32.16,73.9.16.07-.18.14-.51.22-.51a51.92,51.92,0,0,0,9.87-1.94c3.33-.89,6.83-1.14,10.17-2,4.24-1.07,8.4-2.44,12.57-3.72,5.38-1.65,10.79-3.23,16.11-5,5.86-2,11.68-4.12,17.41-6.45s11.39-4.86,17-7.53c6.12-2.93,12.15-6.05,18.15-9.23a238.79,238.79,0,0,0,25.7-15.9c6-4.28,11.84-9,17.68-13.55,9.38-7.38,17.62-15.89,25.91-24.36,4-4.09,7.28-8.89,10.95-13.32a150.28,150.28,0,0,0,12.41-17.45c2.6-4.25,5.35-8.43,7.73-12.81,3.19-5.87,6.17-11.86,9.12-17.87a168.45,168.45,0,0,0,8.71-20.86c1.68-5,3.7-10,5.24-15.08,2-6.53,3.45-13.2,5.47-19.71,1.31-4.23,1.44-8.68,3-12.88.94-2.56.92-5.48,1.36-8.23.61-3.82,1.3-7.63,1.86-11.46.32-2.2.38-4.43.65-6.64.72-5.66,1-11.35,1.4-17,.21-3,0-6.16.54-9.15C1081,1268.7,1081.26,1259.69,1081.31,1250.66Zm146.85-542a6.69,6.69,0,0,1,.65,1.92,22,22,0,0,0,.65,2.24,5.58,5.58,0,0,1,.27,4.61,5.83,5.83,0,0,0-.29,1.45c-.26,1.55,0,2,1.07,1.57a1.8,1.8,0,0,1,2.56,1,7.36,7.36,0,0,1,.74,2.81c.23,1.91-.6,2.69-2.21,1.83a8,8,0,0,1-4.12-4.15c-1.56-4.06-1.06-8.21-1.18-12.35C1226.73,707.32,1227.5,707.68,1228.16,708.62ZM1210,728.47a13,13,0,0,1,1.18-2.62c1.28-2.6,3-3,5.13-1.19,4.41,3.75,7.24,8.67,9.9,13.69,0,.09-.37.42-.56.64a79.92,79.92,0,0,1-6.91-7.56,40.33,40.33,0,0,0-2.91-3.46c-1.19-1.15-2-.79-2.75,1-.07.18-.28.3-.42.45-.58.59-1.29,1.75-1.69,1.65C1209.81,730.73,1209.78,729.47,1210,728.47Zm-30.59-45.63c-.17.53-1,.84-1.6,1.21a1.18,1.18,0,0,1-.47-.57c-.07-.91-.21-1.91.83-2.41a8.1,8.1,0,0,1,1.66-.44C1181.1,681.46,1179.71,682,1179.44,682.84ZM934.28,997.93a30.23,30.23,0,0,1-2.67-3.9c-4-7.53-8.31-14.95-11.91-22.68A171.63,171.63,0,0,1,911,947.67c-1.32-4.49-2.34-9.07-3.49-13.61-1-3.88-2-7.75-3-11.64a36.45,36.45,0,0,1-.8-4.37c-.28-2.32-.41-4.64-.66-7a34.78,34.78,0,0,0-.63-3.81c-.82-3.76-.81-7.62-1.35-11.39-1-6.73-.7-13.49-1.31-20.19a132.87,132.87,0,0,1-.33-17.94c.24-5.25.32-10.5.55-15.75.14-3.39.78-6.76,1.2-10.14a73.55,73.55,0,0,1,1.84-14.6,38.21,38.21,0,0,0,.67-5.38,126.56,126.56,0,0,1,3.67-19.49c.83-3,1.21-6.18,2-9.22,1.63-6.21,3.19-12.46,5.18-18.56,2.67-8.19,5.65-16.27,8.64-24.34a84.21,84.21,0,0,1,3.74-7.86c2.28-4.6,4.4-9.3,6.94-13.75,3.11-5.43,6.44-10.76,9.94-16a126.08,126.08,0,0,1,13.71-17.55c4.54-4.69,8.83-9.64,13.59-14.09a168.94,168.94,0,0,1,15-12.15,156.75,156.75,0,0,1,26.71-15.85,132.26,132.26,0,0,1,20.56-7.92c5.53-1.56,11.08-3.1,16.7-4.35,3.31-.74,6.81-.62,10.11-1.41,2.35-.57,4.69-.18,7-.58,6.7-1.18,13.44-.64,20.13-.46,5.08.13,10.26.1,15.25,1.69,1.67.52,3.55.13,5.39.62,3.43.91,7,1.1,10.48,2,6.28,1.67,12.63,3.16,18.69,5.59,3.77,1.51,7.6,2.87,11.35,4.42,3.57,1.47,7.13,3,10.61,4.67s7.16,3.5,10.56,5.56c4.45,2.7,8.73,5.7,13.07,8.58a31.44,31.44,0,0,1,3.89,2.72c2.29,2.11,4.44,4.37,6.62,6.6a.85.85,0,0,1-.06.84.83.83,0,0,1-.83.07c-3.91-4.28-9.16-6.8-13.62-10.36a43.09,43.09,0,0,0-6.71-4.23c-5.48-2.9-11-5.85-16.6-8.4a138.52,138.52,0,0,0-19.84-7.39c-5.65-1.56-11.28-3.16-17-4.31-4.81-.95-9.73-1.34-14.56-2.09-4.45-.69-9-.55-13.38-1.65a16.18,16.18,0,0,0-3.75,0c-4.18,0-8.37-.08-12.55,0-4,.1-8,.18-12,.66a106.53,106.53,0,0,0-15.56,2.56A196.67,196.67,0,0,0,1026,643,132.73,132.73,0,0,0,1000.58,656q-7,4.69-13.93,9.55a38,38,0,0,0-4.18,3.54c-5.26,5-10.74,9.81-15.65,15.14a178.66,178.66,0,0,0-15,18.51,204.28,204.28,0,0,0-12.94,20.38c-2.35,4.37-5,8.57-7.11,13.06-3.52,7.63-7.22,15.2-9.85,23.22-2,6.25-4.35,12.42-6.37,18.69-1.37,4.25-2.53,8.59-3.63,12.92-1,3.81-1.75,7.66-2.52,11.51-.9,4.56-1.61,9.15-2.55,13.7-.67,3.25-.87,6.56-1.33,9.82-.54,3.8-.81,7.62-1.31,11.4-.42,3.19-.06,6.35-.5,9.48-1.26,8.79-.65,17.62-.43,26.41.11,4.28-.17,8.72,1.06,13a6.86,6.86,0,0,1,0,1.87,48,48,0,0,0,1.21,9.84,50.62,50.62,0,0,1,.66,6.64c.34,5.18,1.6,10.2,2.42,15.29q1.05,6.6,2.65,13.05c1.79,7.18,3.65,14.36,5.83,21.43a164.07,164.07,0,0,0,6.79,19.14c3.45,7.67,6.31,15.67,11.11,22.69a3.46,3.46,0,0,1,.44,1.07,6.27,6.27,0,0,1,.08,1.07C935.12,998.23,934.51,998.23,934.28,997.93Zm115.08,311.28c.45-2,1.24-3.89,1.67-5.88.77-3.57,1.4-7.17,2-10.76.27-1.48.43-3,.64-4.45.84-3.65,1.34-7,1.89-10.33.61-3.72,1.25-7.43,1.87-11.15a4.26,4.26,0,0,0,0-.62c.2-4,.43-8,.62-12,.23-4.93.57-9.87.59-14.8,0-4-.29-8-.61-12a67.11,67.11,0,0,0-1.31-10.44c-1.23-5-1-10.24-2.83-15.13-.14-.39.3-1,.47-1.5.3.34.74.64.86,1,.78,2.61,1.55,5.23,2.18,7.88.53,2.2.87,4.46,1.28,6.69s1,4.66,1.22,7c.35,3.25.47,6.52.66,9.78.22,3.78.61,7.57.59,11.35,0,5.77-.21,11.55-.63,17.31-.41,5.51-1,11-1.89,16.47-1,6.32-2.35,12.59-3.76,18.84-.68,3-1.9,5.9-2.81,8.86-.77,2.51-1.45,5-2.16,7.58a6.7,6.7,0,0,1-.31,1.13,2.67,2.67,0,0,1-.65.65c-.1-.27-.31-.55-.28-.81A40,40,0,0,1,1049.36,1309.21Zm-77.84-247c.19-.11.64.06.86.23,2.21,1.75,4.49,3.43,6.56,5.33a95,95,0,0,1,7.3,7.31c4.24,4.88,8.3,9.92,12.43,14.88q4.76,5.71,9.53,11.41c1.38,1.63,2.82,3.21,4.19,4.85a3.76,3.76,0,0,1,.86,1.51,12.64,12.64,0,0,1,.13,2.31,6.4,6.4,0,0,1-2.16-.52,10.7,10.7,0,0,1-3.21-2.77,98.18,98.18,0,0,0-9.6-12.61c-4.85-5.65-9.77-11.26-14.85-16.7-2.88-3.08-6.14-5.8-9.23-8.68a11.81,11.81,0,0,1-3.05-5.45C971.07,1062.69,971.13,1062.45,971.52,1062.23Z"></path> <path class="cls-25" d="M1150,1194.07a45.5,45.5,0,0,0-3.34-3.74c-3.35-3.33-6.74-6.62-10.25-9.78A73.07,73.07,0,0,0,1150,1194.07Z"></path> <path class="cls-25" d="M1158.75,1285.73c1.4.76,2.91,0,4.21-.79.66-.43,1.28-.94,2-1.31.28-.14.7,0,1.06,0-.1.36-.1.84-.33,1-1.51,1.37-3.1,2.65-4.59,4a5.94,5.94,0,0,0-2,5.59,62.07,62.07,0,0,1,.07,7.84,10.67,10.67,0,0,0,0,2.19c.3,1.46,1.06,1.86,2.5,1.29,1-.4,1.85-1.09,2.83-1.49.4-.16,1,.12,1.46.19a3.54,3.54,0,0,1-.52,1.27,3.89,3.89,0,0,1-1.5.9,6.91,6.91,0,0,0-4.74,5q3.88,4.13,7.58,8.42c.38-1.45.77-2.9,1.13-4.36.72-3,1.3-6,1.9-8.95.77-3.9,1.4-7.82,2-11.75.83-5.49,1.35-20,1.93-25.48,0-.34.06.32.09,0-5.7.34-11.39-.13-17.07.62.24,1,.46,11,.47,12C1157.24,1283.5,1157.47,1285,1158.75,1285.73Z"></path> <path class="cls-25" d="M1149.05,1363.79c-.79,2.34-1.6,4.67-2.45,7-2.15,5.8-4.37,11.57-6.51,17.38a36.15,36.15,0,0,0-.91,3.62c.59-1,1.25-1.92,1.76-2.94,2.17-4.32,4.39-8.63,6.42-13,1.46-3.15,2.9-6.33,4.23-9.54Z"></path> <path class="cls-25" d="M1123.57,1167.2c2.91,1.82,10.76,3.76,13.5,5.87a111.7,111.7,0,0,1,14.69,12.94c4.73,5.21,8.9,19.81,12.48,25.89,20.12,10.11,44.34,14.16,66.89,18.3-.59-2.28-1.2-13.55-2-15.75-1.35-3.72-3.18-7.26-4.58-11a111.44,111.44,0,0,0-10.22-19.92,123.45,123.45,0,0,0-17.56-22.23c-2.41-2.37-5-4.6-7.49-6.89a115.8,115.8,0,0,0-12.87-9.8c-4.29-3-8.72-5.62-13.2-8.26a178.67,178.67,0,0,0-20.82-10.38c-6.76-2.86-13.91-4.81-21-7-4.2-1.29-8.5-2.29-12.77-3.34-.63-.16-1.27-.29-1.91-.43"></path> <path class="cls-25" d="M1111.33,1142.83"></path> <path class="cls-25" d="M1194.65,1358.32a187.41,187.41,0,0,1,12.38,23.36c.59-1.27,1.16-2.55,1.65-3.87,2.51-6.71,5.89-13,8.53-19.68,1.43-3.59,3.34-7,4.65-10.62,2.28-6.28,4.86-12.45,6.66-18.9,1-3.74,2.42-7.39,3.38-11.14a75.5,75.5,0,0,0,1.3-7.94c.25-1.69,0-3.62.74-5,1-1.81.13-3.6.71-5.36a30.87,30.87,0,0,0,1-5.53c.28-2,.38-4,.66-6,.36-2.66,1.13-14.29,1.18-16.95,0-.29,0,8.42,0,8.13-1.72-.15-3.44-10.29-5.15-10.48-17.76-1-35.49-.87-53.14-.16,0,1,0,11.09-.62,12.08-.24.37,0,1,0,1.55a55.32,55.32,0,0,1-1.21,11.1c-.84,4.3-1.13,8.71-2,13s-1.89,8.39-3.12,12.5c-.59,2-1.22,4-1.84,5.94A303.55,303.55,0,0,1,1194.65,1358.32Z"></path> <path class="cls-25" d="M1480.43,1333.62c-.89,1.49-1.51,3.05-2.37,4.46-4.12,6.78-8.15,13.61-12.51,20.23-3.93,6-8.41,11.55-12.34,17.5-4.8,7.29-10.45,13.9-15.81,20.73-2.32,3-4.86,5.74-7.31,8.59-3.91,4.56-7.76,9.16-11.78,13.62-2.52,2.79-5.27,5.38-8,8q-9.37,9.12-18.82,18.19c-1.85,1.76-3.74,3.49-5.74,5.09-3.59,2.88-7.27,5.64-10.92,8.45-3.81,2.93-7.49,6-11.45,8.76-4.92,3.39-10.18,6.29-15.1,9.69-6.53,4.51-13.58,8.06-20.58,11.7q-9,4.68-18.44,8.51c-4.85,2-9.76,3.71-14.69,5.46-6.41,2.27-13.08,2.73-19.6,4.11-3.86.82-8,.59-12,.7-1.26,0-2.54-.54-3.81-.56a67,67,0,0,1-13-1.16c-3.85-.81-7.72-1.52-11.48-2.65-8.4-2.52-16.32-6.2-23-11.93a65.18,65.18,0,0,1-11.76-12.81c-4.65-2.32-8.49-6.7-11.52-11.28.24,1.24.5,2.48.75,3.72a70.35,70.35,0,0,0,3.26,11.54c2.11,5.52,4.67,10.78,8.61,15.25,1.9,2.16,3.74,4.38,5.78,6.38,5.44,5.32,11.94,8.88,19,11.79,4.63,1.92,9.48,2.85,14.23,4.25a29.24,29.24,0,0,0,5.07.53,128.16,128.16,0,0,0,16,.7,72.72,72.72,0,0,0,10.46-1.21c3.5-.55,7-1.21,10.44-2,5.3-1.3,10.59-2.66,15.81-4.24a95.7,95.7,0,0,0,10.59-4c5.85-2.55,11.83-4.78,17.46-7.86a166.46,166.46,0,0,0,20.13-12.73c4.86-3.65,9.78-7.22,14.62-10.89,1.7-1.3,3.27-2.77,4.85-4.21,2.74-2.49,5.5-5,8.17-7.54,8-7.74,16-15.42,23.89-23.32,5.07-5.11,9.81-10.56,14.67-15.87,1.52-1.65,3-3.38,4.45-5a5.08,5.08,0,0,1,.88-.64,3.34,3.34,0,0,1-.31,1.27c-1.36,1.86-2.74,3.7-4.2,5.48-3.08,3.76-6.2,7.48-9.31,11.21-1.24,1.48-2.44,3-3.78,4.39-8.63,8.88-17.2,17.82-26,26.54-3.29,3.26-7.13,6-10.71,8.92-2.42,2-4.8,4-7.26,6-2.66,2.12-5.28,4.31-8.1,6.19-5.8,3.88-11.55,7.87-17.62,11.26-5.64,3.16-11.77,5.44-17.51,8.43-4.16,2.17-8.6,3.5-12.93,5.14-3.72,1.41-7.56,2.5-11.39,3.56-3.49,1-7,1.69-10.56,2.54a74.27,74.27,0,0,1-10.51,2c-5.26.51-10.5,1.27-15.8,1.16-1.8,0-3.59-.39-5.39-.6s-3.63-.31-5.4-.46a58.12,58.12,0,0,1-14-3.36,61.6,61.6,0,0,1-17.76-9.4,68.17,68.17,0,0,1-16.28-18.34,57.14,57.14,0,0,1-4.6-10.31,107.87,107.87,0,0,1-3.14-10.62c-.31-1.17.12-2.52-.14-3.72a61.94,61.94,0,0,1-.78-9.44l-.12-.24c-5.17-10.34-8-18.57-8.67-22.84-6.39-39.59-6.39-39.59-20.1-66.83,2.52,5-4.53,10.26-6.75,15.42-3.52,8.18-6.6,16.52-9.33,25a128.48,128.48,0,0,0-4.27,16.72c-.91,5.12-2.13,10.23-2,15.52s-.21,10.68.11,16a85,85,0,0,0,2.07,12.29,86.67,86.67,0,0,0,4.81,15c2.8,6.87,5.85,13.66,10.75,19.39,2.51,2.93,4.88,6,7.57,8.77,6.25,6.4,13.66,11.19,21.58,15.28,7.55,3.9,15.6,6.4,23.72,8.63,4,1.1,8.24,1.28,12.35,2,9.71,1.76,19.52,1.14,29.29,1.21a40.7,40.7,0,0,0,4.76-.59c1.59-.18,3.27-.43,4.77-.46,3.48-.08,6.74-1.12,10.13-1.52a63.67,63.67,0,0,0,10.88-2.47c5.65-1.71,11.24-3.64,16.81-5.63,3.63-1.3,7.15-2.92,10.77-4.29a182.09,182.09,0,0,0,21.53-10.14q8.6-4.65,17-9.65c4.21-2.51,8.37-5.15,12.37-8,4.64-3.31,9.09-6.88,13.58-10.4q6.3-4.92,12.49-10c2.14-1.75,4.17-3.64,6.18-5.54,4.75-4.48,9.52-8.94,14.15-13.55,3.52-3.49,7-7.07,10.19-10.84,4.72-5.51,9.12-11.3,13.82-16.84,6.25-7.39,11.66-15.38,17.19-23.3,4.29-6.15,8.09-12.59,12.24-18.82,2.31-3.46,4-7.31,6-11,2.64-4.77,5.74-9.33,7.86-14.32,3.58-8.37,6.8-14.43,7.68-16.59C1477.7,1341.63,1479.28,1337.12,1480.43,1333.62Z"></path> <path class="cls-25" d="M752.49,1415.2c-3.66-.08-7.71,5.18-7.53,8.77a4.13,4.13,0,0,0,5,3.77c.23,0,.56-.3.59-.49s-.17-.68-.35-.72c-2.08-.54-2.39-1.86-1.48-3.55.58-1.08-1.7-2.07-.09-3a16.11,16.11,0,0,1,4.33-1.64c1.93-.39,2.07-.21,2,1.87-.15,4.41-.67,8.82-.54,13.22s.26,8.77,2.38,12.79c.19.36-.08,1-.14,1.45-.3-.22-.6-.43-.89-.66-2.93-2.25-5.85-4.53-8.81-6.75s-5.89-4.08-8.64-6.36c-3.78-3.13-5.63-7.54-7.18-12-.7-2-1.29-4.07-1.87-6.13-.09-.33.15-.75.23-1.14.3.26.83.5.85.78.14,1.72,1,3.86,2.25,3.86s2.72-1.77,3.94-2.93c2.43-2.3,4.72-4.74,7.13-7.06a29.69,29.69,0,0,1,4-3.31c2.1-1.41,6,.24,6.68,2.89C754.94,1411.16,755.1,1413.52,752.49,1415.2Z"></path> </g> </g> </g> </svg> 