<?xml version="1.0" encoding="UTF-8"?> <svg xmlns="http://www.w3.org/2000/svg" id="Layer_2" viewBox="0 0 1912.46 5334.42"> <defs> <style>.cls-1{fill:#010a13;}</style> </defs> <g id="Layer_2-2"> <path class="cls-1" d="M2.17,3069.43c0,22.85,46.2,88.33,72.25,116.29-.59,1.34-1.09,2.75-1.75,4.05-13.05,25.85-13.87,61.24-2.18,94.42l122.42,353.61c21.39,61.74,73.08,48.5,135.12,28h0c62.04-20.51,111.44-40.68,91.83-103.01l-112.41-356.91c-10.39-33.61-32.14-61.54-58.02-74.52-8.43-4.23-16.39-10.16-23.62-17.41,7.56-33.39,5.4-79.49,5.4-97.36,0-29.36,17.62-41.11,35.24-88.09,17.62-46.98,0-111.58,5.87-170.31,5.87-58.73,170.31-375.86,223.17-522.68,52.86-146.82,82.22-358.24,82.22-358.24,0,0,17.62,35.24,11.75,70.47s-26.43,267.21-38.17,308.32c-11.75,41.11,0,140.95,0,211.42s-32.3,414.03-32.3,431.65,11.75,35.24,11.75,35.24c0,0,11.75,117.46,41.11,234.91,29.36,117.46,146.82,704.73,152.69,751.72,5.87,46.98,35.24,76.35,35.24,93.96s-11.75,46.98-11.75,93.96,70.47,258.4,82.22,299.51c11.75,41.11,5.87,234.91,5.87,264.28s64.6,140.95,58.73,152.69c-5.87,11.75-11.75,35.24-11.75,35.24,0,0-29.36,5.87-29.36,17.62,0,8.09-2.79,41.28-.68,64.98-34.72,27.29-100.64,83.33-113.84,96.53-17.62,17.62-193.8,46.98-217.29,76.35-23.49,29.36-11.75,64.6-11.75,64.6,0,0-5.87,17.62,0,35.24,5.87,17.62,41.11,17.62,164.44,17.62s252.53-35.24,276.02-35.24,29.36,0,41.11,5.87c30.63,15.31,199.67-11.75,205.55-41.11,3.93-19.67,2.6-99.87,1.29-150.73,8.24-28.68,17.3-67.57,13.39-75.37-5.87-11.75-11.75-17.62-11.75-17.62,0,0,17.62-123.33,11.75-176.18-5.87-52.86-29.36-187.93-29.36-223.17s-23.49-270.15-23.49-311.26v-105.71c0-29.36-29.36-64.6-29.36-82.22s0-29.36,5.87-64.6c5.87-35.24-17.62-76.35-11.75-111.58,5.87-35.24-41.11-593.15-29.36-587.28,11.75,5.87,140.95,358.24,164.44,446.33,23.49,88.09,135.07,434.59,146.82,493.31,11.75,58.73,46.98,387.6,52.86,422.84,5.87,35.24,52.85,211.42,52.85,211.42,0,0-11.75,23.49-11.75,52.86,0,23.57,22.69,66,40.76,87.93-5.23,22.34-11.32,49.64-14.33,67.7-5.87,35.24,11.75,88.09,11.75,99.84s-23.49,76.35,58.73,99.84c0,0,1.98,65.07,99.84,88.09,99.84,23.49,217.29-17.62,205.55-52.86,0,0,23.49-41.11,0-76.35-23.49-35.24-52.86-82.22-58.73-93.96-4.04-8.08-8.08-77.34-10.21-119.75,11.27-14.86,24.89-44.58,24.89-65.24,0-23.49-17.62-46.98-17.62-46.98,0,0,17.62-64.6,17.62-123.33s-35.24-182.06-29.36-234.91c5.87-52.86-46.98-405.22-46.98-440.46s-23.49-99.84-29.36-129.2c-5.87-29.36-5.87-46.98-5.87-76.35s-11.75-52.85-23.49-105.71c-11.75-52.85-64.6-252.53-64.6-270.15v-88.09c0-29.36-23.49-82.22-23.49-117.46,0-24.26,2.78-173.8,4.52-264.61,37-4.99,42.24-71.03,36.59-93.63-5.87-23.49,5.87-58.73,23.49-41.11,17.62,17.62-5.87,123.33-5.87,123.33,0,0-23.49,23.49-41.11,41.11-17.62,17.62,17.62,41.11,17.62,41.11,0,0-5.87,29.36,17.62,35.24,23.49,5.87,35.24-46.98,35.24-46.98,0,0,76.35-52.86,93.96-64.6,17.62-11.75,41.11-76.35,41.11-76.35,0,0,23.49-29.36,23.49-52.85s-29.36-187.93-29.36-187.93c41.11-11.75,46.98-58.73,41.11-111.58s-35.24-52.86-35.24-52.86c0,0-5.87-11.75-5.87-41.11s-23.49-493.31-41.11-640.13c-17.62-146.82-64.6-281.89-64.6-281.89,0,0,58.73-41.11,58.73-64.6s-29.36-88.09-46.98-135.07c-17.62-46.98-99.84-452.2-164.44-528.55-64.6-76.35-317.13-135.07-317.13-135.07,0,0-35.24-11.75-46.98-17.62-11.75-5.87-17.62,5.87-17.62,5.87-77.37-14.51-150.74-69.83-210.31-129.89-48.59-151.13,17.78-294.98-86.27-448.58C792.06-63.7,592.38,18.52,592.38,18.52,363.35,6.77,310.49,124.23,310.49,124.23l58.73-23.49c-176.18,99.84-140.95,264.28-140.95,264.28l16.29-48.88c-50.52,215.58,136.4,277.92,136.4,277.92-58.73-46.98-88.09-123.33-88.09-123.33,33.68,71.11,103.11,113.57,149.06,135.03,14.51,16.71,25.78,35.21,38.86,64.64,23.49,52.85,146.82,111.58,182.06,123.33,11.65,3.88,24.57,5.17,36.67,5.19,.53,1.29,1.04,2.54,1.5,3.62,17.62,41.11-35.24,88.09-35.24,88.09-11.75-11.75-88.09,46.98-146.82,99.84-58.73,52.86-146.82,140.95-170.31,258.4-23.49,117.46-70.47,522.68-70.47,534.42s23.49,41.11,23.49,41.11c0,0-29.36,99.84-70.47,229.04-41.11,129.2-73.41,672.43-79.28,695.92-2.74,10.94-26.49,42.91-52.28,78.09-1.61-3.96-4.62-7-8.32-8.57-2.97-1.27-4.09-4.65-2.46-7.43,2.72-4.64,3.04-10.65-.05-15.97-3.76-6.48-11.89-9.02-19.01-6.67l-53.99,17.85c-11.55,3.82-16.57,10.7-15.73,18.15,.69,6.12,4.53,10.74,9.48,12.85,2.97,1.27,4.09,4.65,2.46,7.43-2.2,3.76-2.83,8.4-1.36,12.86,1.85,5.59,6.54,9.41,11.93,10.43,4.64,.88,7.87,5.12,8.26,9.83,1.26,15.42,2.95,30.57,4.92,45.41-1.87,3.97-3.35,7.61-4.24,10.74-11.75,41.11-29.36,105.71-29.36,135.07ZM1529.09,1871.38s52.85,229.04,82.22,352.37c29.36,123.33,64.6,328.88,64.6,328.88l-5.87,5.87c-5.87,5.87,0,52.86,0,52.86,0,0-29.36,41.11-46.98,93.96-5.55,16.66-11.1,40.9-16.11,66.29l-13.26-66.29s11.75-17.62,11.75-35.24-23.49-93.96-23.49-99.84,23.49-105.71,17.62-146.82c-5.87-41.11-88.09-229.04-93.96-246.66-5.87-17.62,23.49-305.38,23.49-305.38Z"></path> </g> </svg> 