<?xml version="1.0" encoding="UTF-8"?> <svg xmlns="http://www.w3.org/2000/svg" id="Layer_2" viewBox="0 0 843 901"> <defs> <style>.cls-1{fill:#010a13;}.cls-2{fill:#e400ff;}.cls-3{fill:#2300e2;}</style> </defs> <g id="Layer_4"> <rect class="cls-1" width="843" height="901"></rect> <g> <path class="cls-2" d="M41.69,19.88v51.24h-5.21V19.88h-8.4v-4.79h22.01v4.79h-8.4Z"></path> <path class="cls-2" d="M67.14,71.12v-27.3c0-3.02-.08-6.97-4.2-6.97-1.76,0-3.53,.92-4.45,2.44-1.26,1.93-1.26,4.37-1.26,6.55v25.28h-4.7V9.89h4.7v26.71c1.85-2.1,4.37-3.61,7.31-3.61,6.13,0,7.31,4.37,7.31,9.66v28.48h-4.7Z"></path> <path class="cls-2" d="M98.31,58.35c-.25,6.05-2.1,13.36-9.49,13.36-9.66,0-10.92-12.01-10.92-19.24,0-6.8,1.43-19.49,10.58-19.49s10.16,11.34,10.16,17.98c0,.76-.08,1.6-.08,2.35h-15.88v.84c0,3.78,.59,13.1,5.96,13.1,4.2,0,4.79-5.71,4.87-8.9h4.79Zm-4.37-9.07c-.17-3.36-.59-11.93-5.38-11.93s-5.63,8.48-5.8,11.93h11.17Z"></path> <path class="cls-2" d="M139.8,71.12v-27.3c0-3.02-.08-6.97-4.2-6.97-1.76,0-3.53,.92-4.45,2.44-1.26,1.93-1.26,4.37-1.26,6.55v25.28h-4.7V9.89h4.7v26.71c1.85-2.1,4.37-3.61,7.31-3.61,6.13,0,7.31,4.37,7.31,9.66v28.48h-4.7Z"></path> <path class="cls-2" d="M170.97,58.35c-.25,6.05-2.1,13.36-9.49,13.36-9.66,0-10.92-12.01-10.92-19.24,0-6.8,1.43-19.49,10.58-19.49s10.16,11.34,10.16,17.98c0,.76-.08,1.6-.08,2.35h-15.88v.84c0,3.78,.59,13.1,5.96,13.1,4.2,0,4.79-5.71,4.87-8.9h4.79Zm-4.37-9.07c-.17-3.36-.59-11.93-5.38-11.93s-5.63,8.48-5.8,11.93h11.17Z"></path> <path class="cls-2" d="M192.55,71.12v-3.02c-1.68,2.27-3.44,3.61-6.38,3.61-8.57,0-8.82-12.01-8.82-18.65,0-7.64,.25-20.08,9.24-20.08,2.69,0,4.28,1.01,5.96,3.11v-2.52h4.79v37.55h-4.79Zm-4.79-34.36c-5.46,0-5.54,9.58-5.54,13.36,0,3.11,0,6.05,.25,9.07,.34,3.28,.84,8.65,5.21,8.65,1.26,0,2.18-.34,3.02-1.26,2.35-2.35,2.35-11.17,2.35-14.45,0-7.48-.42-15.37-5.29-15.37Z"></path> <path class="cls-2" d="M205.74,71.12V9.89h4.79v61.24h-4.79Z"></path> <path class="cls-2" d="M221.28,25.26c-1.93,0-3.53-1.6-3.53-3.44,0-2.02,1.51-3.61,3.53-3.61s3.44,1.68,3.44,3.61-1.51,3.44-3.44,3.44Zm-2.44,45.86V33.57h4.79v37.55h-4.79Z"></path> <path class="cls-2" d="M246.56,71.12v-27.3c0-3.02-.08-6.97-4.2-6.97-1.76,0-3.53,.92-4.45,2.44-1.26,1.85-1.26,4.37-1.26,6.55v25.28h-4.7V33.57h4.7v3.02c1.85-2.1,4.37-3.61,7.31-3.61,6.3,0,7.31,5.21,7.31,10.33v27.8h-4.7Z"></path> <path class="cls-2" d="M279.07,75.24c0,6.8-2.6,11-9.83,11-6.55,0-9.74-4.12-9.74-10.42,0-.5,0-1.01,.08-1.43h4.79c0,3.78,.42,7.39,5.12,7.39s4.79-3.7,4.79-7.31v-6.05c-1.68,1.85-3.44,2.69-5.96,2.69-9.49,0-9.58-12.77-9.58-19.57,0-6.3,.67-18.56,9.32-18.56,2.69,0,4.54,1.09,6.22,3.19v-2.6h4.79v41.66Zm-10-38.39c-5.04,0-5.46,8.65-5.46,16.46,0,4.03,.08,13.94,5.88,13.94,4.2,0,4.79-4.96,5.04-8.06,.25-3.11,.25-6.05,.25-9.07,0-3.95,0-13.27-5.71-13.27Z"></path> <path class="cls-2" d="M311.75,36.09c1.6-2.1,3.28-3.11,5.96-3.11,9.24,0,9.32,11.84,9.32,18.65,0,8.06-.25,20.08-8.82,20.08-2.94,0-4.7-1.43-6.47-3.61v18.14h-4.7V33.57h4.7v2.52Zm4.87,.67c-4.87,0-5.29,7.9-5.29,15.37,0,3.28,0,12.1,2.35,14.45,.84,.92,1.76,1.26,3.02,1.26,4.37,0,4.87-5.38,5.21-8.65,.25-2.94,.25-5.88,.25-8.82,0-3.78-.08-13.61-5.54-13.61Z"></path> <path class="cls-2" d="M343.58,71.71c-9.66,0-11-12.1-11-19.4s1.34-19.32,11-19.32,10.5,12.35,10.5,19.57-.84,19.15-10.5,19.15Zm-.08-34.36c-5.8,0-5.96,11.42-5.96,15.37s.25,14.53,5.96,14.53,5.71-11.17,5.71-14.95-.17-14.95-5.71-14.95Z"></path> <path class="cls-2" d="M384.24,71.12h-4.87c-1.6-10.42-3.44-20.83-4.79-31.25-.34,2.02-.42,3.86-.76,5.88l-4.12,25.37h-4.87l-7.56-37.55h4.79l4.2,22.76c.5,2.6,.84,5.29,1.09,7.9,.17-2.52,.67-5.12,1.09-7.73l3.78-22.93h4.87c1.6,10.16,3.53,20.41,4.7,30.66,.42-2.6,.76-5.29,1.26-7.98l4.62-22.68h4.79l-8.23,37.55Z"></path> <path class="cls-2" d="M415.74,58.35c-.25,6.05-2.1,13.36-9.49,13.36-9.66,0-10.92-12.01-10.92-19.24,0-6.8,1.43-19.49,10.58-19.49s10.16,11.34,10.16,17.98c0,.76-.08,1.6-.08,2.35h-15.88v.84c0,3.78,.59,13.1,5.96,13.1,4.2,0,4.79-5.71,4.87-8.9h4.79Zm-4.37-9.07c-.17-3.36-.59-11.93-5.38-11.93s-5.63,8.48-5.8,11.93h11.17Z"></path> <path class="cls-2" d="M434.13,38.45c-6.3,0-6.38,5.04-6.38,9.91v22.76h-4.7V33.57h4.7v4.87c1.26-2.77,3.11-5.29,6.38-5.46v5.46Z"></path> <path class="cls-2" d="M468.57,71.71c-9.66,0-11-12.1-11-19.4s1.34-19.32,11-19.32,10.5,12.35,10.5,19.57-.84,19.15-10.5,19.15Zm-.08-34.36c-5.8,0-5.96,11.42-5.96,15.37s.25,14.53,5.96,14.53,5.71-11.17,5.71-14.95-.17-14.95-5.71-14.95Z"></path> <path class="cls-2" d="M492.26,37.94v33.18h-4.7V37.94h-4.28v-4.37h4.28v-15.04c0-4.79,1.26-9.58,6.97-9.58,1.43,0,2.86,.25,4.2,.84v5.21c-1.01-.84-2.1-1.68-3.44-1.68-2.77,0-3.02,2.52-3.02,4.62v15.62h6.47v4.37h-6.47Z"></path> <path class="cls-2" d="M537.62,69.78c-1.51,1.18-3.53,1.93-5.38,1.93-8.82,0-10.84-12.01-10.84-18.73,0-7.14,1.51-19.99,11.09-19.99,1.76,0,3.53,.5,5.12,1.43v5.54c-1.26-1.34-2.77-2.6-4.7-2.6-5.96,0-6.55,11-6.55,15.2s.76,14.7,6.47,14.7c2.1,0,3.7-1.76,4.79-3.36v5.88Z"></path> <path class="cls-2" d="M557.78,71.12v-3.02c-1.68,2.27-3.44,3.61-6.38,3.61-8.57,0-8.82-12.01-8.82-18.65,0-7.64,.25-20.08,9.24-20.08,2.69,0,4.28,1.01,5.96,3.11v-2.52h4.79v37.55h-4.79Zm-4.79-34.36c-5.46,0-5.54,9.58-5.54,13.36,0,3.11,0,6.05,.25,9.07,.34,3.28,.84,8.65,5.21,8.65,1.26,0,2.18-.34,3.02-1.26,2.35-2.35,2.35-11.17,2.35-14.45,0-7.48-.42-15.37-5.29-15.37Z"></path> <path class="cls-2" d="M585.58,71.12v-27.3c0-3.02-.08-6.97-4.2-6.97-1.76,0-3.53,.92-4.45,2.44-1.26,1.85-1.26,4.37-1.26,6.55v25.28h-4.7V33.57h4.7v3.02c1.85-2.1,4.37-3.61,7.31-3.61,6.3,0,7.31,5.21,7.31,10.33v27.8h-4.7Z"></path> <path class="cls-2" d="M613.3,71.12v-27.3c0-3.02-.08-6.97-4.2-6.97-1.76,0-3.53,.92-4.45,2.44-1.26,1.85-1.26,4.37-1.26,6.55v25.28h-4.7V33.57h4.7v3.02c1.85-2.1,4.37-3.61,7.31-3.61,6.3,0,7.31,5.21,7.31,10.33v27.8h-4.7Z"></path> <path class="cls-2" d="M640.68,71.12v-3.02c-1.68,2.27-3.44,3.61-6.38,3.61-8.57,0-8.82-12.01-8.82-18.65,0-7.64,.25-20.08,9.24-20.08,2.69,0,4.28,1.01,5.96,3.11v-2.52h4.79v37.55h-4.79Zm-4.79-34.36c-5.46,0-5.54,9.58-5.54,13.36,0,3.11,0,6.05,.25,9.07,.34,3.28,.84,8.65,5.21,8.65,1.26,0,2.18-.34,3.02-1.26,2.35-2.35,2.35-11.17,2.35-14.45,0-7.48-.42-15.37-5.29-15.37Z"></path> <path class="cls-2" d="M658.58,36.09c1.68-2.1,3.28-3.11,6.05-3.11,9.16,0,9.24,11.93,9.24,18.65,0,8.06-.25,20.08-8.82,20.08-2.94,0-4.7-1.43-6.47-3.61v3.02h-4.7V9.89h4.7v26.21Zm4.87,.67c-4.87,0-5.29,7.9-5.29,15.37,0,3.28,0,12.1,2.35,14.45,.84,.92,1.76,1.26,3.02,1.26,4.37,0,4.87-5.38,5.21-8.65,.25-2.94,.25-5.88,.25-8.82,0-3.78-.08-13.61-5.54-13.61Z"></path> <path class="cls-2" d="M683.19,25.26c-1.93,0-3.53-1.6-3.53-3.44,0-2.02,1.51-3.61,3.53-3.61s3.44,1.68,3.44,3.61-1.51,3.44-3.44,3.44Zm-2.44,45.86V33.57h4.79v37.55h-4.79Z"></path> <path class="cls-2" d="M708.05,41.22c-1.68-2.02-3.78-3.86-6.47-3.86s-4.62,2.27-4.62,4.96c0,7.31,12.1,8.65,12.1,18.82,0,5.8-4.12,10.58-10.08,10.58-2.52,0-4.96-1.01-6.97-2.6v-5.54c1.85,1.93,3.95,3.7,6.64,3.7,3.36,0,5.46-2.69,5.46-5.8,0-7.39-12.1-9.91-12.1-18.98,0-5.46,3.86-9.49,9.32-9.49,2.52,0,4.62,.92,6.72,2.44v5.8Z"></path> <path class="cls-2" d="M66.47,187.12h-4.7v-27.8c0-3.11-.5-6.47-4.37-6.47-5.46,0-5.71,6.13-5.71,10.25v24.02h-4.79v-27.72c0-2.77-.25-6.55-3.95-6.55-5.88,0-6.05,6.64-6.05,11v23.27h-4.7v-37.55h4.7v3.11c2.02-2.1,4.28-3.7,7.31-3.7,3.19,0,5.46,1.6,6.89,4.37,2.02-2.69,4.2-4.37,7.73-4.37,6.05,0,7.64,3.95,7.64,9.32v28.81Z"></path> <path class="cls-2" d="M84.45,187.71c-9.66,0-11-12.1-11-19.4s1.34-19.32,11-19.32,10.5,12.35,10.5,19.57-.84,19.15-10.5,19.15Zm-.08-34.36c-5.8,0-5.96,11.42-5.96,15.37s.25,14.53,5.96,14.53,5.71-11.17,5.71-14.95-.17-14.95-5.71-14.95Z"></path> <path class="cls-2" d="M116.2,157.22c-1.68-2.02-3.78-3.86-6.47-3.86s-4.62,2.27-4.62,4.96c0,7.31,12.1,8.65,12.1,18.82,0,5.8-4.12,10.58-10.08,10.58-2.52,0-4.96-1.01-6.97-2.6v-5.54c1.85,1.93,3.95,3.7,6.64,3.7,3.36,0,5.46-2.69,5.46-5.8,0-7.39-12.1-9.91-12.1-18.98,0-5.46,3.86-9.49,9.32-9.49,2.52,0,4.62,.92,6.72,2.44v5.8Z"></path> <path class="cls-2" d="M129.05,153.94v33.18h-4.7v-33.18h-4.03v-4.37h4.03v-10.67h4.7v10.67h6.3v4.37h-6.3Z"></path> <path class="cls-2" d="M159.21,187.12v-61.24h4.79v61.24h-4.79Z"></path> <path class="cls-2" d="M174.74,141.26c-1.93,0-3.53-1.6-3.53-3.44,0-2.02,1.51-3.61,3.53-3.61s3.44,1.68,3.44,3.61-1.51,3.44-3.44,3.44Zm-2.44,45.86v-37.55h4.79v37.55h-4.79Z"></path> <path class="cls-2" d="M201.79,187.12l-11.68-17.98v17.98h-4.7v-61.24h4.7v38.98l9.41-15.29h5.29l-10.75,16.8,13.69,20.75h-5.96Z"></path> <path class="cls-2" d="M228.67,174.35c-.25,6.05-2.1,13.36-9.49,13.36-9.66,0-10.92-12.01-10.92-19.24,0-6.8,1.43-19.49,10.58-19.49s10.16,11.34,10.16,17.98c0,.76-.08,1.6-.08,2.35h-15.88v.84c0,3.78,.59,13.1,5.96,13.1,4.2,0,4.79-5.71,4.87-8.9h4.79Zm-4.37-9.07c-.17-3.36-.59-11.93-5.38-11.93s-5.63,8.48-5.8,11.93h11.17Z"></path> <path class="cls-2" d="M235.98,187.12v-61.24h4.79v61.24h-4.79Z"></path> <path class="cls-2" d="M255.3,202.24h-5.04l4.2-16.13-8.9-36.54h4.79l4.7,20.83c.76,3.11,1.34,6.3,1.76,9.41,.34-2.35,.92-4.62,1.51-7.06l5.46-23.18h4.96l-13.44,52.67Z"></path> <path class="cls-2" d="M304.1,154.45c-6.3,0-6.38,5.04-6.38,9.91v22.76h-4.7v-37.55h4.7v4.87c1.26-2.77,3.11-5.29,6.38-5.46v5.46Z"></path> <path class="cls-2" d="M327.87,174.35c-.25,6.05-2.1,13.36-9.49,13.36-9.66,0-10.92-12.01-10.92-19.24,0-6.8,1.43-19.49,10.58-19.49s10.16,11.34,10.16,17.98c0,.76-.08,1.6-.08,2.35h-15.88v.84c0,3.78,.59,13.1,5.96,13.1,4.2,0,4.79-5.71,4.87-8.9h4.79Zm-4.37-9.07c-.17-3.36-.59-11.93-5.38-11.93s-5.63,8.48-5.8,11.93h11.17Z"></path> <path class="cls-2" d="M349.37,157.22c-1.68-2.02-3.78-3.86-6.47-3.86s-4.62,2.27-4.62,4.96c0,7.31,12.1,8.65,12.1,18.82,0,5.8-4.12,10.58-10.08,10.58-2.52,0-4.96-1.01-6.97-2.6v-5.54c1.85,1.93,3.95,3.7,6.64,3.7,3.36,0,5.46-2.69,5.46-5.8,0-7.39-12.1-9.91-12.1-18.98,0-5.46,3.86-9.49,9.32-9.49,2.52,0,4.62,.92,6.72,2.44v5.8Z"></path> <path class="cls-2" d="M358.45,141.26c-1.93,0-3.53-1.6-3.53-3.44,0-2.02,1.51-3.61,3.53-3.61s3.44,1.68,3.44,3.61-1.51,3.44-3.44,3.44Zm-2.44,45.86v-37.55h4.79v37.55h-4.79Z"></path> <path class="cls-2" d="M382.97,187.12v-3.02c-1.68,2.27-3.53,3.61-6.47,3.61-8.65,0-8.82-12.52-8.82-19.07,0-7.31,0-19.66,9.32-19.66,2.69,0,4.28,1.01,5.96,3.11v-26.21h4.7v61.24h-4.7Zm-4.87-34.36c-5.38,0-5.46,9.66-5.46,13.36,0,3.11,0,6.05,.25,9.07,.25,3.28,.76,8.65,5.12,8.65,1.26,0,2.27-.34,3.11-1.26,2.27-2.27,2.27-11.09,2.27-14.2,0-7.9-.42-15.62-5.29-15.62Z"></path> <path class="cls-2" d="M415.06,174.35c-.25,6.05-2.1,13.36-9.49,13.36-9.66,0-10.92-12.01-10.92-19.24,0-6.8,1.43-19.49,10.58-19.49s10.16,11.34,10.16,17.98c0,.76-.08,1.6-.08,2.35h-15.88v.84c0,3.78,.59,13.1,5.96,13.1,4.2,0,4.79-5.71,4.87-8.9h4.79Zm-4.37-9.07c-.17-3.36-.59-11.93-5.38-11.93s-5.63,8.48-5.8,11.93h11.17Z"></path> <path class="cls-2" d="M436.56,157.22c-1.68-2.02-3.78-3.86-6.47-3.86s-4.62,2.27-4.62,4.96c0,7.31,12.1,8.65,12.1,18.82,0,5.8-4.12,10.58-10.08,10.58-2.52,0-4.96-1.01-6.97-2.6v-5.54c1.85,1.93,3.95,3.7,6.64,3.7,3.36,0,5.46-2.69,5.46-5.8,0-7.39-12.1-9.91-12.1-18.98,0-5.46,3.86-9.49,9.32-9.49,2.52,0,4.62,.92,6.72,2.44v5.8Z"></path> <path class="cls-2" d="M465.21,141.26c-1.93,0-3.53-1.6-3.53-3.44,0-2.02,1.51-3.61,3.53-3.61s3.44,1.68,3.44,3.61-1.51,3.44-3.44,3.44Zm-2.44,45.86v-37.55h4.79v37.55h-4.79Z"></path> <path class="cls-2" d="M490.49,187.12v-27.3c0-3.02-.08-6.97-4.2-6.97-1.76,0-3.53,.92-4.45,2.44-1.26,1.85-1.26,4.37-1.26,6.55v25.28h-4.7v-37.55h4.7v3.02c1.85-2.1,4.37-3.61,7.31-3.61,6.3,0,7.31,5.21,7.31,10.33v27.8h-4.7Z"></path> <path class="cls-2" d="M529.3,153.94v33.18h-4.7v-33.18h-4.03v-4.37h4.03v-10.67h4.7v10.67h6.3v4.37h-6.3Z"></path> <path class="cls-2" d="M558.69,174.35c-.25,6.05-2.1,13.36-9.49,13.36-9.66,0-10.92-12.01-10.92-19.24,0-6.8,1.43-19.49,10.58-19.49s10.16,11.34,10.16,17.98c0,.76-.08,1.6-.08,2.35h-15.88v.84c0,3.78,.59,13.1,5.96,13.1,4.2,0,4.79-5.71,4.87-8.9h4.79Zm-4.37-9.07c-.17-3.36-.59-11.93-5.38-11.93s-5.63,8.48-5.8,11.93h11.17Z"></path> <path class="cls-2" d="M577.09,154.45c-6.3,0-6.38,5.04-6.38,9.91v22.76h-4.7v-37.55h4.7v4.87c1.26-2.77,3.11-5.29,6.38-5.46v5.46Z"></path> <path class="cls-2" d="M587.08,152.09c1.6-2.1,3.28-3.11,5.96-3.11,9.24,0,9.32,11.84,9.32,18.65,0,8.06-.25,20.08-8.82,20.08-2.94,0-4.7-1.43-6.47-3.61v18.14h-4.7v-52.67h4.7v2.52Zm4.87,.67c-4.87,0-5.29,7.9-5.29,15.37,0,3.28,0,12.1,2.35,14.45,.84,.92,1.76,1.26,3.02,1.26,4.37,0,4.87-5.38,5.21-8.65,.25-2.94,.25-5.88,.25-8.82,0-3.78-.08-13.61-5.54-13.61Z"></path> <path class="cls-2" d="M628.33,174.35c-.25,6.05-2.1,13.36-9.49,13.36-9.66,0-10.92-12.01-10.92-19.24,0-6.8,1.43-19.49,10.58-19.49s10.16,11.34,10.16,17.98c0,.76-.08,1.6-.08,2.35h-15.88v.84c0,3.78,.59,13.1,5.96,13.1,4.2,0,4.79-5.71,4.87-8.9h4.79Zm-4.37-9.07c-.17-3.36-.59-11.93-5.38-11.93s-5.63,8.48-5.8,11.93h11.17Z"></path> <path class="cls-2" d="M650.25,187.12v-27.3c0-3.02-.08-6.97-4.2-6.97-1.76,0-3.53,.92-4.45,2.44-1.26,1.85-1.26,4.37-1.26,6.55v25.28h-4.7v-37.55h4.7v3.02c1.85-2.1,4.37-3.61,7.31-3.61,6.3,0,7.31,5.21,7.31,10.33v27.8h-4.7Z"></path> <path class="cls-2" d="M682.34,174.35c-.25,6.05-2.1,13.36-9.49,13.36-9.66,0-10.92-12.01-10.92-19.24,0-6.8,1.43-19.49,10.58-19.49s10.16,11.34,10.16,17.98c0,.76-.08,1.6-.08,2.35h-15.88v.84c0,3.78,.59,13.1,5.96,13.1,4.2,0,4.79-5.71,4.87-8.9h4.79Zm-4.37-9.07c-.17-3.36-.59-11.93-5.38-11.93s-5.63,8.48-5.8,11.93h11.17Z"></path> <path class="cls-2" d="M703.84,157.22c-1.68-2.02-3.78-3.86-6.47-3.86s-4.62,2.27-4.62,4.96c0,7.31,12.1,8.65,12.1,18.82,0,5.8-4.12,10.58-10.08,10.58-2.52,0-4.96-1.01-6.97-2.6v-5.54c1.85,1.93,3.95,3.7,6.64,3.7,3.36,0,5.46-2.69,5.46-5.8,0-7.39-12.1-9.91-12.1-18.98,0-5.46,3.86-9.49,9.32-9.49,2.52,0,4.62,.92,6.72,2.44v5.8Z"></path> <path class="cls-2" d="M707.96,201.65h-4.87l32.84-75.77h4.79l-32.76,75.77Z"></path> <path class="cls-2" d="M744.83,167.55v-4.87h11.59v4.87h-11.59Z"></path> <path class="cls-2" d="M38.33,269.94v33.18h-4.7v-33.18h-4.03v-4.37h4.03v-10.67h4.7v10.67h6.3v4.37h-6.3Z"></path> <path class="cls-2" d="M67.73,290.35c-.25,6.05-2.1,13.36-9.49,13.36-9.66,0-10.92-12.01-10.92-19.24,0-6.8,1.43-19.49,10.58-19.49s10.16,11.34,10.16,17.98c0,.76-.08,1.6-.08,2.35h-15.88v.84c0,3.78,.59,13.1,5.96,13.1,4.2,0,4.79-5.71,4.87-8.9h4.79Zm-4.37-9.07c-.17-3.36-.59-11.93-5.38-11.93s-5.63,8.48-5.8,11.93h11.17Z"></path> <path class="cls-2" d="M86.13,270.45c-6.3,0-6.38,5.04-6.38,9.91v22.76h-4.7v-37.55h4.7v4.87c1.26-2.77,3.11-5.29,6.38-5.46v5.46Z"></path> <path class="cls-2" d="M96.12,268.09c1.6-2.1,3.28-3.11,5.96-3.11,9.24,0,9.32,11.84,9.32,18.65,0,8.06-.25,20.08-8.82,20.08-2.94,0-4.7-1.43-6.47-3.61v18.14h-4.7v-52.67h4.7v2.52Zm4.87,.67c-4.87,0-5.29,7.9-5.29,15.37,0,3.28,0,12.1,2.35,14.45,.84,.92,1.76,1.26,3.02,1.26,4.37,0,4.87-5.38,5.21-8.65,.25-2.94,.25-5.88,.25-8.82,0-3.78-.08-13.61-5.54-13.61Z"></path> <path class="cls-2" d="M137.36,290.35c-.25,6.05-2.1,13.36-9.49,13.36-9.66,0-10.92-12.01-10.92-19.24,0-6.8,1.43-19.49,10.58-19.49s10.16,11.34,10.16,17.98c0,.76-.08,1.6-.08,2.35h-15.88v.84c0,3.78,.59,13.1,5.96,13.1,4.2,0,4.79-5.71,4.87-8.9h4.79Zm-4.37-9.07c-.17-3.36-.59-11.93-5.38-11.93s-5.63,8.48-5.8,11.93h11.17Z"></path> <path class="cls-2" d="M159.29,303.12v-27.3c0-3.02-.08-6.97-4.2-6.97-1.76,0-3.53,.92-4.45,2.44-1.26,1.85-1.26,4.37-1.26,6.55v25.28h-4.7v-37.55h4.7v3.02c1.85-2.1,4.37-3.61,7.31-3.61,6.3,0,7.31,5.21,7.31,10.33v27.8h-4.7Z"></path> <path class="cls-2" d="M181.97,303.71c-9.66,0-11-12.1-11-19.4s1.34-19.32,11-19.32,10.5,12.35,10.5,19.57-.84,19.15-10.5,19.15Zm-.08-34.36c-5.8,0-5.96,11.42-5.96,15.37s.25,14.53,5.96,14.53,5.71-11.17,5.71-14.95-.17-14.95-5.71-14.95Z"></path> <path class="cls-2" d="M201.87,257.26c-1.93,0-3.53-1.6-3.53-3.44,0-2.02,1.51-3.61,3.53-3.61s3.44,1.68,3.44,3.61-1.51,3.44-3.44,3.44Zm-2.44,45.86v-37.55h4.79v37.55h-4.79Z"></path> <path class="cls-2" d="M226.4,303.12v-3.02c-1.68,2.27-3.53,3.61-6.47,3.61-8.65,0-8.82-12.52-8.82-19.07,0-7.31,0-19.66,9.32-19.66,2.69,0,4.28,1.01,5.96,3.11v-26.21h4.7v61.24h-4.7Zm-4.87-34.36c-5.38,0-5.46,9.66-5.46,13.36,0,3.11,0,6.05,.25,9.07,.25,3.28,.76,8.65,5.12,8.65,1.26,0,2.27-.34,3.11-1.26,2.27-2.27,2.27-11.09,2.27-14.2,0-7.9-.42-15.62-5.29-15.62Z"></path> <path class="cls-2" d="M253.7,273.22c-1.68-2.02-3.78-3.86-6.47-3.86s-4.62,2.27-4.62,4.96c0,7.31,12.1,8.65,12.1,18.82,0,5.8-4.12,10.58-10.08,10.58-2.52,0-4.96-1.01-6.97-2.6v-5.54c1.85,1.93,3.95,3.7,6.64,3.7,3.36,0,5.46-2.69,5.46-5.8,0-7.39-12.1-9.91-12.1-18.98,0-5.46,3.86-9.49,9.32-9.49,2.52,0,4.62,.92,6.72,2.44v5.8Z"></path> <path class="cls-2" d="M294.27,303.12v-3.02c-1.68,2.27-3.44,3.61-6.38,3.61-8.57,0-8.82-12.01-8.82-18.65,0-7.64,.25-20.08,9.24-20.08,2.69,0,4.28,1.01,5.96,3.11v-2.52h4.79v37.55h-4.79Zm-4.79-34.36c-5.46,0-5.54,9.58-5.54,13.36,0,3.11,0,6.05,.25,9.07,.34,3.28,.84,8.65,5.21,8.65,1.26,0,2.18-.34,3.02-1.26,2.35-2.35,2.35-11.17,2.35-14.45,0-7.48-.42-15.37-5.29-15.37Z"></path> <path class="cls-2" d="M322.08,303.12v-27.3c0-3.02-.08-6.97-4.2-6.97-1.76,0-3.53,.92-4.45,2.44-1.26,1.85-1.26,4.37-1.26,6.55v25.28h-4.7v-37.55h4.7v3.02c1.85-2.1,4.37-3.61,7.31-3.61,6.3,0,7.31,5.21,7.31,10.33v27.8h-4.7Z"></path> <path class="cls-2" d="M349.04,303.12v-3.02c-1.68,2.27-3.53,3.61-6.47,3.61-8.65,0-8.82-12.52-8.82-19.07,0-7.31,0-19.66,9.32-19.66,2.69,0,4.28,1.01,5.96,3.11v-26.21h4.7v61.24h-4.7Zm-4.87-34.36c-5.38,0-5.46,9.66-5.46,13.36,0,3.11,0,6.05,.25,9.07,.25,3.28,.76,8.65,5.12,8.65,1.26,0,2.27-.34,3.11-1.26,2.27-2.27,2.27-11.09,2.27-14.2,0-7.9-.42-15.62-5.29-15.62Z"></path> <path class="cls-2" d="M386.42,268.09c1.6-2.1,3.28-3.11,5.96-3.11,9.24,0,9.32,11.84,9.32,18.65,0,8.06-.25,20.08-8.82,20.08-2.94,0-4.7-1.43-6.47-3.61v18.14h-4.7v-52.67h4.7v2.52Zm4.87,.67c-4.87,0-5.29,7.9-5.29,15.37,0,3.28,0,12.1,2.35,14.45,.84,.92,1.76,1.26,3.02,1.26,4.37,0,4.87-5.38,5.21-8.65,.25-2.94,.25-5.88,.25-8.82,0-3.78-.08-13.61-5.54-13.61Z"></path> <path class="cls-2" d="M423.29,303.12v-27.3c0-3.02-.08-6.97-4.2-6.97-1.76,0-3.53,.92-4.45,2.44-1.26,1.93-1.26,4.37-1.26,6.55v25.28h-4.7v-61.24h4.7v26.71c1.85-2.1,4.37-3.61,7.31-3.61,6.13,0,7.31,4.37,7.31,9.66v28.48h-4.7Z"></path> <path class="cls-2" d="M442.11,318.24h-5.04l4.2-16.13-8.9-36.54h4.79l4.7,20.83c.76,3.11,1.34,6.3,1.76,9.41,.34-2.35,.92-4.62,1.51-7.06l5.46-23.18h4.96l-13.44,52.67Z"></path> <path class="cls-2" d="M467.06,269.94v33.18h-4.7v-33.18h-4.03v-4.37h4.03v-10.67h4.7v10.67h6.3v4.37h-6.3Z"></path> <path class="cls-2" d="M487.13,303.71c-9.66,0-11-12.1-11-19.4s1.34-19.32,11-19.32,10.5,12.35,10.5,19.57-.84,19.15-10.5,19.15Zm-.08-34.36c-5.8,0-5.96,11.42-5.96,15.37s.25,14.53,5.96,14.53,5.71-11.17,5.71-14.95-.17-14.95-5.71-14.95Z"></path> <path class="cls-2" d="M519.47,301.78c-1.51,1.18-3.53,1.93-5.38,1.93-8.82,0-10.84-12.01-10.84-18.73,0-7.14,1.51-19.99,11.09-19.99,1.76,0,3.53,.5,5.12,1.43v5.54c-1.26-1.34-2.77-2.6-4.7-2.6-5.96,0-6.55,11-6.55,15.2s.76,14.7,6.47,14.7c2.1,0,3.7-1.76,4.79-3.36v5.88Z"></path> <path class="cls-2" d="M539.63,303.12v-3.02c-1.68,2.27-3.44,3.61-6.38,3.61-8.57,0-8.82-12.01-8.82-18.65,0-7.64,.25-20.08,9.24-20.08,2.69,0,4.28,1.01,5.96,3.11v-2.52h4.79v37.55h-4.79Zm-4.79-34.36c-5.46,0-5.54,9.58-5.54,13.36,0,3.11,0,6.05,.25,9.07,.34,3.28,.84,8.65,5.21,8.65,1.26,0,2.18-.34,3.02-1.26,2.35-2.35,2.35-11.17,2.35-14.45,0-7.48-.42-15.37-5.29-15.37Z"></path> <path class="cls-2" d="M567.43,303.12v-27.3c0-3.02-.08-6.97-4.2-6.97-1.76,0-3.53,.92-4.45,2.44-1.26,1.85-1.26,4.37-1.26,6.55v25.28h-4.7v-37.55h4.7v3.02c1.85-2.1,4.37-3.61,7.31-3.61,6.3,0,7.31,5.21,7.31,10.33v27.8h-4.7Z"></path> <path class="cls-2" d="M595.15,303.12v-27.3c0-3.02-.08-6.97-4.2-6.97-1.76,0-3.53,.92-4.45,2.44-1.26,1.85-1.26,4.37-1.26,6.55v25.28h-4.7v-37.55h4.7v3.02c1.85-2.1,4.37-3.61,7.31-3.61,6.3,0,7.31,5.21,7.31,10.33v27.8h-4.7Z"></path> <path class="cls-2" d="M622.53,303.12v-3.02c-1.68,2.27-3.44,3.61-6.38,3.61-8.57,0-8.82-12.01-8.82-18.65,0-7.64,.25-20.08,9.24-20.08,2.69,0,4.28,1.01,5.96,3.11v-2.52h4.79v37.55h-4.79Zm-4.79-34.36c-5.46,0-5.54,9.58-5.54,13.36,0,3.11,0,6.05,.25,9.07,.34,3.28,.84,8.65,5.21,8.65,1.26,0,2.18-.34,3.02-1.26,2.35-2.35,2.35-11.17,2.35-14.45,0-7.48-.42-15.37-5.29-15.37Z"></path> <path class="cls-2" d="M640.43,268.09c1.68-2.1,3.28-3.11,6.05-3.11,9.16,0,9.24,11.93,9.24,18.65,0,8.06-.25,20.08-8.82,20.08-2.94,0-4.7-1.43-6.47-3.61v3.02h-4.7v-61.24h4.7v26.21Zm4.87,.67c-4.87,0-5.29,7.9-5.29,15.37,0,3.28,0,12.1,2.35,14.45,.84,.92,1.76,1.26,3.02,1.26,4.37,0,4.87-5.38,5.21-8.65,.25-2.94,.25-5.88,.25-8.82,0-3.78-.08-13.61-5.54-13.61Z"></path> <path class="cls-2" d="M665.04,257.26c-1.93,0-3.53-1.6-3.53-3.44,0-2.02,1.51-3.61,3.53-3.61s3.44,1.68,3.44,3.61-1.51,3.44-3.44,3.44Zm-2.44,45.86v-37.55h4.79v37.55h-4.79Z"></path> <path class="cls-2" d="M690.32,303.12v-27.3c0-3.02-.08-6.97-4.2-6.97-1.76,0-3.53,.92-4.45,2.44-1.26,1.85-1.26,4.37-1.26,6.55v25.28h-4.7v-37.55h4.7v3.02c1.85-2.1,4.37-3.61,7.31-3.61,6.3,0,7.31,5.21,7.31,10.33v27.8h-4.7Z"></path> <path class="cls-2" d="M713,303.71c-9.66,0-11-12.1-11-19.4s1.34-19.32,11-19.32,10.5,12.35,10.5,19.57-.84,19.15-10.5,19.15Zm-.08-34.36c-5.8,0-5.96,11.42-5.96,15.37s.25,14.53,5.96,14.53,5.71-11.17,5.71-14.95-.17-14.95-5.71-14.95Z"></path> <path class="cls-2" d="M732.91,257.26c-1.93,0-3.53-1.6-3.53-3.44,0-2.02,1.51-3.61,3.53-3.61s3.44,1.68,3.44,3.61-1.51,3.44-3.44,3.44Zm-2.44,45.86v-37.55h4.79v37.55h-4.79Z"></path> <path class="cls-2" d="M757.44,303.12v-3.02c-1.68,2.27-3.53,3.61-6.47,3.61-8.65,0-8.82-12.52-8.82-19.07,0-7.31,0-19.66,9.32-19.66,2.69,0,4.28,1.01,5.96,3.11v-26.21h4.7v61.24h-4.7Zm-4.87-34.36c-5.38,0-5.46,9.66-5.46,13.36,0,3.11,0,6.05,.25,9.07,.25,3.28,.76,8.65,5.12,8.65,1.26,0,2.27-.34,3.11-1.26,2.27-2.27,2.27-11.09,2.27-14.2,0-7.9-.42-15.62-5.29-15.62Z"></path> <path class="cls-2" d="M784.74,273.22c-1.68-2.02-3.78-3.86-6.47-3.86s-4.62,2.27-4.62,4.96c0,7.31,12.1,8.65,12.1,18.82,0,5.8-4.12,10.58-10.08,10.58-2.52,0-4.96-1.01-6.97-2.6v-5.54c1.85,1.93,3.95,3.7,6.64,3.7,3.36,0,5.46-2.69,5.46-5.8,0-7.39-12.1-9.91-12.1-18.98,0-5.46,3.86-9.49,9.32-9.49,2.52,0,4.62,.92,6.72,2.44v5.8Z"></path> <path class="cls-2" d="M791.37,315.05l-3.61-1.68,5.8-17.22,5.21,2.35-7.39,16.55Z"></path> <path class="cls-2" d="M41.78,419.71c-9.66,0-11-12.1-11-19.4s1.34-19.32,11-19.32,10.5,12.35,10.5,19.57-.84,19.15-10.5,19.15Zm-.08-34.36c-5.8,0-5.96,11.42-5.96,15.37s.25,14.53,5.96,14.53,5.71-11.17,5.71-14.95-.17-14.95-5.71-14.95Z"></path> <path class="cls-2" d="M65.46,385.94v33.18h-4.7v-33.18h-4.28v-4.37h4.28v-15.04c0-4.79,1.26-9.58,6.97-9.58,1.43,0,2.86,.25,4.2,.84v5.21c-1.01-.84-2.1-1.68-3.44-1.68-2.77,0-3.02,2.52-3.02,4.62v15.62h6.47v4.37h-6.47Z"></path> <path class="cls-2" d="M119.64,419.12h-4.87c-1.6-10.42-3.44-20.83-4.79-31.25-.34,2.02-.42,3.86-.76,5.88l-4.12,25.37h-4.87l-7.56-37.55h4.79l4.2,22.76c.5,2.6,.84,5.29,1.09,7.9,.17-2.52,.67-5.12,1.09-7.73l3.78-22.93h4.87c1.6,10.16,3.53,20.41,4.7,30.66,.42-2.6,.76-5.29,1.26-7.98l4.62-22.68h4.79l-8.23,37.55Z"></path> <path class="cls-2" d="M147.53,419.12v-27.3c0-3.02-.08-6.97-4.2-6.97-1.76,0-3.53,.92-4.45,2.44-1.26,1.93-1.26,4.37-1.26,6.55v25.28h-4.7v-61.24h4.7v26.71c1.85-2.1,4.37-3.61,7.31-3.61,6.13,0,7.31,4.37,7.31,9.66v28.48h-4.7Z"></path> <path class="cls-2" d="M162.99,373.26c-1.93,0-3.53-1.6-3.53-3.44,0-2.02,1.51-3.61,3.53-3.61s3.44,1.68,3.44,3.61-1.51,3.44-3.44,3.44Zm-2.44,45.86v-37.55h4.79v37.55h-4.79Z"></path> <path class="cls-2" d="M188.44,417.78c-1.51,1.18-3.53,1.93-5.38,1.93-8.82,0-10.84-12.01-10.84-18.73,0-7.14,1.51-19.99,11.09-19.99,1.76,0,3.53,.5,5.12,1.43v5.54c-1.26-1.34-2.77-2.6-4.7-2.6-5.96,0-6.55,11-6.55,15.2s.76,14.7,6.47,14.7c2.1,0,3.7-1.76,4.79-3.36v5.88Z"></path> <path class="cls-2" d="M208.6,419.12v-27.3c0-3.02-.08-6.97-4.2-6.97-1.76,0-3.53,.92-4.45,2.44-1.26,1.93-1.26,4.37-1.26,6.55v25.28h-4.7v-61.24h4.7v26.71c1.85-2.1,4.37-3.61,7.31-3.61,6.13,0,7.31,4.37,7.31,9.66v28.48h-4.7Z"></path> <path class="cls-2" d="M245.97,384.09c1.6-2.1,3.28-3.11,5.96-3.11,9.24,0,9.32,11.84,9.32,18.65,0,8.06-.25,20.08-8.82,20.08-2.94,0-4.7-1.43-6.47-3.61v18.14h-4.7v-52.67h4.7v2.52Zm4.87,.67c-4.87,0-5.29,7.9-5.29,15.37,0,3.28,0,12.1,2.35,14.45,.84,.92,1.76,1.26,3.02,1.26,4.37,0,4.87-5.38,5.21-8.65,.25-2.94,.25-5.88,.25-8.82,0-3.78-.08-13.61-5.54-13.61Z"></path> <path class="cls-2" d="M282.51,419.12v-3.02c-1.68,2.27-3.44,3.61-6.38,3.61-8.57,0-8.82-12.01-8.82-18.65,0-7.64,.25-20.08,9.24-20.08,2.69,0,4.28,1.01,5.96,3.11v-2.52h4.79v37.55h-4.79Zm-4.79-34.36c-5.46,0-5.54,9.58-5.54,13.36,0,3.11,0,6.05,.25,9.07,.34,3.28,.84,8.65,5.21,8.65,1.26,0,2.18-.34,3.02-1.26,2.35-2.35,2.35-11.17,2.35-14.45,0-7.48-.42-15.37-5.29-15.37Z"></path> <path class="cls-2" d="M306.79,386.45c-6.3,0-6.38,5.04-6.38,9.91v22.76h-4.7v-37.55h4.7v4.87c1.26-2.77,3.11-5.29,6.38-5.46v5.46Z"></path> <path class="cls-2" d="M319.47,385.94v33.18h-4.7v-33.18h-4.03v-4.37h4.03v-10.67h4.7v10.67h6.3v4.37h-6.3Z"></path> <path class="cls-2" d="M332.41,373.26c-1.93,0-3.53-1.6-3.53-3.44,0-2.02,1.51-3.61,3.53-3.61s3.44,1.68,3.44,3.61-1.51,3.44-3.44,3.44Zm-2.44,45.86v-37.55h4.79v37.55h-4.79Z"></path> <path class="cls-2" d="M357.86,417.78c-1.51,1.18-3.53,1.93-5.38,1.93-8.82,0-10.84-12.01-10.84-18.73,0-7.14,1.51-19.99,11.09-19.99,1.76,0,3.53,.5,5.12,1.43v5.54c-1.26-1.34-2.77-2.6-4.7-2.6-5.96,0-6.55,11-6.55,15.2s.76,14.7,6.47,14.7c2.1,0,3.7-1.76,4.79-3.36v5.88Z"></path> <path class="cls-2" d="M383.23,409.96c0,6.05-3.78,9.74-9.74,9.74s-9.74-3.7-9.74-9.74v-28.39h4.7v25.45c0,3.86,.17,8.23,5.21,8.23s4.87-5.04,4.87-8.74v-24.95h4.7v28.39Z"></path> <path class="cls-2" d="M391.62,419.12v-61.24h4.79v61.24h-4.79Z"></path> <path class="cls-2" d="M419.09,419.12v-3.02c-1.68,2.27-3.44,3.61-6.38,3.61-8.57,0-8.82-12.01-8.82-18.65,0-7.64,.25-20.08,9.24-20.08,2.69,0,4.28,1.01,5.96,3.11v-2.52h4.79v37.55h-4.79Zm-4.79-34.36c-5.46,0-5.54,9.58-5.54,13.36,0,3.11,0,6.05,.25,9.07,.34,3.28,.84,8.65,5.21,8.65,1.26,0,2.18-.34,3.02-1.26,2.35-2.35,2.35-11.17,2.35-14.45,0-7.48-.42-15.37-5.29-15.37Z"></path> <path class="cls-2" d="M443.37,386.45c-6.3,0-6.38,5.04-6.38,9.91v22.76h-4.7v-37.55h4.7v4.87c1.26-2.77,3.11-5.29,6.38-5.46v5.46Z"></path> <path class="cls-2" d="M483.01,417.78c-1.51,1.18-3.53,1.93-5.38,1.93-8.82,0-10.84-12.01-10.84-18.73,0-7.14,1.51-19.99,11.09-19.99,1.76,0,3.53,.5,5.12,1.43v5.54c-1.26-1.34-2.77-2.6-4.7-2.6-5.96,0-6.55,11-6.55,15.2s.76,14.7,6.47,14.7c2.1,0,3.7-1.76,4.79-3.36v5.88Z"></path> <path class="cls-2" d="M498.47,419.71c-9.66,0-11-12.1-11-19.4s1.34-19.32,11-19.32,10.5,12.35,10.5,19.57-.84,19.15-10.5,19.15Zm-.08-34.36c-5.8,0-5.96,11.42-5.96,15.37s.25,14.53,5.96,14.53,5.71-11.17,5.71-14.95-.17-14.95-5.71-14.95Z"></path> <path class="cls-2" d="M550.3,419.12h-4.7v-27.8c0-3.11-.5-6.47-4.37-6.47-5.46,0-5.71,6.13-5.71,10.25v24.02h-4.79v-27.72c0-2.77-.25-6.55-3.95-6.55-5.88,0-6.05,6.64-6.05,11v23.27h-4.7v-37.55h4.7v3.11c2.02-2.1,4.28-3.7,7.31-3.7,3.19,0,5.46,1.6,6.89,4.37,2.02-2.69,4.2-4.37,7.73-4.37,6.05,0,7.64,3.95,7.64,9.32v28.81Z"></path> <path class="cls-2" d="M563.15,384.09c1.6-2.1,3.28-3.11,5.96-3.11,9.24,0,9.32,11.84,9.32,18.65,0,8.06-.25,20.08-8.82,20.08-2.94,0-4.7-1.43-6.47-3.61v18.14h-4.7v-52.67h4.7v2.52Zm4.87,.67c-4.87,0-5.29,7.9-5.29,15.37,0,3.28,0,12.1,2.35,14.45,.84,.92,1.76,1.26,3.02,1.26,4.37,0,4.87-5.38,5.21-8.65,.25-2.94,.25-5.88,.25-8.82,0-3.78-.08-13.61-5.54-13.61Z"></path> <path class="cls-2" d="M594.99,419.71c-9.66,0-11-12.1-11-19.4s1.34-19.32,11-19.32,10.5,12.35,10.5,19.57-.84,19.15-10.5,19.15Zm-.08-34.36c-5.8,0-5.96,11.42-5.96,15.37s.25,14.53,5.96,14.53,5.71-11.17,5.71-14.95-.17-14.95-5.71-14.95Z"></path> <path class="cls-2" d="M632.03,409.96c0,6.05-3.78,9.74-9.74,9.74s-9.74-3.7-9.74-9.74v-28.39h4.7v25.45c0,3.86,.17,8.23,5.21,8.23s4.87-5.04,4.87-8.74v-24.95h4.7v28.39Z"></path> <path class="cls-2" d="M655.04,419.12v-27.3c0-3.02-.08-6.97-4.2-6.97-1.76,0-3.53,.92-4.45,2.44-1.26,1.85-1.26,4.37-1.26,6.55v25.28h-4.7v-37.55h4.7v3.02c1.85-2.1,4.37-3.61,7.31-3.61,6.3,0,7.31,5.21,7.31,10.33v27.8h-4.7Z"></path> <path class="cls-2" d="M682.01,419.12v-3.02c-1.68,2.27-3.53,3.61-6.47,3.61-8.65,0-8.82-12.52-8.82-19.07,0-7.31,0-19.66,9.32-19.66,2.69,0,4.28,1.01,5.96,3.11v-26.21h4.7v61.24h-4.7Zm-4.87-34.36c-5.38,0-5.46,9.66-5.46,13.36,0,3.11,0,6.05,.25,9.07,.25,3.28,.76,8.65,5.12,8.65,1.26,0,2.27-.34,3.11-1.26,2.27-2.27,2.27-11.09,2.27-14.2,0-7.9-.42-15.62-5.29-15.62Z"></path> <path class="cls-2" d="M709.31,389.22c-1.68-2.02-3.78-3.86-6.47-3.86s-4.62,2.27-4.62,4.96c0,7.31,12.1,8.65,12.1,18.82,0,5.8-4.12,10.58-10.08,10.58-2.52,0-4.96-1.01-6.97-2.6v-5.54c1.85,1.93,3.95,3.7,6.64,3.7,3.36,0,5.46-2.69,5.46-5.8,0-7.39-12.1-9.91-12.1-18.98,0-5.46,3.86-9.49,9.32-9.49,2.52,0,4.62,.92,6.72,2.44v5.8Z"></path> <path class="cls-2" d="M715.94,431.05l-3.61-1.68,5.8-17.22,5.21,2.35-7.39,16.55Z"></path> <path class="cls-2" d="M38.33,501.94v33.18h-4.7v-33.18h-4.03v-4.37h4.03v-10.67h4.7v10.67h6.3v4.37h-6.3Z"></path> <path class="cls-2" d="M63.53,535.12v-27.3c0-3.02-.08-6.97-4.2-6.97-1.76,0-3.53,.92-4.45,2.44-1.26,1.93-1.26,4.37-1.26,6.55v25.28h-4.7v-61.24h4.7v26.71c1.85-2.1,4.37-3.61,7.31-3.61,6.13,0,7.31,4.37,7.31,9.66v28.48h-4.7Z"></path> <path class="cls-2" d="M94.69,522.35c-.25,6.05-2.1,13.36-9.49,13.36-9.66,0-10.92-12.01-10.92-19.24,0-6.8,1.43-19.49,10.58-19.49s10.16,11.34,10.16,17.98c0,.76-.08,1.6-.08,2.35h-15.88v.84c0,3.78,.59,13.1,5.96,13.1,4.2,0,4.79-5.71,4.87-8.9h4.79Zm-4.37-9.07c-.17-3.36-.59-11.93-5.38-11.93s-5.63,8.48-5.8,11.93h11.17Z"></path> <path class="cls-2" d="M104.35,489.26c-1.93,0-3.53-1.6-3.53-3.44,0-2.02,1.51-3.61,3.53-3.61s3.44,1.68,3.44,3.61-1.51,3.44-3.44,3.44Zm-2.44,45.86v-37.55h4.79v37.55h-4.79Z"></path> <path class="cls-2" d="M126.11,502.45c-6.3,0-6.38,5.04-6.38,9.91v22.76h-4.7v-37.55h4.7v4.87c1.26-2.77,3.11-5.29,6.38-5.46v5.46Z"></path> <path class="cls-2" d="M165.25,535.12v-3.02c-1.68,2.27-3.44,3.61-6.38,3.61-8.57,0-8.82-12.01-8.82-18.65,0-7.64,.25-20.08,9.24-20.08,2.69,0,4.28,1.01,5.96,3.11v-2.52h4.79v37.55h-4.79Zm-4.79-34.36c-5.46,0-5.54,9.58-5.54,13.36,0,3.11,0,6.05,.25,9.07,.34,3.28,.84,8.65,5.21,8.65,1.26,0,2.18-.34,3.02-1.26,2.35-2.35,2.35-11.17,2.35-14.45,0-7.48-.42-15.37-5.29-15.37Z"></path> <path class="cls-2" d="M212.71,535.12h-4.7v-27.8c0-3.11-.5-6.47-4.37-6.47-5.46,0-5.71,6.13-5.71,10.25v24.02h-4.79v-27.72c0-2.77-.25-6.55-3.95-6.55-5.88,0-6.05,6.64-6.05,11v23.27h-4.7v-37.55h4.7v3.11c2.02-2.1,4.28-3.7,7.31-3.7,3.19,0,5.46,1.6,6.89,4.37,2.02-2.69,4.2-4.37,7.73-4.37,6.05,0,7.64,3.95,7.64,9.32v28.81Z"></path> <path class="cls-2" d="M230.69,535.71c-9.66,0-11-12.1-11-19.4s1.34-19.32,11-19.32,10.5,12.35,10.5,19.57-.84,19.15-10.5,19.15Zm-.08-34.36c-5.8,0-5.96,11.42-5.96,15.37s.25,14.53,5.96,14.53,5.71-11.17,5.71-14.95-.17-14.95-5.71-14.95Z"></path> <path class="cls-2" d="M267.73,525.96c0,6.05-3.78,9.74-9.74,9.74s-9.74-3.7-9.74-9.74v-28.39h4.7v25.45c0,3.86,.17,8.23,5.21,8.23s4.87-5.04,4.87-8.74v-24.95h4.7v28.39Z"></path> <path class="cls-2" d="M290.75,535.12v-27.3c0-3.02-.08-6.97-4.2-6.97-1.76,0-3.53,.92-4.45,2.44-1.26,1.85-1.26,4.37-1.26,6.55v25.28h-4.7v-37.55h4.7v3.02c1.85-2.1,4.37-3.61,7.31-3.61,6.3,0,7.31,5.21,7.31,10.33v27.8h-4.7Z"></path> <path class="cls-2" d="M309.98,501.94v33.18h-4.7v-33.18h-4.03v-4.37h4.03v-10.67h4.7v10.67h6.3v4.37h-6.3Z"></path> <path class="cls-2" d="M320.48,547.05l-3.61-1.68,5.8-17.22,5.21,2.35-7.39,16.55Z"></path> <path class="cls-2" d="M369.28,535.12v-3.02c-1.68,2.27-3.44,3.61-6.38,3.61-8.57,0-8.82-12.01-8.82-18.65,0-7.64,.25-20.08,9.24-20.08,2.69,0,4.28,1.01,5.96,3.11v-2.52h4.79v37.55h-4.79Zm-4.79-34.36c-5.46,0-5.54,9.58-5.54,13.36,0,3.11,0,6.05,.25,9.07,.34,3.28,.84,8.65,5.21,8.65,1.26,0,2.18-.34,3.02-1.26,2.35-2.35,2.35-11.17,2.35-14.45,0-7.48-.42-15.37-5.29-15.37Z"></path> <path class="cls-2" d="M397.09,535.12v-27.3c0-3.02-.08-6.97-4.2-6.97-1.76,0-3.53,.92-4.45,2.44-1.26,1.85-1.26,4.37-1.26,6.55v25.28h-4.7v-37.55h4.7v3.02c1.85-2.1,4.37-3.61,7.31-3.61,6.3,0,7.31,5.21,7.31,10.33v27.8h-4.7Z"></path> <path class="cls-2" d="M424.05,535.12v-3.02c-1.68,2.27-3.53,3.61-6.47,3.61-8.65,0-8.82-12.52-8.82-19.07,0-7.31,0-19.66,9.32-19.66,2.69,0,4.28,1.01,5.96,3.11v-26.21h4.7v61.24h-4.7Zm-4.87-34.36c-5.38,0-5.46,9.66-5.46,13.36,0,3.11,0,6.05,.25,9.07,.25,3.28,.76,8.65,5.12,8.65,1.26,0,2.27-.34,3.11-1.26,2.27-2.27,2.27-11.09,2.27-14.2,0-7.9-.42-15.62-5.29-15.62Z"></path> <path class="cls-2" d="M462.86,501.94v33.18h-4.7v-33.18h-4.03v-4.37h4.03v-10.67h4.7v10.67h6.3v4.37h-6.3Z"></path> <path class="cls-2" d="M488.05,535.12v-27.3c0-3.02-.08-6.97-4.2-6.97-1.76,0-3.53,.92-4.45,2.44-1.26,1.93-1.26,4.37-1.26,6.55v25.28h-4.7v-61.24h4.7v26.71c1.85-2.1,4.37-3.61,7.31-3.61,6.13,0,7.31,4.37,7.31,9.66v28.48h-4.7Z"></path> <path class="cls-2" d="M519.22,522.35c-.25,6.05-2.1,13.36-9.49,13.36-9.66,0-10.92-12.01-10.92-19.24,0-6.8,1.43-19.49,10.58-19.49s10.16,11.34,10.16,17.98c0,.76-.08,1.6-.08,2.35h-15.88v.84c0,3.78,.59,13.1,5.96,13.1,4.2,0,4.79-5.71,4.87-8.9h4.79Zm-4.37-9.07c-.17-3.36-.59-11.93-5.38-11.93s-5.63,8.48-5.8,11.93h11.17Z"></path> <path class="cls-2" d="M557.18,502.45c-6.3,0-6.38,5.04-6.38,9.91v22.76h-4.7v-37.55h4.7v4.87c1.26-2.77,3.11-5.29,6.38-5.46v5.46Z"></path> <path class="cls-2" d="M576.5,535.12v-3.02c-1.68,2.27-3.44,3.61-6.38,3.61-8.57,0-8.82-12.01-8.82-18.65,0-7.64,.25-20.08,9.24-20.08,2.69,0,4.28,1.01,5.96,3.11v-2.52h4.79v37.55h-4.79Zm-4.79-34.36c-5.46,0-5.54,9.58-5.54,13.36,0,3.11,0,6.05,.25,9.07,.34,3.28,.84,8.65,5.21,8.65,1.26,0,2.18-.34,3.02-1.26,2.35-2.35,2.35-11.17,2.35-14.45,0-7.48-.42-15.37-5.29-15.37Z"></path> <path class="cls-2" d="M595.82,501.94v33.18h-4.7v-33.18h-4.03v-4.37h4.03v-10.67h4.7v10.67h6.3v4.37h-6.3Z"></path> <path class="cls-2" d="M608.76,489.26c-1.93,0-3.53-1.6-3.53-3.44,0-2.02,1.51-3.61,3.53-3.61s3.44,1.68,3.44,3.61-1.51,3.44-3.44,3.44Zm-2.44,45.86v-37.55h4.79v37.55h-4.79Z"></path> <path class="cls-2" d="M629,535.71c-9.66,0-11-12.1-11-19.4s1.34-19.32,11-19.32,10.5,12.35,10.5,19.57-.84,19.15-10.5,19.15Zm-.08-34.36c-5.8,0-5.96,11.42-5.96,15.37s.25,14.53,5.96,14.53,5.71-11.17,5.71-14.95-.17-14.95-5.71-14.95Z"></path> <path class="cls-2" d="M672.26,501.94v33.18h-4.7v-33.18h-4.03v-4.37h4.03v-10.67h4.7v10.67h6.3v4.37h-6.3Z"></path> <path class="cls-2" d="M692.34,535.71c-9.66,0-11-12.1-11-19.4s1.34-19.32,11-19.32,10.5,12.35,10.5,19.57-.84,19.15-10.5,19.15Zm-.08-34.36c-5.8,0-5.96,11.42-5.96,15.37s.25,14.53,5.96,14.53,5.71-11.17,5.71-14.95-.17-14.95-5.71-14.95Z"></path> <path class="cls-2" d="M51.18,638.35c-.25,6.05-2.1,13.36-9.49,13.36-9.66,0-10.92-12.01-10.92-19.24,0-6.8,1.43-19.49,10.58-19.49s10.16,11.34,10.16,17.98c0,.76-.08,1.6-.08,2.35h-15.88v.84c0,3.78,.59,13.1,5.96,13.1,4.2,0,4.79-5.71,4.87-8.9h4.79Zm-4.37-9.07c-.17-3.36-.59-11.93-5.38-11.93s-5.63,8.48-5.8,11.93h11.17Z"></path> <path class="cls-2" d="M72.77,651.12v-3.02c-1.68,2.27-3.44,3.61-6.38,3.61-8.57,0-8.82-12.01-8.82-18.65,0-7.64,.25-20.08,9.24-20.08,2.69,0,4.28,1.01,5.96,3.11v-2.52h4.79v37.55h-4.79Zm-4.79-34.36c-5.46,0-5.54,9.58-5.54,13.36,0,3.11,0,6.05,.25,9.07,.34,3.28,.84,8.65,5.21,8.65,1.26,0,2.18-.34,3.02-1.26,2.35-2.35,2.35-11.17,2.35-14.45,0-7.48-.42-15.37-5.29-15.37Z"></path> <path class="cls-2" d="M100.74,649.78c-1.51,1.18-3.53,1.93-5.38,1.93-8.82,0-10.84-12.01-10.84-18.73,0-7.14,1.51-19.99,11.09-19.99,1.76,0,3.53,.5,5.12,1.43v5.54c-1.26-1.34-2.77-2.6-4.7-2.6-5.96,0-6.55,11-6.55,15.2s.76,14.7,6.47,14.7c2.1,0,3.7-1.76,4.79-3.36v5.88Z"></path> <path class="cls-2" d="M120.9,651.12v-27.3c0-3.02-.08-6.97-4.2-6.97-1.76,0-3.53,.92-4.45,2.44-1.26,1.93-1.26,4.37-1.26,6.55v25.28h-4.7v-61.24h4.7v26.71c1.85-2.1,4.37-3.61,7.31-3.61,6.13,0,7.31,4.37,7.31,9.66v28.48h-4.7Z"></path> <path class="cls-2" d="M163.15,651.71c-9.66,0-11-12.1-11-19.4s1.34-19.32,11-19.32,10.5,12.35,10.5,19.57-.84,19.15-10.5,19.15Zm-.08-34.36c-5.8,0-5.96,11.42-5.96,15.37s.25,14.53,5.96,14.53,5.71-11.17,5.71-14.95-.17-14.95-5.71-14.95Z"></path> <path class="cls-2" d="M186.84,617.94v33.18h-4.7v-33.18h-4.03v-4.37h4.03v-10.67h4.7v10.67h6.3v4.37h-6.3Z"></path> <path class="cls-2" d="M212.04,651.12v-27.3c0-3.02-.08-6.97-4.2-6.97-1.76,0-3.53,.92-4.45,2.44-1.26,1.93-1.26,4.37-1.26,6.55v25.28h-4.7v-61.24h4.7v26.71c1.85-2.1,4.37-3.61,7.31-3.61,6.13,0,7.31,4.37,7.31,9.66v28.48h-4.7Z"></path> <path class="cls-2" d="M243.2,638.35c-.25,6.05-2.1,13.36-9.49,13.36-9.66,0-10.92-12.01-10.92-19.24,0-6.8,1.43-19.49,10.58-19.49s10.16,11.34,10.16,17.98c0,.76-.08,1.6-.08,2.35h-15.88v.84c0,3.78,.59,13.1,5.96,13.1,4.2,0,4.79-5.71,4.87-8.9h4.79Zm-4.37-9.07c-.17-3.36-.59-11.93-5.38-11.93s-5.63,8.48-5.8,11.93h11.17Z"></path> <path class="cls-2" d="M261.6,618.45c-6.3,0-6.38,5.04-6.38,9.91v22.76h-4.7v-37.55h4.7v4.87c1.26-2.77,3.11-5.29,6.38-5.46v5.46Z"></path> <path class="cls-2" d="M291.16,616.09c1.6-2.1,3.28-3.11,5.96-3.11,9.24,0,9.32,11.84,9.32,18.65,0,8.06-.25,20.08-8.82,20.08-2.94,0-4.7-1.43-6.47-3.61v18.14h-4.7v-52.67h4.7v2.52Zm4.87,.67c-4.87,0-5.29,7.9-5.29,15.37,0,3.28,0,12.1,2.35,14.45,.84,.92,1.76,1.26,3.02,1.26,4.37,0,4.87-5.38,5.21-8.65,.25-2.94,.25-5.88,.25-8.82,0-3.78-.08-13.61-5.54-13.61Z"></path> <path class="cls-2" d="M313.42,651.12v-61.24h4.79v61.24h-4.79Z"></path> <path class="cls-2" d="M340.89,651.12v-3.02c-1.68,2.27-3.44,3.61-6.38,3.61-8.57,0-8.82-12.01-8.82-18.65,0-7.64,.25-20.08,9.24-20.08,2.69,0,4.28,1.01,5.96,3.11v-2.52h4.79v37.55h-4.79Zm-4.79-34.36c-5.46,0-5.54,9.58-5.54,13.36,0,3.11,0,6.05,.25,9.07,.34,3.28,.84,8.65,5.21,8.65,1.26,0,2.18-.34,3.02-1.26,2.35-2.35,2.35-11.17,2.35-14.45,0-7.48-.42-15.37-5.29-15.37Z"></path> <path class="cls-2" d="M360.21,666.24h-5.04l4.2-16.13-8.9-36.54h4.79l4.7,20.83c.76,3.11,1.34,6.3,1.76,9.41,.34-2.35,.92-4.62,1.51-7.06l5.46-23.18h4.96l-13.44,52.67Z"></path> <path class="cls-2" d="M404.06,617.94v33.18h-4.7v-33.18h-4.03v-4.37h4.03v-10.67h4.7v10.67h6.3v4.37h-6.3Z"></path> <path class="cls-2" d="M429.26,651.12v-27.3c0-3.02-.08-6.97-4.2-6.97-1.76,0-3.53,.92-4.45,2.44-1.26,1.93-1.26,4.37-1.26,6.55v25.28h-4.7v-61.24h4.7v26.71c1.85-2.1,4.37-3.61,7.31-3.61,6.13,0,7.31,4.37,7.31,9.66v28.48h-4.7Z"></path> <path class="cls-2" d="M460.42,638.35c-.25,6.05-2.1,13.36-9.49,13.36-9.66,0-10.92-12.01-10.92-19.24,0-6.8,1.43-19.49,10.58-19.49s10.16,11.34,10.16,17.98c0,.76-.08,1.6-.08,2.35h-15.88v.84c0,3.78,.59,13.1,5.96,13.1,4.2,0,4.79-5.71,4.87-8.9h4.79Zm-4.37-9.07c-.17-3.36-.59-11.93-5.38-11.93s-5.63,8.48-5.8,11.93h11.17Z"></path> <path class="cls-2" d="M521.57,651.12h-4.7v-27.8c0-3.11-.5-6.47-4.37-6.47-5.46,0-5.71,6.13-5.71,10.25v24.02h-4.79v-27.72c0-2.77-.25-6.55-3.95-6.55-5.88,0-6.05,6.64-6.05,11v23.27h-4.7v-37.55h4.7v3.11c2.02-2.1,4.28-3.7,7.31-3.7,3.19,0,5.46,1.6,6.89,4.37,2.02-2.69,4.2-4.37,7.73-4.37,6.05,0,7.64,3.95,7.64,9.32v28.81Z"></path> <path class="cls-2" d="M539.55,651.71c-9.66,0-11-12.1-11-19.4s1.34-19.32,11-19.32,10.5,12.35,10.5,19.57-.84,19.15-10.5,19.15Zm-.08-34.36c-5.8,0-5.96,11.42-5.96,15.37s.25,14.53,5.96,14.53,5.71-11.17,5.71-14.95-.17-14.95-5.71-14.95Z"></path> <path class="cls-2" d="M571.3,621.22c-1.68-2.02-3.78-3.86-6.47-3.86s-4.62,2.27-4.62,4.96c0,7.31,12.1,8.65,12.1,18.82,0,5.8-4.12,10.58-10.08,10.58-2.52,0-4.96-1.01-6.97-2.6v-5.54c1.85,1.93,3.95,3.7,6.64,3.7,3.36,0,5.46-2.69,5.46-5.8,0-7.39-12.1-9.91-12.1-18.98,0-5.46,3.86-9.49,9.32-9.49,2.52,0,4.62,.92,6.72,2.44v5.8Z"></path> <path class="cls-2" d="M584.15,617.94v33.18h-4.7v-33.18h-4.03v-4.37h4.03v-10.67h4.7v10.67h6.3v4.37h-6.3Z"></path> <path class="cls-2" d="M34.55,721.26c-1.93,0-3.53-1.6-3.53-3.44,0-2.02,1.51-3.61,3.53-3.61s3.44,1.68,3.44,3.61-1.51,3.44-3.44,3.44Zm-2.44,45.86v-37.55h4.79v37.55h-4.79Z"></path> <path class="cls-2" d="M79.49,767.12h-4.7v-27.8c0-3.11-.5-6.47-4.37-6.47-5.46,0-5.71,6.13-5.71,10.25v24.02h-4.79v-27.72c0-2.77-.25-6.55-3.95-6.55-5.88,0-6.05,6.64-6.05,11v23.27h-4.7v-37.55h4.7v3.11c2.02-2.1,4.28-3.7,7.31-3.7,3.19,0,5.46,1.6,6.89,4.37,2.02-2.69,4.2-4.37,7.73-4.37,6.05,0,7.64,3.95,7.64,9.32v28.81Z"></path> <path class="cls-2" d="M92.34,732.09c1.6-2.1,3.28-3.11,5.96-3.11,9.24,0,9.32,11.84,9.32,18.65,0,8.06-.25,20.08-8.82,20.08-2.94,0-4.7-1.43-6.47-3.61v18.14h-4.7v-52.67h4.7v2.52Zm4.87,.67c-4.87,0-5.29,7.9-5.29,15.37,0,3.28,0,12.1,2.35,14.45,.84,.92,1.76,1.26,3.02,1.26,4.37,0,4.87-5.38,5.21-8.65,.25-2.94,.25-5.88,.25-8.82,0-3.78-.08-13.61-5.54-13.61Z"></path> <path class="cls-2" d="M124.18,767.71c-9.66,0-11-12.1-11-19.4s1.34-19.32,11-19.32,10.5,12.35,10.5,19.57-.84,19.15-10.5,19.15Zm-.08-34.36c-5.8,0-5.96,11.42-5.96,15.37s.25,14.53,5.96,14.53,5.71-11.17,5.71-14.95-.17-14.95-5.71-14.95Z"></path> <path class="cls-2" d="M152.82,734.45c-6.3,0-6.38,5.04-6.38,9.91v22.76h-4.7v-37.55h4.7v4.87c1.26-2.77,3.11-5.29,6.38-5.46v5.46Z"></path> <path class="cls-2" d="M165.51,733.94v33.18h-4.7v-33.18h-4.03v-4.37h4.03v-10.67h4.7v10.67h6.3v4.37h-6.3Z"></path> <path class="cls-2" d="M190.37,767.12v-3.02c-1.68,2.27-3.44,3.61-6.38,3.61-8.57,0-8.82-12.01-8.82-18.65,0-7.64,.25-20.08,9.24-20.08,2.69,0,4.28,1.01,5.96,3.11v-2.52h4.79v37.55h-4.79Zm-4.79-34.36c-5.46,0-5.54,9.58-5.54,13.36,0,3.11,0,6.05,.25,9.07,.34,3.28,.84,8.65,5.21,8.65,1.26,0,2.18-.34,3.02-1.26,2.35-2.35,2.35-11.17,2.35-14.45,0-7.48-.42-15.37-5.29-15.37Z"></path> <path class="cls-2" d="M218.17,767.12v-27.3c0-3.02-.08-6.97-4.2-6.97-1.76,0-3.53,.92-4.45,2.44-1.26,1.85-1.26,4.37-1.26,6.55v25.28h-4.7v-37.55h4.7v3.02c1.85-2.1,4.37-3.61,7.31-3.61,6.3,0,7.31,5.21,7.31,10.33v27.8h-4.7Z"></path> <path class="cls-2" d="M237.41,733.94v33.18h-4.7v-33.18h-4.03v-4.37h4.03v-10.67h4.7v10.67h6.3v4.37h-6.3Z"></path> <path class="cls-2" d="M278.65,734.45c-6.3,0-6.38,5.04-6.38,9.91v22.76h-4.7v-37.55h4.7v4.87c1.26-2.77,3.11-5.29,6.38-5.46v5.46Z"></path> <path class="cls-2" d="M293.1,767.71c-9.66,0-11-12.1-11-19.4s1.34-19.32,11-19.32,10.5,12.35,10.5,19.57-.84,19.15-10.5,19.15Zm-.08-34.36c-5.8,0-5.96,11.42-5.96,15.37s.25,14.53,5.96,14.53,5.71-11.17,5.71-14.95-.17-14.95-5.71-14.95Z"></path> <path class="cls-2" d="M310.65,767.12v-61.24h4.79v61.24h-4.79Z"></path> <path class="cls-2" d="M342.83,754.35c-.25,6.05-2.1,13.36-9.49,13.36-9.66,0-10.92-12.01-10.92-19.24,0-6.8,1.43-19.49,10.58-19.49s10.16,11.34,10.16,17.98c0,.76-.08,1.6-.08,2.35h-15.88v.84c0,3.78,.59,13.1,5.96,13.1,4.2,0,4.79-5.71,4.87-8.9h4.79Zm-4.37-9.07c-.17-3.36-.59-11.93-5.38-11.93s-5.63,8.48-5.8,11.93h11.17Z"></path> <path class="cls-2" d="M372.06,721.26c-1.93,0-3.53-1.6-3.53-3.44,0-2.02,1.51-3.61,3.53-3.61s3.44,1.68,3.44,3.61-1.51,3.44-3.44,3.44Zm-2.44,45.86v-37.55h4.79v37.55h-4.79Z"></path> <path class="cls-2" d="M397.34,767.12v-27.3c0-3.02-.08-6.97-4.2-6.97-1.76,0-3.53,.92-4.45,2.44-1.26,1.85-1.26,4.37-1.26,6.55v25.28h-4.7v-37.55h4.7v3.02c1.85-2.1,4.37-3.61,7.31-3.61,6.3,0,7.31,5.21,7.31,10.33v27.8h-4.7Z"></path> <path class="cls-2" d="M436.15,733.94v33.18h-4.7v-33.18h-4.03v-4.37h4.03v-10.67h4.7v10.67h6.3v4.37h-6.3Z"></path> <path class="cls-2" d="M461.34,767.12v-27.3c0-3.02-.08-6.97-4.2-6.97-1.76,0-3.53,.92-4.45,2.44-1.26,1.93-1.26,4.37-1.26,6.55v25.28h-4.7v-61.24h4.7v26.71c1.85-2.1,4.37-3.61,7.31-3.61,6.13,0,7.31,4.37,7.31,9.66v28.48h-4.7Z"></path> <path class="cls-2" d="M492.51,754.35c-.25,6.05-2.1,13.36-9.49,13.36-9.66,0-10.92-12.01-10.92-19.24,0-6.8,1.43-19.49,10.58-19.49s10.16,11.34,10.16,17.98c0,.76-.08,1.6-.08,2.35h-15.88v.84c0,3.78,.59,13.1,5.96,13.1,4.2,0,4.79-5.71,4.87-8.9h4.79Zm-4.37-9.07c-.17-3.36-.59-11.93-5.38-11.93s-5.63,8.48-5.8,11.93h11.17Z"></path> <path class="cls-2" d="M525.52,733.94v33.18h-4.7v-33.18h-4.03v-4.37h4.03v-10.67h4.7v10.67h6.3v4.37h-6.3Z"></path> <path class="cls-2" d="M547.19,734.45c-6.3,0-6.38,5.04-6.38,9.91v22.76h-4.7v-37.55h4.7v4.87c1.26-2.77,3.11-5.29,6.38-5.46v5.46Z"></path> <path class="cls-2" d="M570.96,754.35c-.25,6.05-2.1,13.36-9.49,13.36-9.66,0-10.92-12.01-10.92-19.24,0-6.8,1.43-19.49,10.58-19.49s10.16,11.34,10.16,17.98c0,.76-.08,1.6-.08,2.35h-15.88v.84c0,3.78,.59,13.1,5.96,13.1,4.2,0,4.79-5.71,4.87-8.9h4.79Zm-4.37-9.07c-.17-3.36-.59-11.93-5.38-11.93s-5.63,8.48-5.8,11.93h11.17Z"></path> <path class="cls-2" d="M592.55,767.12v-3.02c-1.68,2.27-3.44,3.61-6.38,3.61-8.57,0-8.82-12.01-8.82-18.65,0-7.64,.25-20.08,9.24-20.08,2.69,0,4.28,1.01,5.96,3.11v-2.52h4.79v37.55h-4.79Zm-4.79-34.36c-5.46,0-5.54,9.58-5.54,13.36,0,3.11,0,6.05,.25,9.07,.34,3.28,.84,8.65,5.21,8.65,1.26,0,2.18-.34,3.02-1.26,2.35-2.35,2.35-11.17,2.35-14.45,0-7.48-.42-15.37-5.29-15.37Z"></path> <path class="cls-2" d="M611.87,733.94v33.18h-4.7v-33.18h-4.03v-4.37h4.03v-10.67h4.7v10.67h6.3v4.37h-6.3Z"></path> <path class="cls-2" d="M656.72,767.12h-4.7v-27.8c0-3.11-.5-6.47-4.37-6.47-5.46,0-5.71,6.13-5.71,10.25v24.02h-4.79v-27.72c0-2.77-.25-6.55-3.95-6.55-5.88,0-6.05,6.64-6.05,11v23.27h-4.7v-37.55h4.7v3.11c2.02-2.1,4.28-3.7,7.31-3.7,3.19,0,5.46,1.6,6.89,4.37,2.02-2.69,4.2-4.37,7.73-4.37,6.05,0,7.64,3.95,7.64,9.32v28.81Z"></path> <path class="cls-2" d="M684.11,754.35c-.25,6.05-2.1,13.36-9.49,13.36-9.66,0-10.92-12.01-10.92-19.24,0-6.8,1.43-19.49,10.58-19.49s10.16,11.34,10.16,17.98c0,.76-.08,1.6-.08,2.35h-15.88v.84c0,3.78,.59,13.1,5.96,13.1,4.2,0,4.79-5.71,4.87-8.9h4.79Zm-4.37-9.07c-.17-3.36-.59-11.93-5.38-11.93s-5.63,8.48-5.8,11.93h11.17Z"></path> <path class="cls-2" d="M706.03,767.12v-27.3c0-3.02-.08-6.97-4.2-6.97-1.76,0-3.53,.92-4.45,2.44-1.26,1.85-1.26,4.37-1.26,6.55v25.28h-4.7v-37.55h4.7v3.02c1.85-2.1,4.37-3.61,7.31-3.61,6.3,0,7.31,5.21,7.31,10.33v27.8h-4.7Z"></path> <path class="cls-2" d="M725.26,733.94v33.18h-4.7v-33.18h-4.03v-4.37h4.03v-10.67h4.7v10.67h6.3v4.37h-6.3Z"></path> <path class="cls-2" d="M764.99,767.71c-9.66,0-11-12.1-11-19.4s1.34-19.32,11-19.32,10.5,12.35,10.5,19.57-.84,19.15-10.5,19.15Zm-.08-34.36c-5.8,0-5.96,11.42-5.96,15.37s.25,14.53,5.96,14.53,5.71-11.17,5.71-14.95-.17-14.95-5.71-14.95Z"></path> <path class="cls-2" d="M788.68,733.94v33.18h-4.7v-33.18h-4.28v-4.37h4.28v-15.04c0-4.79,1.26-9.58,6.97-9.58,1.43,0,2.86,.25,4.2,.84v5.21c-1.01-.84-2.1-1.68-3.44-1.68-2.77,0-3.02,2.52-3.02,4.62v15.62h6.47v4.37h-6.47Z"></path> <path class="cls-2" d="M36.9,848.09c1.6-2.1,3.28-3.11,5.96-3.11,9.24,0,9.32,11.84,9.32,18.65,0,8.06-.25,20.08-8.82,20.08-2.94,0-4.7-1.43-6.47-3.61v18.14h-4.7v-52.67h4.7v2.52Zm4.87,.67c-4.87,0-5.29,7.9-5.29,15.37,0,3.28,0,12.1,2.35,14.45,.84,.92,1.76,1.26,3.02,1.26,4.37,0,4.87-5.38,5.21-8.65,.25-2.94,.25-5.88,.25-8.82,0-3.78-.08-13.61-5.54-13.61Z"></path> <path class="cls-2" d="M73.44,883.12v-3.02c-1.68,2.27-3.44,3.61-6.38,3.61-8.57,0-8.82-12.01-8.82-18.65,0-7.64,.25-20.08,9.24-20.08,2.69,0,4.28,1.01,5.96,3.11v-2.52h4.79v37.55h-4.79Zm-4.79-34.36c-5.46,0-5.54,9.58-5.54,13.36,0,3.11,0,6.05,.25,9.07,.34,3.28,.84,8.65,5.21,8.65,1.26,0,2.18-.34,3.02-1.26,2.35-2.35,2.35-11.17,2.35-14.45,0-7.48-.42-15.37-5.29-15.37Z"></path> <path class="cls-2" d="M97.72,850.45c-6.3,0-6.38,5.04-6.38,9.91v22.76h-4.7v-37.55h4.7v4.87c1.26-2.77,3.11-5.29,6.38-5.46v5.46Z"></path> <path class="cls-2" d="M110.4,849.94v33.18h-4.7v-33.18h-4.03v-4.37h4.03v-10.67h4.7v10.67h6.3v4.37h-6.3Z"></path> <path class="cls-2" d="M123.34,837.26c-1.93,0-3.53-1.6-3.53-3.44,0-2.02,1.51-3.61,3.53-3.61s3.44,1.68,3.44,3.61-1.51,3.44-3.44,3.44Zm-2.44,45.86v-37.55h4.79v37.55h-4.79Z"></path> <path class="cls-2" d="M148.79,881.78c-1.51,1.18-3.53,1.93-5.38,1.93-8.82,0-10.84-12.01-10.84-18.73,0-7.14,1.51-19.99,11.09-19.99,1.76,0,3.53,.5,5.12,1.43v5.54c-1.26-1.34-2.77-2.6-4.7-2.6-5.96,0-6.55,11-6.55,15.2s.76,14.7,6.47,14.7c2.1,0,3.7-1.76,4.79-3.36v5.88Z"></path> <path class="cls-2" d="M174.16,873.96c0,6.05-3.78,9.74-9.74,9.74s-9.74-3.7-9.74-9.74v-28.39h4.7v25.45c0,3.86,.17,8.23,5.21,8.23s4.87-5.04,4.87-8.74v-24.95h4.7v28.39Z"></path> <path class="cls-2" d="M182.55,883.12v-61.24h4.79v61.24h-4.79Z"></path> <path class="cls-2" d="M210.02,883.12v-3.02c-1.68,2.27-3.44,3.61-6.38,3.61-8.57,0-8.82-12.01-8.82-18.65,0-7.64,.25-20.08,9.24-20.08,2.69,0,4.28,1.01,5.96,3.11v-2.52h4.79v37.55h-4.79Zm-4.79-34.36c-5.46,0-5.54,9.58-5.54,13.36,0,3.11,0,6.05,.25,9.07,.34,3.28,.84,8.65,5.21,8.65,1.26,0,2.18-.34,3.02-1.26,2.35-2.35,2.35-11.17,2.35-14.45,0-7.48-.42-15.37-5.29-15.37Z"></path> <path class="cls-2" d="M234.3,850.45c-6.3,0-6.38,5.04-6.38,9.91v22.76h-4.7v-37.55h4.7v4.87c1.26-2.77,3.11-5.29,6.38-5.46v5.46Z"></path> <path class="cls-2" d="M273.02,883.12v-3.02c-1.68,2.27-3.53,3.61-6.47,3.61-8.65,0-8.82-12.52-8.82-19.07,0-7.31,0-19.66,9.32-19.66,2.69,0,4.28,1.01,5.96,3.11v-26.21h4.7v61.24h-4.7Zm-4.87-34.36c-5.38,0-5.46,9.66-5.46,13.36,0,3.11,0,6.05,.25,9.07,.25,3.28,.76,8.65,5.12,8.65,1.26,0,2.27-.34,3.11-1.26,2.27-2.27,2.27-11.09,2.27-14.2,0-7.9-.42-15.62-5.29-15.62Z"></path> <path class="cls-2" d="M288.48,837.26c-1.93,0-3.53-1.6-3.53-3.44,0-2.02,1.51-3.61,3.53-3.61s3.44,1.68,3.44,3.61-1.51,3.44-3.44,3.44Zm-2.44,45.86v-37.55h4.79v37.55h-4.79Z"></path> <path class="cls-2" d="M313.34,853.22c-1.68-2.02-3.78-3.86-6.47-3.86s-4.62,2.27-4.62,4.96c0,7.31,12.1,8.65,12.1,18.82,0,5.8-4.12,10.58-10.08,10.58-2.52,0-4.96-1.01-6.97-2.6v-5.54c1.85,1.93,3.95,3.7,6.64,3.7,3.36,0,5.46-2.69,5.46-5.8,0-7.39-12.1-9.91-12.1-18.98,0-5.46,3.86-9.49,9.32-9.49,2.52,0,4.62,.92,6.72,2.44v5.8Z"></path> <path class="cls-2" d="M339.04,870.35c-.25,6.05-2.1,13.36-9.49,13.36-9.66,0-10.92-12.01-10.92-19.24,0-6.8,1.43-19.49,10.58-19.49s10.16,11.34,10.16,17.98c0,.76-.08,1.6-.08,2.35h-15.88v.84c0,3.78,.59,13.1,5.96,13.1,4.2,0,4.79-5.71,4.87-8.9h4.79Zm-4.37-9.07c-.17-3.36-.59-11.93-5.38-11.93s-5.63,8.48-5.8,11.93h11.17Z"></path> <path class="cls-2" d="M360.63,883.12v-3.02c-1.68,2.27-3.44,3.61-6.38,3.61-8.57,0-8.82-12.01-8.82-18.65,0-7.64,.25-20.08,9.24-20.08,2.69,0,4.28,1.01,5.96,3.11v-2.52h4.79v37.55h-4.79Zm-4.79-34.36c-5.46,0-5.54,9.58-5.54,13.36,0,3.11,0,6.05,.25,9.07,.34,3.28,.84,8.65,5.21,8.65,1.26,0,2.18-.34,3.02-1.26,2.35-2.35,2.35-11.17,2.35-14.45,0-7.48-.42-15.37-5.29-15.37Z"></path> <path class="cls-2" d="M388.01,853.22c-1.68-2.02-3.78-3.86-6.47-3.86s-4.62,2.27-4.62,4.96c0,7.31,12.1,8.65,12.1,18.82,0,5.8-4.12,10.58-10.08,10.58-2.52,0-4.96-1.01-6.97-2.6v-5.54c1.85,1.93,3.95,3.7,6.64,3.7,3.36,0,5.46-2.69,5.46-5.8,0-7.39-12.1-9.91-12.1-18.98,0-5.46,3.86-9.49,9.32-9.49,2.52,0,4.62,.92,6.72,2.44v5.8Z"></path> <path class="cls-2" d="M413.72,870.35c-.25,6.05-2.1,13.36-9.49,13.36-9.66,0-10.92-12.01-10.92-19.24,0-6.8,1.43-19.49,10.58-19.49s10.16,11.34,10.16,17.98c0,.76-.08,1.6-.08,2.35h-15.88v.84c0,3.78,.59,13.1,5.96,13.1,4.2,0,4.79-5.71,4.87-8.9h4.79Zm-4.37-9.07c-.17-3.36-.59-11.93-5.38-11.93s-5.63,8.48-5.8,11.93h11.17Z"></path> <path class="cls-2" d="M435.22,853.22c-1.68-2.02-3.78-3.86-6.47-3.86s-4.62,2.27-4.62,4.96c0,7.31,12.1,8.65,12.1,18.82,0,5.8-4.12,10.58-10.08,10.58-2.52,0-4.96-1.01-6.97-2.6v-5.54c1.85,1.93,3.95,3.7,6.64,3.7,3.36,0,5.46-2.69,5.46-5.8,0-7.39-12.1-9.91-12.1-18.98,0-5.46,3.86-9.49,9.32-9.49,2.52,0,4.62,.92,6.72,2.44v5.8Z"></path> <path class="cls-2" d="M445.13,883.71c-2.02,0-3.78-1.76-3.78-3.78s1.68-3.78,3.78-3.78,3.78,1.68,3.78,3.78-1.68,3.78-3.78,3.78Z"></path> </g> <g> <path class="cls-3" d="M523.58,873.4l1.28-1.85c2.98,1.83,6.96,2.87,10.65,2.83,4.53-.06,7.74-1.84,7.75-4.97,0-2.82-1.95-3.87-6.54-4.95l-3.67-.86c-5.37-1.25-8.21-3.27-8.24-7.02-.04-4.16,4.09-6.74,9.9-6.8,3.72-.04,7.35,1.08,10.08,2.8l-1.23,1.85c-2.5-1.58-5.53-2.54-8.66-2.49-4.51,.08-7.63,1.71-7.59,4.7,.03,2.58,2.15,3.86,6.44,4.87l3.82,.89c5.53,1.28,8.09,3.16,8.12,7,.04,4.37-4.23,7.12-10.26,7.15-4.35,.02-8.76-1.17-11.85-3.13Z"></path> <path class="cls-3" d="M550.44,863.17c0-7.53,5.93-13.61,13.99-13.61s14.05,6.08,14.05,13.61-5.93,13.57-14.05,13.57-13.99-6.1-13.99-13.57Zm25.68,0c0-6.34-4.98-11.4-11.69-11.4s-11.64,5.05-11.64,11.4,4.98,11.34,11.64,11.34,11.69-5.05,11.69-11.34Z"></path> <path class="cls-3" d="M584.59,863.91v-13.88h2.39v13.88c0,6.77,3.07,10.43,9.43,10.43s9.43-3.67,9.43-10.42v-13.89h2.42v13.89c0,7.94-3.99,12.63-11.85,12.63s-11.82-4.65-11.82-12.64Z"></path> <path class="cls-3" d="M633.49,876.27l-15.26-12.07v12.07h-2.36v-26.24h12.03c5.38,0,9.23,2.52,9.23,7.45s-3.67,7.43-9.07,7.43h-5.5l14.64,11.35h-3.72Zm-15.26-13.52h9.83c3.87,0,6.64-1.61,6.64-5.27s-2.77-5.29-6.64-5.29h-9.83v10.56Z"></path> <path class="cls-3" d="M641.82,863.14c0-7.56,5.98-13.47,13.86-13.47,4.01,0,7.71,1.49,10.58,4.32l-1.8,1.45c-2.46-2.38-5.5-3.55-8.78-3.55-6.53,0-11.51,4.84-11.51,11.24s4.98,11.29,11.51,11.29c3.44,0,6.36-1.16,8.9-3.58l1.82,1.4c-3,2.92-6.54,4.4-10.71,4.4-7.91,0-13.86-5.9-13.86-13.51Z"></path> <path class="cls-3" d="M672.16,850.03h20.26v2.15h-17.91v8.83h13.36v2.12h-13.36v10.97h17.92v2.18h-20.27v-26.24Z"></path> </g> </g> </svg> 